<?xml version="1.0" standalone="no"?>
<!DOCTYPE svg PUBLIC "-//W3C//DTD SVG 20010904//EN"
 "http://www.w3.org/TR/2001/REC-SVG-20010904/DTD/svg10.dtd">
<svg version="1.0" xmlns="http://www.w3.org/2000/svg"
 width="640.000000pt" height="427.000000pt" viewBox="0 0 640.000000 427.000000"
 preserveAspectRatio="xMidYMid meet">
<metadata>
Created by potrace 1.16, written by Peter Selinger 2001-2019
</metadata>
<g transform="translate(0.000000,427.000000) scale(0.100000,-0.100000)"
fill="#000000" stroke="none">
<path d="M0 2135 l0 -2135 3200 0 3200 0 -2 1261 -3 1260 -25 19 c-13 10 -29
18 -35 17 -5 -1 -11 11 -13 27 l-4 28 -24 -35 c-13 -20 -33 -38 -44 -42 -27
-9 -25 -22 4 -29 27 -7 56 1 56 15 0 4 7 6 16 2 8 -3 13 -12 10 -19 -3 -7 -1
-16 5 -19 5 -4 7 -11 3 -16 -3 -5 -9 -7 -14 -4 -4 3 -13 -2 -20 -10 -7 -8 -21
-15 -32 -15 -17 0 -18 3 -8 15 16 20 0 19 -28 -1 -18 -12 -22 -13 -22 -1 0 8
10 19 23 24 19 9 13 11 -36 14 -33 2 -61 1 -64 -3 -2 -5 2 -8 9 -9 7 0 3 -4
-9 -9 -14 -6 -21 -15 -17 -24 8 -21 -35 -43 -47 -25 -6 10 -3 16 9 19 10 3 17
12 17 20 0 17 -65 33 -81 19 -6 -5 -14 -6 -17 -3 -3 3 -11 3 -17 -1 -8 -5 -8
-11 1 -21 13 -16 1 -18 -21 -4 -9 5 -19 5 -27 -2 -9 -7 -17 -7 -27 1 -16 14
-46 4 -46 -14 0 -21 17 -27 41 -15 26 15 34 7 19 -19 -15 -29 -44 -26 -69 5
-13 16 -21 21 -21 12 0 -8 6 -20 13 -28 6 -8 2 -6 -10 4 -26 22 -43 14 -35
-16 3 -14 2 -19 -6 -14 -7 4 -12 15 -12 24 0 9 -15 27 -33 39 -38 27 -45 58
-14 67 20 5 20 6 2 26 -10 11 -26 20 -37 20 -22 0 -23 7 -2 27 13 14 17 14 26
2 8 -11 9 -11 5 3 -3 9 5 28 18 44 22 25 22 29 8 51 -11 16 -12 23 -4 21 7 -2
20 8 29 22 10 17 11 21 2 13 -16 -15 -80 -18 -80 -4 0 4 -12 22 -27 39 -22 24
-32 29 -49 22 -21 -8 -40 -50 -23 -50 5 0 9 -5 9 -11 0 -6 -7 -9 -15 -5 -10 4
-14 -1 -12 -16 1 -11 -4 -23 -10 -25 -19 -7 -17 52 2 71 8 8 15 18 15 23 0 14
-54 9 -66 -6 -9 -12 -12 -12 -17 2 -3 9 1 18 10 21 9 4 13 14 10 25 -2 10 0
25 5 34 10 19 -1 104 -12 87 -5 -8 -9 -4 -13 10 -5 18 -11 21 -31 16 -16 -4
-26 -2 -26 5 0 6 -7 3 -16 -5 -8 -9 -20 -16 -25 -16 -5 0 -9 -7 -9 -15 0 -8
-9 -15 -19 -15 -21 0 -37 17 -26 28 3 3 10 0 15 -8 7 -11 8 -7 6 12 -4 38 -23
57 -49 51 -24 -6 -47 -30 -47 -49 0 -6 12 -23 26 -38 29 -29 21 -35 -14 -10
-12 8 -22 22 -22 31 0 11 -6 14 -25 9 -28 -7 -28 -7 -25 82 1 31 -3 52 -9 52
-6 0 -11 -6 -11 -12 0 -7 -5 -5 -11 5 -17 28 -52 20 -77 -18 -12 -19 -27 -35
-32 -35 -13 0 -13 13 -1 26 6 5 5 15 -3 25 -10 15 -14 15 -31 3 -18 -14 -18
-14 1 -14 19 -1 19 -1 0 -15 -31 -24 -44 -18 -42 17 1 26 6 33 21 33 11 0 20
6 19 13 -3 36 -5 42 -15 42 -6 0 -9 -7 -5 -15 3 -8 0 -14 -6 -12 -7 1 -17 -8
-23 -20 -5 -13 -18 -23 -27 -23 -10 0 -21 0 -25 0 -5 0 -8 7 -8 16 0 21 -56
54 -62 36 -3 -6 -9 -10 -13 -7 -5 3 -17 -6 -26 -20 -9 -14 -25 -25 -35 -25
-10 0 -35 -17 -54 -37 -19 -21 -32 -30 -29 -20 3 9 1 17 -5 17 -14 0 -14 -5 2
-58 7 -24 20 -48 28 -53 12 -8 12 -10 -1 -18 -12 -9 -12 -11 3 -17 25 -9 22
-49 -3 -51 -17 -2 -20 2 -15 18 6 18 4 19 -12 11 -10 -6 -40 -31 -68 -56 -51
-48 -65 -55 -65 -32 0 7 -9 16 -20 19 -11 3 -20 10 -20 15 0 6 10 8 23 4 20
-5 21 -4 8 11 -12 15 -12 17 3 11 11 -4 15 -13 11 -25 -12 -37 15 -18 31 21
14 34 21 40 45 40 16 0 29 4 29 10 0 14 -38 32 -44 21 -4 -5 0 -12 6 -14 9 -4
10 -6 1 -6 -20 -2 -23 14 -8 42 10 19 10 27 2 31 -9 3 -9 7 1 14 7 5 11 15 9
23 -2 8 -2 11 0 7 10 -17 22 -6 29 24 3 18 13 37 20 43 14 10 27 118 13 110
-4 -3 -10 -1 -14 5 -4 6 -11 8 -16 5 -5 -4 -9 0 -9 9 0 8 4 16 8 18 19 8 51
107 50 158 0 44 -2 51 -11 39 -14 -18 -44 -21 -51 -4 -2 6 -18 10 -35 9 -17
-1 -31 3 -31 8 0 6 9 8 20 5 27 -7 25 11 -2 35 -22 18 -23 18 -36 1 -7 -10
-11 -25 -9 -34 3 -9 1 -23 -4 -30 -7 -11 -13 -9 -28 10 -10 14 -21 19 -25 13
-3 -5 1 -12 8 -15 8 -3 16 -18 18 -33 4 -33 28 -45 28 -14 0 12 4 18 11 15 6
-4 8 -13 5 -21 -3 -8 1 -14 9 -14 8 0 15 6 16 13 0 6 4 1 10 -11 12 -32 5 -40
-32 -38 -23 2 -33 -3 -38 -17 -7 -18 -8 -18 -24 -3 -9 10 -21 14 -27 11 -5 -3
-10 1 -10 9 0 19 -16 21 -26 4 -4 -7 -3 -8 4 -4 7 4 12 1 12 -8 0 -9 6 -16 13
-16 7 0 22 -7 33 -16 18 -14 16 -15 -24 -11 -41 5 -43 4 -27 -13 10 -11 38
-20 76 -24 56 -7 75 -26 25 -26 -13 0 -36 -4 -52 -9 -53 -17 -91 -23 -74 -11
13 8 13 10 -1 10 -23 0 -44 -26 -27 -33 7 -3 8 -6 2 -6 -5 -1 -20 8 -32 19
-20 19 -22 19 -23 3 0 -11 -3 -13 -6 -5 -7 17 -31 15 -50 -3 -15 -16 -54 -11
-61 6 -2 5 -8 6 -13 3 -6 -3 -21 1 -34 10 -13 9 -33 16 -44 16 -11 0 -21 6
-23 12 -4 12 -12 10 -69 -20 -4 -1 -9 7 -12 20 -4 12 -9 19 -13 16 -3 -4 -16
-3 -29 2 -20 8 -24 5 -30 -23 -7 -27 -9 -29 -12 -10 -2 12 -10 24 -17 26 -10
4 -12 -1 -9 -14 5 -17 1 -18 -28 -13 -46 9 -69 22 -69 39 0 8 -5 15 -11 15 -6
0 -8 -7 -5 -16 3 -9 3 -14 -1 -12 -49 24 -63 32 -63 40 0 4 -4 8 -9 8 -12 0
-11 -41 2 -58 6 -7 7 -15 3 -19 -3 -4 -12 8 -18 25 -7 18 -17 30 -23 28 -5 -2
-18 3 -27 12 -16 13 -20 13 -42 -2 -18 -12 -27 -13 -32 -4 -5 8 -9 7 -13 -5
-6 -15 -9 -15 -34 -2 -25 13 -31 13 -54 -2 -18 -12 -27 -13 -32 -4 -12 18 -53
-22 -45 -44 5 -11 1 -21 -9 -27 -22 -12 -22 -25 1 -25 23 0 42 27 36 52 -5 19
-4 19 7 1 9 -15 13 -16 21 -5 7 10 8 6 5 -15 -3 -15 2 -40 9 -55 8 -14 11 -34
8 -44 -5 -16 -2 -18 16 -12 26 8 45 -12 29 -32 -6 -7 -7 -18 -3 -25 5 -7 9
-19 10 -28 1 -8 6 -25 9 -37 5 -15 3 -23 -4 -23 -21 0 -25 5 -26 37 -1 38 -42
88 -60 73 -7 -5 -15 -7 -18 -3 -12 11 -8 23 8 23 8 0 15 7 15 15 0 14 -3 13
-25 -1 -29 -19 -31 -27 -10 -44 13 -11 13 -15 -6 -31 -16 -13 -20 -27 -17 -49
5 -34 -5 -38 -30 -13 -12 12 -13 18 -4 21 12 4 17 44 6 55 -4 3 -26 -9 -49
-28 -23 -19 -45 -32 -48 -29 -11 11 -26 -42 -22 -80 2 -25 -1 -36 -11 -36 -9
0 -13 -13 -11 -47 1 -28 -5 -61 -15 -80 -9 -18 -12 -33 -7 -33 12 0 39 -62 39
-90 0 -11 -7 -20 -15 -20 -8 0 -15 -4 -15 -10 0 -9 9 -12 53 -14 10 -1 22 -7
26 -15 6 -10 11 -9 23 3 14 14 16 13 21 -4 3 -13 11 -18 21 -14 9 3 16 1 16
-5 0 -7 -7 -14 -16 -18 -13 -5 -11 -9 8 -27 12 -11 26 -21 29 -21 4 0 11 -3
15 -8 13 -13 22 -7 17 12 -3 14 2 20 22 23 30 6 74 -33 76 -67 1 -16 2 -15 8
5 5 17 9 21 15 12 11 -17 47 -16 40 2 -3 8 -1 23 5 33 6 10 11 12 11 6 0 -20
20 -15 20 4 0 15 1 15 14 -2 8 -11 20 -16 29 -12 11 4 14 2 10 -9 -3 -7 -9
-14 -14 -14 -4 0 -6 -7 -3 -15 4 -8 1 -15 -5 -15 -6 0 -14 12 -17 27 -7 24 -8
25 -14 8 -4 -11 -3 -26 3 -33 12 -15 -6 -32 -33 -32 -11 1 -10 4 4 15 11 8 16
18 12 22 -4 4 -11 2 -15 -5 -7 -12 -24 -18 -53 -21 -4 -1 -5 -14 -1 -31 5 -26
3 -30 -17 -30 -19 0 -20 2 -10 15 7 8 11 15 9 16 -50 11 -60 -1 -31 -35 17
-20 17 -20 -10 -3 -23 14 -26 14 -22 2 4 -8 10 -15 15 -15 6 0 4 -6 -3 -13
-13 -14 -41 -19 -32 -6 8 14 -15 20 -36 9 -16 -9 -20 -8 -20 4 0 19 -37 39
-57 32 -8 -3 -23 -1 -33 4 -13 7 -21 7 -25 0 -9 -15 5 -51 16 -44 6 4 6 11 -2
20 -6 8 -7 14 -2 14 12 0 38 -29 46 -53 4 -10 11 -15 17 -12 6 4 4 15 -5 29
-14 21 -14 24 -1 29 8 3 17 -1 20 -9 4 -10 2 -12 -6 -8 -7 4 -8 3 -4 -5 4 -6
11 -9 15 -6 5 2 16 -4 25 -14 14 -16 15 -20 2 -30 -10 -8 -16 -9 -21 -1 -3 6
-11 8 -16 5 -5 -3 -1 -18 8 -33 16 -24 13 -23 -16 7 -31 30 -36 31 -47 17 -10
-15 -12 -15 -18 -1 -3 9 -2 13 4 10 6 -3 10 0 10 9 0 8 6 17 13 20 6 4 2 4
-11 2 -14 -3 -25 1 -29 10 -7 18 -18 18 -50 -3 -35 -23 -66 -27 -78 -10 -5 8
-28 17 -50 22 -22 4 -34 10 -27 12 6 3 10 9 6 14 -7 12 -44 12 -44 -1 0 -5 4
-10 9 -10 5 0 13 -9 16 -20 3 -11 13 -20 21 -20 8 0 14 -5 14 -11 0 -8 5 -8
15 1 13 11 15 8 15 -13 0 -14 -5 -29 -10 -32 -6 -4 -8 -11 -5 -16 4 -5 1 -9
-4 -9 -16 0 -13 -16 7 -36 16 -17 16 -17 0 -11 -12 4 -21 0 -29 -14 -6 -11
-13 -18 -16 -15 -3 3 -13 -2 -22 -11 -13 -14 -16 -14 -19 -2 -3 17 -42 44 -42
29 0 -5 -7 -10 -15 -10 -9 0 -12 -6 -8 -17 6 -16 4 -16 -15 1 -27 23 -28 36
-4 36 14 0 15 2 2 10 -10 6 -16 6 -18 0 -5 -14 -36 -12 -51 3 -10 9 -15 9 -18
0 -2 -7 -10 -10 -18 -7 -7 3 -16 1 -20 -5 -9 -16 -22 -13 -29 5 -3 8 -2 12 4
9 13 -8 50 3 50 15 0 5 -7 15 -15 24 -8 8 -12 17 -7 19 10 7 43 -18 35 -26 -3
-4 -1 -7 6 -7 7 0 11 7 8 15 -4 8 -2 17 3 20 6 4 10 12 10 18 0 7 -7 4 -14 -5
-18 -24 -23 -23 -41 12 -13 26 -18 28 -41 20 -35 -14 -35 -13 -23 14 7 14 17
22 24 20 7 -3 16 0 20 5 3 6 12 8 18 4 6 -4 2 10 -10 30 -19 31 -19 35 -5 30
13 -4 14 -3 4 5 -8 5 -24 8 -38 6 -31 -3 -55 33 -32 50 17 13 20 45 5 64 -7 8
-13 9 -22 2 -17 -14 -45 -2 -38 16 3 8 1 14 -5 14 -15 0 -22 -26 -9 -39 6 -6
17 -11 24 -11 7 0 13 -7 13 -15 0 -8 -5 -15 -11 -15 -5 0 -8 -4 -5 -9 4 -5 0
-11 -6 -14 -17 -5 8 -37 28 -37 7 0 21 -11 30 -26 9 -14 23 -23 30 -20 7 3 15
-2 18 -10 8 -21 8 -24 -5 -24 -5 0 -7 5 -4 10 9 15 -3 12 -24 -7 -11 -9 -18
-20 -15 -24 2 -4 -9 -2 -25 4 -24 9 -28 14 -19 25 6 7 20 11 31 8 15 -4 17 -2
8 7 -18 18 -61 16 -61 -3 0 -19 -57 -21 -69 -1 -12 18 -34 3 -26 -17 5 -13 2
-12 -15 3 -20 18 -29 8 -10 -11 12 -12 3 -44 -12 -44 -6 0 -8 7 -5 15 4 8 0
27 -8 42 -13 25 -13 28 3 34 9 3 23 4 30 2 6 -3 12 0 12 6 0 6 -6 11 -12 11
-7 0 -2 7 10 16 18 12 26 13 37 4 19 -16 19 -34 0 -26 -22 8 -18 -12 5 -24 13
-7 20 -7 20 -1 0 6 7 8 15 5 14 -6 19 5 16 34 -1 6 4 12 11 12 8 0 5 5 -5 11
-10 6 -29 8 -42 5 -20 -5 -23 -3 -18 11 5 13 2 15 -11 10 -12 -5 -16 -3 -13 5
2 7 11 12 19 10 9 -1 18 5 22 14 5 13 1 14 -25 9 -24 -6 -30 -4 -24 5 6 9 4
11 -4 6 -7 -5 -10 -14 -7 -21 3 -8 0 -16 -7 -18 -8 -3 -5 -10 8 -21 20 -16 20
-17 -5 -15 -14 1 -33 -1 -42 -5 -12 -5 -26 1 -45 18 -36 34 -54 34 -22 0 14
-15 18 -23 8 -19 -9 3 -22 17 -29 30 -7 13 -17 22 -21 19 -5 -3 -6 1 -3 9 3 8
-2 17 -10 20 -10 4 -13 1 -10 -7 3 -7 -1 -16 -10 -19 -19 -8 -30 22 -14 41 11
13 10 14 -9 8 -21 -7 -22 -5 -17 23 6 26 3 31 -20 37 -14 3 -26 10 -26 14 0 4
-10 11 -22 14 l-23 6 28 25 c15 14 24 25 18 25 -6 0 -7 8 -4 18 6 14 4 15 -9
5 -8 -7 -18 -10 -21 -6 -4 3 -7 2 -8 -3 -4 -46 -8 -59 -17 -62 -7 -2 -12 -10
-12 -18 0 -8 -7 -14 -15 -14 -8 0 -15 5 -15 12 0 6 -3 8 -6 5 -4 -4 -2 -13 5
-21 9 -11 8 -15 -4 -20 -9 -3 -13 -2 -10 4 3 6 1 10 -5 10 -7 0 -9 -8 -5 -19
3 -11 1 -22 -5 -26 -15 -9 -12 -52 5 -59 8 -3 12 -12 9 -20 -3 -9 1 -13 12
-13 11 1 20 -6 22 -18 2 -16 1 -17 -7 -5 -6 8 -11 10 -11 4 0 -6 11 -20 25
-30 30 -23 32 -34 5 -34 -11 0 -20 -5 -20 -11 0 -5 4 -8 9 -5 5 3 11 -1 14 -9
4 -8 1 -12 -6 -9 -8 3 -18 -10 -26 -32 -8 -22 -16 -32 -20 -25 -5 7 -12 3 -19
-14 -10 -21 -9 -25 3 -25 20 0 19 -39 -1 -68 -8 -12 -22 -22 -29 -22 -12 0
-12 6 -4 27 6 15 15 31 21 34 15 10 0 29 -17 23 -8 -3 -14 -9 -13 -12 1 -4 -3
-16 -8 -27 -11 -25 -37 -26 -46 -2 -4 9 -14 17 -23 17 -19 0 -19 -5 2 -36 13
-21 14 -30 5 -45 -10 -15 -9 -19 0 -19 10 0 10 -2 1 -8 -8 -5 -9 -13 -3 -22
21 -33 0 -42 -31 -14 -21 19 -54 11 -46 -11 4 -9 1 -12 -9 -8 -7 3 -14 9 -14
15 0 5 -4 6 -10 3 -5 -3 -10 -16 -9 -28 0 -20 1 -21 8 -3 4 11 10 15 12 10 9
-16 4 -39 -8 -37 -6 1 -14 -4 -17 -13 -3 -8 -2 -12 3 -9 5 3 12 1 15 -4 4 -5
2 -13 -4 -16 -6 -4 -8 -16 -4 -28 6 -19 5 -20 -10 -8 -18 15 -22 1 -4 -17 9
-9 8 -12 -5 -12 -9 0 -17 5 -17 10 0 6 -6 10 -12 10 -7 0 0 -12 15 -25 16 -15
22 -25 14 -25 -7 0 -14 -6 -14 -12 -2 -33 -13 -90 -19 -100 -12 -19 -23 24
-13 49 6 18 4 25 -11 33 -18 10 -19 8 -10 -15 13 -34 13 -35 -4 -29 -8 3 -12
12 -10 19 3 7 1 16 -5 20 -6 3 -11 15 -11 25 0 20 -32 44 -44 33 -3 -3 -6 -17
-6 -30 0 -12 -4 -23 -10 -23 -5 0 -10 5 -10 12 0 6 -3 9 -6 6 -3 -4 2 -17 11
-31 9 -15 12 -28 6 -31 -5 -3 -11 0 -14 6 -3 7 -4 3 -4 -9 1 -17 4 -20 19 -12
12 6 18 21 18 44 0 19 5 35 11 35 5 0 8 -4 4 -9 -3 -5 -1 -12 4 -16 6 -3 8
-11 5 -19 -3 -7 7 -18 21 -24 23 -11 26 -16 20 -45 -4 -17 -12 -37 -17 -44
-10 -12 -3 -33 11 -33 4 0 13 16 21 35 8 19 17 35 22 35 13 0 9 -12 -8 -32
-14 -15 -15 -20 -3 -35 12 -15 12 -16 -3 -10 -12 4 -18 2 -18 -8 0 -16 -38
-17 -58 -2 -8 7 -18 4 -31 -7 -13 -12 -21 -14 -26 -6 -4 6 -15 8 -24 5 -15 -4
-18 0 -17 25 1 17 6 28 12 26 6 -2 9 8 6 28 -4 27 -6 28 -13 11 -4 -11 -8 -15
-8 -8 -1 19 11 43 19 38 4 -3 10 2 14 10 7 19 -14 31 -25 14 -8 -12 -11 -12
-19 1 -16 25 -12 30 22 23 21 -4 29 -3 24 5 -4 6 -13 9 -21 5 -8 -3 -15 0 -15
6 0 6 -4 10 -9 9 -5 -2 -17 6 -25 17 -15 19 -15 19 -16 -8 0 -16 9 -42 20 -57
15 -21 18 -34 11 -52 l-9 -23 -12 30 c-8 21 -13 26 -19 16 -7 -11 -11 -9 -21
5 -11 18 -11 18 -7 -1 3 -11 8 -29 11 -40 4 -11 -3 -2 -15 20 -23 42 -51 145
-40 145 6 0 5 27 -3 85 -2 11 -7 29 -12 40 -5 11 -9 187 -8 390 0 296 4 391
17 474 9 58 17 118 17 135 0 31 44 269 82 446 34 161 238 752 294 853 l15 27
-1010 0 -1011 0 0 -2135z m4909 838 c-2 -21 -8 -46 -15 -57 -11 -16 -9 -22 12
-43 13 -13 39 -27 57 -30 27 -4 35 0 55 26 27 36 49 40 61 9 5 -14 10 -17 15
-10 4 7 11 12 16 12 12 0 -10 -52 -26 -62 -6 -4 -10 -33 -8 -72 2 -46 -1 -65
-9 -63 -7 1 -11 -3 -10 -9 1 -7 -7 -20 -17 -29 -11 -10 -20 -24 -20 -32 0 -7
-5 -13 -11 -13 -5 0 -7 -4 -4 -10 3 -5 1 -10 -5 -10 -7 0 -9 7 -6 15 5 15 -12
55 -24 55 -4 0 -5 -13 -4 -30 2 -27 0 -29 -18 -19 -15 8 -17 13 -8 25 10 11 9
15 -2 19 -8 3 -21 5 -28 3 -18 -4 -21 127 -4 161 14 27 8 51 -12 51 -17 0 -18
-17 -1 -23 7 -3 5 -6 -5 -6 -10 -1 -18 -7 -18 -13 0 -7 -7 -3 -15 10 -18 25
-11 90 10 98 7 3 15 23 19 45 8 50 27 51 25 2z"/>
<path d="M5310 4264 c0 -3 5 -15 11 -26 10 -18 9 -20 -6 -14 -11 4 -22 0 -29
-9 -9 -12 -19 -12 -55 -4 -34 8 -46 7 -52 -3 -13 -20 -11 -28 6 -22 12 5 15
-1 14 -27 -1 -31 -2 -32 -8 -9 -6 20 -9 22 -16 10 -5 -8 -10 -30 -11 -48 0
-19 -6 -37 -12 -41 -6 -4 -13 -18 -14 -31 -2 -19 2 -25 15 -24 12 1 17 -5 17
-22 0 -25 -17 -33 -26 -11 -8 21 -44 18 -44 -4 0 -10 -4 -19 -10 -19 -5 0 -10
6 -10 14 0 9 -7 12 -20 9 -12 -3 -20 0 -20 7 0 9 -6 7 -20 -5 -19 -17 -20 -17
-31 8 -12 27 -34 41 -50 31 -15 -9 -10 -27 5 -21 8 3 17 -1 20 -9 9 -23 8 -26
-11 -22 -10 1 -24 -1 -30 -5 -14 -9 -15 -7 -17 35 -2 22 3 28 26 33 15 4 30
11 33 16 4 5 -1 6 -9 3 -8 -3 -23 -1 -33 5 -17 10 -17 10 2 11 14 0 16 3 8 11
-6 6 -9 26 -6 44 7 42 -13 81 -32 65 -12 -10 -12 -15 1 -35 13 -20 13 -23 0
-28 -9 -4 -13 -13 -10 -21 4 -10 -4 -16 -25 -21 -17 -4 -31 -13 -31 -20 0 -19
-20 -29 -32 -17 -11 11 -48 4 -48 -9 0 -5 -5 -9 -10 -9 -6 0 -8 10 -5 23 6 23
-18 57 -28 40 -19 -34 -16 -65 7 -88 14 -14 32 -25 40 -25 9 0 12 -7 9 -20 -3
-11 -8 -20 -12 -21 -50 -6 -84 -33 -113 -90 -20 -41 -26 -46 -44 -38 -12 4
-25 5 -28 2 -6 -6 -48 11 -74 31 -11 8 -11 11 0 18 10 8 10 11 1 15 -7 2 -13
11 -13 19 0 9 -11 14 -32 14 -23 0 -29 -3 -19 -9 7 -5 10 -14 7 -20 -4 -6 -3
-11 1 -11 8 0 25 -27 38 -60 4 -9 16 -20 28 -25 17 -8 22 -19 22 -45 0 -27 4
-35 18 -34 11 1 19 -7 23 -25 3 -14 10 -36 16 -48 11 -22 3 -47 -13 -38 -5 4
-8 -5 -7 -19 1 -15 10 -29 20 -32 10 -3 18 -12 18 -20 0 -18 15 -18 33 1 13
12 16 12 21 -8 3 -12 0 -25 -7 -29 -9 -6 -9 -10 0 -19 10 -10 14 -9 19 4 3 9
10 14 15 11 5 -3 7 -8 5 -12 -6 -10 53 -7 62 3 4 5 1 5 -5 1 -9 -5 -13 0 -13
13 0 11 -4 23 -10 26 -5 3 -10 17 -10 30 0 12 -6 25 -14 28 -16 6 -28 45 -16
52 5 3 16 -2 24 -11 15 -14 16 -13 16 10 0 32 29 36 37 5 4 -13 12 -19 27 -17
12 2 33 -9 50 -24 19 -18 32 -24 37 -17 5 8 9 8 14 0 4 -7 1 -19 -6 -27 -10
-13 -14 -12 -32 3 -19 18 -20 17 -8 -4 14 -28 34 -40 39 -25 2 7 8 12 14 12 5
0 6 -9 3 -20 -5 -14 -2 -20 9 -20 9 0 16 5 16 12 0 6 6 4 13 -6 13 -18 14 -18
32 0 10 11 27 20 37 20 16 1 18 -3 12 -30 -3 -17 -10 -35 -14 -41 -12 -15 -16
-48 -7 -62 5 -7 22 -13 38 -13 36 0 47 -21 31 -63 -7 -17 -8 -33 -3 -36 4 -4
11 -13 14 -21 4 -11 6 -9 6 6 1 11 28 50 61 85 33 35 60 68 60 72 0 5 9 20 20
34 11 14 20 34 20 44 0 21 35 44 44 30 4 -5 0 -16 -8 -23 -7 -8 -17 -25 -21
-38 -8 -25 -8 -25 14 -6 11 11 21 25 21 32 0 8 11 3 26 -11 22 -21 30 -23 43
-13 14 11 14 10 -1 -13 -13 -21 -14 -26 -2 -26 8 0 14 4 14 9 0 19 34 45 54
42 11 -2 15 -2 9 2 -7 3 -13 10 -13 15 0 11 49 33 68 30 6 -1 12 5 12 14 0 8
6 15 14 15 9 0 12 7 9 20 -4 15 0 20 15 20 11 0 25 -7 32 -15 7 -8 16 -13 20
-10 5 3 12 0 16 -6 3 -6 0 -15 -7 -20 -10 -6 -11 -11 -3 -19 9 -9 16 -6 28 11
14 21 14 24 1 32 -18 10 -20 37 -2 37 6 0 25 11 41 25 16 14 25 25 20 25 -6 0
-15 -5 -20 -10 -8 -8 -15 -6 -24 5 -9 11 -9 15 -1 15 7 0 9 5 6 10 -8 14 8 13
22 -1 8 -8 14 -6 21 8 10 17 7 19 -26 19 -26 -1 -44 -8 -59 -26 -13 -14 -23
-20 -23 -15 0 6 -4 3 -10 -5 -7 -11 -11 -9 -19 11 -9 26 -41 47 -41 28 0 -6
-4 -7 -10 -4 -5 3 -10 15 -10 26 0 12 -7 19 -19 19 -20 0 -71 43 -71 59 0 6
-7 8 -15 5 -8 -4 -15 -2 -15 3 0 16 36 44 45 36 4 -5 6 -1 3 7 -5 15 -21 17
-49 6 -11 -5 -18 -1 -22 13 -3 12 -1 21 4 21 5 0 9 7 9 15 0 21 -29 19 -68 -5
-40 -24 -56 -26 -48 -4 4 10 -1 25 -11 36 -14 16 -15 23 -5 38 7 11 12 31 12
44 0 13 18 45 40 72 37 44 38 49 21 56 -30 11 -16 44 17 42 37 -2 39 -3 23
-13 -11 -7 -10 -11 6 -19 17 -9 22 -7 33 13 7 14 18 25 23 25 5 0 4 7 -3 15
-11 13 -8 15 13 15 14 0 32 7 41 15 8 8 22 15 31 15 9 0 15 6 13 12 -5 15 -71
15 -76 0 -2 -8 -11 -6 -27 4 -18 12 -28 13 -44 4 -14 -7 -21 -7 -21 0 0 5 -4
10 -10 10 -5 0 -10 -3 -10 -6z m-517 -396 c11 -13 26 -38 34 -56 9 -22 19 -32
28 -28 9 3 12 0 8 -10 -6 -17 -25 -18 -42 -1 -11 10 -13 6 -8 -20 4 -19 2 -33
-3 -33 -22 0 -25 -2 -32 -21 -8 -21 0 -50 16 -61 7 -5 7 -8 1 -8 -18 0 -33 14
-37 35 -2 13 -10 19 -22 17 -13 -2 -17 1 -13 11 4 11 0 13 -15 9 -14 -3 -19
-1 -14 6 4 7 3 12 -3 12 -6 0 -8 7 -5 15 4 8 2 21 -4 28 -15 18 -26 61 -14 53
5 -3 12 5 16 17 6 24 50 52 67 42 5 -4 9 -1 9 4 0 17 11 13 33 -11z"/>
<path d="M5595 4160 c5 -8 1 -11 -11 -9 -45 7 -99 -31 -88 -61 4 -12 2 -12 -7
-3 -8 8 -19 9 -35 3 -22 -9 -44 4 -30 17 8 9 -14 33 -31 33 -11 0 -11 -4 -3
-20 8 -15 8 -20 -1 -18 -6 2 -14 -3 -16 -9 -3 -7 0 -13 6 -13 7 0 28 -7 49
-17 20 -9 40 -15 44 -15 4 1 19 -9 34 -23 26 -24 61 -35 50 -16 -4 5 3 7 13 4
11 -3 17 -11 14 -19 -4 -10 3 -12 31 -7 32 5 37 3 46 -21 5 -15 8 -42 5 -61
-5 -42 15 -64 36 -38 11 13 11 17 2 20 -7 3 -13 8 -13 12 0 11 107 34 120 26
6 -4 17 -2 25 5 21 17 30 -7 9 -27 -11 -11 -33 -17 -65 -17 -27 0 -44 -3 -39
-6 6 -4 2 -14 -10 -25 -11 -10 -20 -15 -20 -11 0 4 -15 -4 -33 -18 -19 -15
-45 -26 -58 -26 -21 -1 -22 -2 -7 -11 11 -6 15 -16 11 -26 -4 -11 -3 -14 6 -9
6 4 17 3 24 -2 20 -15 67 -24 67 -12 0 21 20 -1 21 -23 0 -12 3 -16 6 -9 2 6
9 9 15 6 5 -3 8 2 6 12 -2 11 3 19 12 20 8 0 22 2 31 2 11 2 18 15 22 43 3 23
11 45 18 50 8 4 10 11 6 15 -9 9 48 44 72 44 22 0 35 28 21 45 -5 6 -20 11
-32 10 -13 -1 -31 6 -41 16 -17 18 -18 18 -54 -3 -20 -12 -34 -17 -30 -11 4 5
-2 18 -13 28 -14 13 -28 16 -54 11 -31 -6 -35 -4 -38 16 -2 17 -9 22 -26 20
-13 -1 -30 -9 -38 -17 -19 -19 -28 -19 -21 -1 3 8 -3 26 -14 40 -20 25 -20 25
1 46 15 15 20 17 20 5 0 -8 6 -15 14 -15 8 0 13 8 11 18 -2 9 -4 22 -4 29 -1
7 -11 17 -22 24 -16 8 -20 8 -14 -1z"/>
<path d="M3852 3879 c-10 -16 -16 -18 -27 -9 -10 8 -19 8 -34 0 -20 -10 -20
-11 -1 -30 11 -11 25 -20 30 -20 6 0 10 -7 10 -15 0 -22 -18 -18 -47 12 -16
15 -29 21 -31 15 -2 -7 -9 -12 -15 -12 -7 0 -20 -17 -30 -38 l-19 -37 29 27
c23 22 32 25 41 16 16 -16 15 -28 -2 -28 -8 0 -18 -4 -21 -10 -3 -6 1 -7 9 -4
11 4 16 0 16 -10 0 -9 -5 -16 -10 -16 -6 0 -8 -11 -4 -25 8 -33 -23 -47 -42
-20 -12 16 -14 16 -14 3 0 -9 7 -24 16 -32 8 -9 11 -16 5 -16 -5 0 -17 7 -25
16 -14 14 -15 12 -10 -14 4 -20 0 -34 -13 -47 -16 -17 -18 -17 -21 -2 -2 9 -9
14 -18 10 -8 -3 -14 -1 -14 4 0 18 -27 10 -40 -11 -12 -19 -12 -20 3 -8 18 15
39 8 31 -11 -6 -16 42 -15 58 1 7 7 20 12 29 12 10 0 20 4 24 10 4 6 15 6 31
0 28 -11 44 -6 44 13 0 7 9 20 20 30 12 10 20 29 20 47 0 26 4 30 26 30 25 0
84 50 84 71 0 5 7 9 16 9 11 0 15 6 11 20 -3 13 0 20 9 20 16 0 19 16 4 25
-16 10 -43 -16 -30 -29 14 -14 12 -26 -5 -26 -8 0 -15 -5 -15 -11 0 -5 -5 -7
-12 -3 -9 6 -9 9 0 12 18 6 15 52 -4 52 -8 0 -23 7 -32 16 -15 15 -14 16 5 10
12 -4 24 -2 28 4 3 5 0 10 -9 10 -8 0 -20 2 -28 5 -7 3 -19 -4 -26 -16z"/>
<path d="M4210 3673 c-14 -9 -27 -20 -30 -24 -7 -8 -52 -23 -65 -21 -6 1 -16
-11 -23 -28 -7 -16 -22 -32 -33 -35 -11 -4 -17 -11 -14 -16 4 -5 -5 -9 -19 -9
-16 0 -26 -6 -26 -15 0 -20 46 -30 65 -15 12 10 15 10 15 -3 0 -8 7 -18 16
-21 23 -9 27 -8 20 9 -3 8 -1 15 3 15 5 0 18 3 28 6 15 6 16 4 6 -7 -15 -16
-17 -43 -3 -34 6 3 10 2 10 -4 0 -5 -6 -12 -12 -14 -7 -3 -1 -6 13 -6 15 -1
37 -10 50 -20 l24 -19 -27 -7 c-34 -9 -35 -15 -3 -45 14 -13 25 -20 25 -15 0
4 9 0 19 -9 23 -21 37 -6 21 24 -6 11 -8 25 -5 30 3 6 -1 10 -9 10 -9 0 -16 7
-16 15 0 8 5 15 10 15 6 0 10 -4 10 -10 0 -11 32 -1 42 14 10 15 58 17 59 3 1
-7 2 -24 3 -39 2 -31 16 -50 23 -30 3 6 11 12 19 12 9 0 12 5 8 12 -5 8 -2 9
9 5 11 -4 17 -1 17 7 0 8 -7 17 -16 20 -8 3 -12 10 -9 16 3 5 1 10 -4 10 -6 0
-11 10 -11 22 0 19 -1 20 -18 5 -11 -10 -33 -15 -65 -14 -26 1 -47 3 -47 5 0
1 11 7 25 12 14 5 26 17 27 27 0 10 2 30 3 45 1 15 7 34 14 42 7 8 8 17 3 20
-6 3 -13 -1 -16 -10 -5 -14 -8 -14 -21 0 -9 8 -15 19 -14 23 1 4 1 20 0 36 -1
32 -31 38 -31 6 0 -11 -4 -18 -10 -14 -5 3 -7 12 -3 20 7 20 -7 19 -37 -2z"/>
</g>
</svg>
