<?xml version="1.0" standalone="no"?>
<!DOCTYPE svg PUBLIC "-//W3C//DTD SVG 20010904//EN"
 "http://www.w3.org/TR/2001/REC-SVG-20010904/DTD/svg10.dtd">
<svg version="1.0" xmlns="http://www.w3.org/2000/svg"
 width="1332.000000pt" height="850.000000pt" viewBox="0 0 1332.000000 850.000000"
 preserveAspectRatio="xMidYMid meet">
<metadata>
Created by potrace 1.16, written by Peter Selinger 2001-2019
</metadata>
<g transform="translate(0.000000,850.000000) scale(0.100000,-0.100000)"
fill="#000000" stroke="none">
<path d="M2323 8480 c3 -11 1 -18 -4 -14 -5 3 -9 0 -9 -6 0 -8 10 -9 30 -5 23
5 30 3 31 -9 3 -34 18 -66 32 -66 7 0 7 4 -1 12 -15 15 -15 28 -1 28 5 0 7 -4
4 -10 -3 -5 -1 -10 6 -10 6 0 10 -10 7 -23 -4 -20 12 -48 27 -47 17 1 18 -1 5
-10 -11 -7 -11 -10 -2 -10 7 0 11 -4 7 -9 -3 -5 -1 -12 5 -16 9 -6 14 8 11 28
-1 5 3 6 9 2 6 -4 10 -12 9 -18 -4 -35 2 -43 31 -41 16 1 28 -2 25 -7 -3 -4
-13 -5 -23 -2 -14 5 -15 3 -4 -8 6 -7 12 -19 12 -27 0 -7 -6 -10 -12 -7 -7 4
-5 0 4 -8 10 -8 14 -18 10 -22 -4 -5 -2 -5 4 -2 7 4 15 0 18 -9 4 -9 2 -13 -5
-8 -7 4 -10 1 -7 -7 3 -8 12 -13 22 -11 11 2 16 -4 16 -19 0 -21 -1 -22 -20
-4 -11 10 -23 15 -27 11 -4 -4 -1 -11 7 -16 8 -5 11 -12 7 -16 -10 -10 -39 17
-33 31 3 8 -2 11 -13 8 -10 -2 -18 -10 -18 -18 0 -7 6 -11 14 -8 11 4 11 0 3
-23 -9 -27 -9 -28 5 -10 8 11 15 15 15 8 0 -6 7 -9 15 -6 11 5 15 -1 15 -17 0
-20 -2 -21 -11 -9 -9 13 -10 13 -6 0 2 -8 8 -15 13 -16 19 -2 49 -18 61 -33
21 -28 14 -31 -12 -6 -13 14 -30 25 -37 25 -7 0 -2 -7 10 -16 12 -8 22 -23 22
-32 0 -15 -2 -15 -10 -2 -7 11 -10 11 -10 2 0 -7 -4 -11 -9 -8 -15 10 -7 -48
9 -62 13 -12 12 -13 -7 -9 -15 3 -20 1 -16 -9 3 -8 9 -11 15 -8 5 3 4 -3 -3
-15 -10 -14 -15 -17 -21 -8 -5 9 -11 6 -22 -8 -13 -17 -15 -17 -16 -4 0 19 26
32 43 22 7 -3 8 -2 4 3 -5 5 -20 9 -33 9 -19 1 -24 -4 -24 -22 0 -13 -4 -24
-10 -24 -5 -1 -15 -2 -21 -3 -6 0 -16 -9 -23 -18 -7 -10 -21 -18 -30 -18 -10
0 -14 -5 -10 -11 4 -7 -1 -7 -16 1 -19 10 -22 10 -17 -2 4 -11 -1 -14 -19 -10
-14 2 -24 0 -24 -7 0 -6 14 -14 30 -18 24 -4 28 -8 19 -19 -9 -11 -8 -14 1
-14 8 0 11 -3 7 -6 -6 -6 -69 35 -75 49 -2 4 -10 7 -18 7 -9 0 -12 -5 -8 -11
5 -8 -1 -10 -19 -7 -18 4 -24 1 -20 -9 3 -7 20 -13 39 -13 19 0 34 -4 34 -9 0
-13 -24 -30 -50 -34 -12 -2 -28 -11 -35 -20 -7 -9 -22 -17 -34 -17 -12 0 -21
-6 -21 -15 0 -21 -38 -38 -68 -29 -31 8 -62 6 -77 -6 -10 -8 -44 -14 -55 -10
-3 1 -20 3 -38 6 -18 2 -43 9 -55 16 -31 17 -50 19 -59 5 -5 -8 -8 -7 -8 5 0
18 -57 35 -83 25 -7 -3 -21 1 -31 9 -11 7 -23 11 -27 8 -5 -3 -9 0 -9 5 0 6
-4 11 -10 11 -12 0 -9 -22 5 -32 6 -5 6 -8 -2 -8 -6 0 -21 12 -32 26 -17 21
-21 23 -21 9 0 -14 -3 -15 -15 -5 -8 7 -22 9 -31 6 -12 -5 -15 -2 -10 9 4 11
-3 17 -24 22 -18 3 -27 10 -23 17 4 6 -1 5 -10 -2 -9 -8 -25 -11 -38 -7 -15 5
-18 10 -9 15 8 5 5 9 -9 13 -12 3 -21 0 -21 -6 0 -8 -3 -8 -8 1 -5 7 -16 10
-25 6 -10 -3 -23 -1 -31 5 -7 6 -20 9 -28 6 -10 -4 -17 2 -21 16 -4 13 -9 20
-13 16 -4 -4 -13 -2 -20 4 -15 12 -38 3 -29 -12 7 -10 -24 -1 -41 13 -7 5 -16
2 -24 -7 -15 -18 -31 -20 -24 -2 7 20 -20 49 -50 52 -15 2 -33 8 -39 14 -9 7
-13 5 -13 -8 0 -12 5 -17 15 -13 9 3 12 1 7 -6 -4 -7 -1 -12 8 -12 8 0 18 5
21 10 4 6 12 4 22 -5 8 -9 12 -19 8 -23 -4 -4 -10 -1 -12 6 -3 6 -9 12 -14 12
-6 0 -7 -4 -4 -10 9 -14 -21 -12 -46 3 -17 10 -22 9 -34 -6 -8 -12 -15 -14
-20 -8 -3 6 -1 11 6 11 7 0 9 3 5 7 -4 5 -14 -1 -22 -11 -12 -17 -14 -18 -14
-3 0 11 -8 17 -21 17 -16 0 -20 5 -16 20 3 12 1 18 -5 14 -6 -4 -14 -1 -18 5
-9 16 -63 -7 -56 -24 2 -7 -9 -11 -30 -12 -19 -1 -34 3 -34 7 0 13 -63 6 -68
-8 -2 -6 -13 -12 -25 -11 -21 0 -21 1 -2 8 17 7 15 9 -13 13 -17 2 -32 1 -32
-3 0 -4 -7 -10 -16 -13 -9 -4 -13 -2 -8 5 4 7 1 10 -7 7 -8 -3 -13 -14 -11
-24 2 -17 0 -16 -16 4 -16 21 -20 22 -45 9 -15 -8 -23 -18 -19 -22 4 -5 1 -5
-5 -1 -7 4 -13 14 -13 22 0 20 -20 17 -21 -3 0 -10 -3 -13 -5 -6 -3 7 -12 9
-21 6 -11 -4 -14 -2 -9 5 5 9 0 9 -19 2 -15 -6 -31 -8 -36 -4 -5 3 -9 1 -9 -5
0 -5 6 -12 13 -15 6 -3 1 -3 -13 0 -14 4 -28 12 -32 18 -5 8 -8 7 -8 -2 0 -8
-7 -11 -18 -8 -10 4 -27 -1 -38 -9 -16 -13 -16 -14 -1 -9 12 5 16 2 12 -9 -8
-18 -36 -17 -52 3 -10 13 -13 12 -20 -5 -8 -20 -43 -31 -43 -14 0 5 -4 9 -10
9 -5 0 -10 -7 -10 -15 0 -8 5 -15 10 -15 6 0 10 -5 10 -11 0 -6 -14 -1 -31 11
-16 12 -33 20 -36 16 -3 -3 2 -8 11 -12 26 -10 18 -24 -14 -24 -30 0 -41 -14
-17 -23 9 -4 9 -6 0 -6 -7 -1 -18 5 -25 13 -9 10 -20 11 -37 4 -16 -6 -27 -5
-31 2 -13 20 -10 -55 3 -79 9 -19 9 -25 0 -28 -18 -6 -16 -43 4 -65 15 -17 15
-18 0 -12 -15 5 -16 -34 -17 -515 l0 -521 47 34 c55 39 180 98 257 121 60 18
248 59 396 85 58 11 134 26 170 34 90 21 207 32 257 25 24 -3 47 -1 53 5 7 7
10 6 10 -2 0 -7 14 -12 33 -12 62 0 108 -20 153 -68 42 -44 84 -118 84 -148 0
-7 4 -16 10 -19 6 -3 7 1 4 9 -4 11 0 16 10 16 9 0 16 5 16 11 0 5 5 7 11 3 7
-4 7 1 -1 16 -8 15 -8 20 -1 16 7 -5 11 3 11 21 0 16 6 35 13 42 9 11 9 13 0
7 -8 -4 -13 -1 -13 8 0 9 5 16 11 16 7 0 10 13 7 34 -2 19 0 32 4 30 4 -3 8
-1 8 5 0 7 9 6 27 -2 21 -9 27 -9 31 1 2 7 8 10 13 6 5 -3 9 0 9 5 0 15 -27
14 -33 -1 -2 -8 -8 -9 -13 -4 -5 5 -4 11 4 13 10 4 10 8 1 19 -9 11 -8 14 5
14 10 0 14 -4 11 -10 -3 -5 3 -10 14 -10 12 0 21 7 21 15 0 8 4 15 8 15 10 0
35 -61 33 -79 -2 -8 2 -10 10 -5 9 5 11 1 7 -14 -3 -12 -2 -37 2 -57 4 -19 5
-37 0 -40 -11 -7 20 -119 36 -128 8 -5 12 -13 8 -19 -4 -6 1 -8 15 -3 16 5 21
2 21 -13 0 -27 23 -44 130 -95 354 -170 680 -493 852 -845 41 -84 55 -103 77
-108 14 -3 39 -10 55 -15 39 -12 166 -12 166 1 0 6 15 10 34 10 18 0 47 5 63
11 17 5 73 11 124 12 72 2 114 9 179 31 99 33 115 34 690 24 338 -5 504 1 615
22 111 21 401 8 460 -21 14 -7 32 -5 62 5 36 13 41 13 36 0 -3 -8 -10 -14 -17
-14 -12 -1 34 -29 48 -30 5 0 1 9 -9 20 -17 19 -17 20 -1 14 9 -4 27 -2 39 4
12 6 29 13 37 15 8 3 -3 6 -25 7 l-40 3 45 8 c25 4 89 8 143 8 l99 1 62 63
c34 34 71 76 81 94 10 18 22 30 27 27 4 -3 8 -1 8 5 0 5 6 16 13 23 7 7 22 27
32 45 32 51 166 232 178 240 7 4 8 0 4 -11 -4 -11 -3 -15 4 -11 6 4 8 14 5 22
-7 17 51 96 64 88 5 -3 12 0 16 6 4 8 3 9 -4 5 -21 -13 -12 6 20 43 18 20 36
35 41 33 5 -1 6 2 2 8 -3 5 1 13 9 16 8 3 24 22 36 41 13 22 26 33 35 29 8 -3
17 0 21 6 4 7 3 8 -4 4 -28 -17 -8 14 38 59 28 27 50 44 50 37 0 -7 4 -11 10
-7 5 3 7 12 3 20 -3 9 1 15 10 15 8 0 21 8 28 18 13 16 13 16 -6 2 -20 -14
-20 -14 -1 7 10 13 23 20 27 17 5 -3 9 1 9 8 0 8 15 28 33 46 35 34 59 44 36
15 -8 -10 7 0 34 22 26 22 47 45 47 53 0 7 4 11 9 8 5 -3 15 2 22 11 12 14 12
16 -1 8 -13 -8 -13 -7 -1 8 15 18 26 23 16 7 -16 -26 16 -6 49 30 20 22 39 40
42 40 3 0 41 26 83 58 42 32 95 71 118 86 24 16 40 33 36 39 -3 5 -2 7 4 4 5
-3 43 19 84 49 77 58 237 156 281 173 14 5 55 28 92 50 106 66 229 124 406
194 328 129 356 138 605 201 151 38 223 53 305 66 41 6 111 18 155 25 285 50
891 45 1185 -9 l75 -14 -95 0 c-52 -1 -108 -5 -125 -10 -28 -9 44 -13 243 -16
l42 0 -34 -18 c-22 -11 -53 -17 -92 -15 -48 1 -65 -3 -91 -22 -17 -13 -36 -21
-41 -17 -5 3 -12 -1 -16 -9 -3 -8 -12 -15 -20 -15 -18 0 -29 -27 -13 -34 8 -3
8 -5 -1 -5 -7 -1 -21 6 -29 15 -10 9 -18 12 -22 6 -13 -22 -62 -25 -99 -6 -20
11 -40 24 -44 29 -5 6 -8 5 -8 -2 0 -21 -20 -15 -30 10 -6 15 -9 17 -9 6 -1
-9 -9 -19 -20 -22 -15 -3 -17 0 -13 17 3 11 10 24 15 27 21 14 -7 29 -53 28
-55 -2 -59 -19 -4 -19 19 0 34 -4 34 -9 0 -4 -36 -9 -81 -9 -59 -1 -79 2 -76
11 2 7 17 11 35 9 18 -2 32 1 32 6 0 15 -42 22 -57 10 -16 -13 -73 -19 -73 -8
0 8 -49 6 -139 -5 -19 -2 -39 -9 -45 -15 -8 -8 6 -9 52 -5 58 5 62 5 62 -15 0
-12 -4 -18 -10 -15 -5 3 -15 3 -21 -1 -8 -4 -7 -9 2 -15 11 -7 10 -9 -3 -9
-10 0 -18 5 -18 11 0 7 -10 9 -25 7 -14 -3 -25 -1 -25 5 0 5 -22 7 -55 4 -43
-4 -55 -2 -55 9 0 18 -40 18 -66 0 -19 -14 -76 -9 -138 10 -11 4 -16 2 -12 -4
3 -6 20 -13 36 -17 53 -12 34 -28 -22 -19 -29 4 -64 7 -78 7 -14 -1 -30 3 -37
9 -6 5 -20 8 -30 7 -10 -1 -26 2 -37 6 -11 5 -21 3 -25 -4 -4 -6 -25 -14 -47
-17 -29 -4 -35 -3 -24 5 12 8 8 11 -20 12 -25 0 -30 2 -17 8 10 4 18 11 18 16
0 15 34 24 50 14 8 -5 27 -9 42 -9 34 0 168 38 182 52 12 13 -36 3 -123 -23
-46 -13 -69 -16 -82 -9 -30 16 -55 12 -84 -15 -15 -14 -30 -25 -34 -25 -4 0 2
7 12 15 18 13 18 15 3 15 -10 0 -20 -7 -24 -16 -4 -11 -13 -14 -29 -10 -35 9
-29 -1 14 -23 34 -19 35 -20 12 -22 -14 -1 -33 0 -44 1 -10 1 -15 -3 -12 -9 4
-5 -2 -14 -11 -20 -25 -14 -7 -14 20 0 12 7 51 13 87 15 36 1 70 3 75 4 28 6
76 -1 70 -10 -3 -5 2 -10 12 -10 11 0 24 -5 29 -10 7 -7 41 -7 104 -1 52 6 96
8 99 6 2 -3 -1 -5 -7 -5 -7 0 -12 -4 -12 -10 0 -5 10 -9 22 -7 14 1 26 -6 33
-20 7 -13 14 -20 18 -17 3 3 13 2 22 -4 13 -7 5 -11 -36 -16 -30 -4 -65 -10
-78 -13 -17 -4 -22 -2 -17 6 4 6 16 11 27 11 10 0 19 4 19 10 0 5 -6 7 -14 4
-8 -3 -17 0 -22 7 -4 8 -3 10 4 5 8 -5 10 -2 6 9 -4 8 -14 14 -23 11 -9 -2
-32 -7 -52 -10 -20 -4 -47 -15 -59 -26 l-23 -20 21 0 c12 0 22 4 22 8 0 4 9 8
20 9 11 1 20 0 20 -3 0 -7 -63 -29 -74 -26 -4 2 -14 -3 -22 -9 -10 -8 -14 -8
-14 0 0 6 5 11 12 11 6 0 9 3 6 6 -4 3 -16 0 -28 -6 -15 -8 -20 -18 -17 -32 5
-17 2 -19 -19 -14 -17 5 -24 2 -24 -9 0 -8 8 -15 18 -16 14 0 14 -2 -3 -8 -11
-5 -26 -6 -32 -4 -7 3 -13 -1 -13 -8 -1 -9 -4 -8 -11 4 -5 9 -7 23 -4 30 4 6
1 5 -7 -3 -7 -9 -34 -16 -63 -18 -41 -3 -52 0 -67 20 -10 13 -18 18 -18 12 0
-6 11 -23 25 -37 l26 -25 -36 0 c-30 0 -34 2 -24 14 16 19 6 18 -43 -6 -22
-11 -44 -17 -48 -15 -4 2 -16 -5 -26 -16 -16 -18 -16 -19 -1 -13 9 3 17 10 17
16 0 5 7 2 16 -6 18 -19 28 -21 18 -4 -5 8 -2 9 10 5 10 -4 24 -7 32 -7 9 0
12 -4 9 -10 -8 -13 18 -13 31 0 8 8 15 6 24 -5 11 -13 8 -15 -19 -15 -29 0
-30 -2 -19 -20 7 -11 21 -23 30 -26 10 -3 18 -11 18 -18 0 -19 -21 -35 -37
-29 -11 4 -12 8 -3 13 18 11 1 32 -20 25 -10 -3 -25 1 -34 10 -14 14 -18 15
-37 2 -24 -18 -10 -32 23 -21 17 5 20 3 15 -10 -10 -26 2 -44 26 -39 22 4 22
4 2 -12 -20 -17 -20 -17 5 -10 14 4 35 17 48 28 12 11 22 15 22 9 0 -7 7 -12
15 -12 24 0 18 -16 -21 -49 -22 -20 -34 -38 -31 -49 4 -14 6 -13 12 6 7 22 35
32 35 12 0 -5 4 -10 10 -10 5 0 8 14 6 31 -3 23 2 34 21 46 13 9 26 13 30 9 3
-3 1 -6 -6 -6 -19 0 -33 -48 -20 -72 11 -21 12 -21 25 -3 8 10 17 16 20 12 4
-4 14 -2 21 5 11 9 17 9 24 -3 5 -8 9 -9 9 -3 0 7 20 18 45 26 25 9 45 12 45
8 0 -4 -7 -10 -15 -14 -8 -3 -15 -11 -15 -17 0 -8 4 -8 15 1 8 6 19 9 24 5 7
-3 8 0 5 10 -5 13 -2 14 20 5 17 -6 35 -6 53 1 25 9 72 7 91 -5 5 -3 39 -6 75
-7 37 -1 64 -5 62 -9 -3 -4 6 -11 20 -14 16 -4 25 -13 25 -25 0 -14 5 -18 20
-14 12 3 20 0 20 -7 0 -7 8 -19 18 -27 15 -13 15 -13 -8 -7 -27 7 -27 7 -54 5
-15 -1 -16 -4 -6 -16 10 -12 10 -15 -1 -17 -8 0 -18 -2 -24 -2 -20 -3 -16 -21
6 -26 21 -5 21 -6 -4 -19 -16 -9 -23 -19 -20 -29 4 -10 2 -13 -5 -8 -7 4 -12
2 -12 -3 0 -16 16 -13 34 4 14 15 46 11 46 -6 0 -5 7 -9 16 -9 14 0 14 3 4 15
-13 16 -3 20 18 7 7 -5 10 -16 6 -25 -4 -12 2 -18 23 -23 27 -7 43 -20 43 -37
0 -5 -4 -5 -10 -2 -6 4 -10 -7 -10 -26 0 -28 -2 -30 -12 -17 -17 21 -58 30
-58 13 0 -7 -7 -16 -16 -19 -8 -3 -12 -10 -9 -16 3 -5 -1 -10 -9 -10 -9 0 -16
-5 -16 -11 0 -6 7 -8 16 -5 14 5 15 4 4 -9 -11 -13 -10 -14 5 -9 14 6 16 4 11
-7 -4 -8 0 -5 8 5 9 11 16 31 17 45 0 26 0 26 9 3 10 -23 4 -52 -11 -52 -5 0
-9 -6 -9 -14 0 -15 -40 -49 -48 -41 -3 2 1 12 8 20 12 14 10 15 -13 10 -17 -5
-27 -3 -27 4 0 6 -4 11 -10 11 -5 0 -10 -7 -10 -14 0 -15 -59 -76 -73 -76 -5
0 -1 7 8 16 19 20 12 32 -10 14 -9 -8 -27 -10 -50 -6 -29 6 -35 11 -32 29 2
12 2 16 0 9 -3 -7 -9 -10 -14 -7 -14 9 -11 41 5 55 8 6 12 18 9 25 -4 11 3 13
31 10 20 -3 38 0 42 7 5 7 2 9 -8 6 -8 -4 -21 -2 -28 2 -11 7 -11 13 2 32 l16
24 -44 -10 c-26 -6 -38 -13 -31 -18 9 -6 9 -8 0 -8 -23 0 -22 18 2 44 33 36
32 40 -11 33 -25 -4 -34 -2 -31 6 2 7 16 11 30 9 15 -2 27 1 27 7 0 6 5 11 10
11 16 0 50 39 40 45 -9 6 -98 0 -104 -6 -2 -2 2 -10 10 -17 8 -7 14 -9 14 -5
0 4 11 9 25 9 20 2 22 0 11 -12 -17 -16 -76 -14 -76 4 0 7 -12 12 -27 12 -21
0 -24 -3 -13 -10 8 -5 11 -12 7 -16 -4 -4 -12 -3 -18 3 -9 9 -24 5 -60 -15
-59 -31 -59 -40 0 -11 45 21 62 21 36 -1 -8 -7 -15 -18 -15 -25 0 -7 -7 -15
-15 -19 -8 -3 -15 -12 -15 -20 0 -7 -7 -16 -15 -20 -12 -4 -13 -2 -6 13 10 18
6 31 -10 31 -5 0 -11 -16 -15 -36 -4 -25 -14 -38 -30 -44 -14 -6 -24 -18 -24
-29 0 -10 -9 -21 -20 -24 -27 -7 -36 10 -9 18 17 6 19 9 8 16 -11 7 -9 10 9
15 12 4 22 11 22 16 0 6 -8 7 -17 3 -10 -4 -24 -10 -32 -13 -11 -4 -13 -1 -8
12 6 15 3 17 -13 13 -11 -3 -18 -1 -14 4 3 5 -11 9 -30 9 -20 0 -36 5 -36 10
0 6 5 10 11 10 6 0 23 10 37 22 15 11 20 19 11 15 -9 -3 -27 2 -40 11 -28 19
-69 25 -69 9 0 -8 -3 -8 -8 -2 -4 6 -23 11 -42 10 -28 0 -34 4 -32 18 4 21
-14 23 -22 2 -9 -24 -28 -18 -21 8 4 15 4 18 -3 8 -12 -17 -33 -6 -26 13 3 8
1 17 -5 21 -7 4 -11 -3 -11 -16 0 -12 -3 -19 -7 -16 -13 14 -31 -27 -22 -52 8
-21 8 -22 -6 -11 -8 7 -12 16 -9 21 3 5 -1 9 -10 9 -8 0 -17 -6 -19 -12 -4 -8
-6 -9 -6 -2 -1 6 6 17 14 24 26 22 16 32 -12 12 -50 -34 -59 -34 -19 1 29 26
38 40 33 56 -3 11 -2 19 1 17 4 -2 16 0 27 5 19 7 19 8 -1 8 -15 1 -23 9 -27
26 -4 22 2 29 34 46 22 11 39 24 39 29 0 6 -11 3 -25 -6 -14 -9 -32 -14 -40
-10 -9 3 -13 2 -10 -4 3 -5 -4 -14 -16 -20 -15 -8 -18 -15 -11 -22 12 -12 0
-28 -38 -48 -25 -12 -25 -12 3 17 39 42 21 50 -20 8 -19 -19 -39 -35 -45 -35
-7 0 1 14 17 30 16 17 24 30 18 30 -6 0 -9 9 -6 20 7 27 -1 25 -21 -5 -15 -23
-15 -24 1 -19 15 5 15 3 -1 -10 -11 -9 -26 -16 -34 -16 -20 0 -64 -49 -56 -62
4 -7 2 -8 -4 -4 -7 4 -12 13 -12 21 0 9 -8 12 -25 9 -14 -2 -25 0 -25 6 0 5 5
10 10 10 6 0 10 5 10 12 0 6 -9 3 -20 -7 -16 -14 -17 -20 -8 -27 9 -5 5 -8
-11 -8 -18 0 -22 4 -17 17 4 9 2 19 -4 23 -7 5 -8 15 -1 33 6 15 7 27 2 27
-11 0 -24 -48 -16 -61 10 -16 -5 -49 -23 -49 -12 0 -13 3 -4 12 14 14 16 28 4
28 -4 0 -16 -16 -26 -35 -20 -36 -30 -42 -41 -24 -8 12 -34 -18 -35 -40 0 -12
3 -12 12 -3 18 18 51 15 44 -3 -4 -12 0 -14 22 -9 15 4 43 15 62 24 19 10 45
21 58 25 23 7 23 7 8 -30 -16 -36 -15 -37 5 -32 29 8 19 -15 -14 -31 -15 -7
-27 -17 -27 -23 0 -5 -6 -9 -14 -9 -8 0 -18 -5 -22 -12 -5 -8 -2 -9 9 -5 10 3
17 3 17 -2 0 -5 -8 -11 -17 -15 -10 -3 -35 -17 -57 -32 -37 -25 -40 -18 -8 19
14 16 14 17 -1 11 -9 -3 -17 -11 -17 -16 0 -6 -7 -8 -15 -5 -8 4 -17 2 -20 -3
-4 -6 -16 -10 -27 -10 -12 0 -18 -3 -15 -7 4 -3 -2 -13 -14 -21 -26 -18 -39
-7 -13 13 22 17 12 20 -17 4 -17 -9 -18 -13 -8 -25 9 -11 23 -14 47 -9 23 4
32 3 27 -5 -3 -5 -11 -8 -16 -5 -5 3 -6 -1 -3 -10 5 -13 2 -15 -18 -10 -13 3
-44 -1 -69 -9 -24 -9 -54 -16 -65 -16 -34 0 -115 -50 -125 -77 -13 -36 -12
-37 15 -9 13 15 28 26 34 26 6 0 13 6 15 13 3 7 6 5 6 -5 1 -10 -10 -25 -24
-34 -14 -9 -22 -21 -19 -26 4 -6 9 -6 14 2 8 13 30 6 30 -10 0 -4 -15 -14 -32
-21 -18 -7 -36 -14 -40 -16 -3 -2 -9 5 -13 17 -3 11 -11 18 -16 14 -5 -3 -7
-15 -3 -26 5 -18 3 -20 -20 -14 -15 4 -26 2 -26 -4 0 -5 7 -10 15 -10 8 0 15
-4 15 -10 0 -5 -6 -10 -13 -10 -8 0 -22 -9 -32 -20 -10 -11 -22 -17 -27 -14
-5 3 -20 -6 -33 -20 -13 -14 -26 -22 -29 -18 -8 13 21 43 50 51 15 4 28 13 30
21 1 8 3 20 4 25 7 30 -2 33 -37 13 -21 -12 -43 -27 -48 -33 -6 -7 -20 -15
-33 -19 -17 -6 -22 -3 -22 9 0 20 28 50 48 50 9 0 17 5 19 12 3 7 -3 10 -15 6
-11 -2 -23 0 -26 6 -9 14 -26 14 -26 0 0 -5 5 -7 11 -3 7 4 10 1 7 -7 -3 -8
-11 -13 -18 -11 -13 3 -72 -59 -64 -68 3 -3 11 3 18 13 14 18 36 23 36 8 0 -5
-7 -14 -15 -21 -8 -7 -13 -16 -10 -20 3 -4 -4 -19 -15 -31 -11 -13 -19 -19
-20 -12 0 6 5 15 10 18 6 3 10 10 10 16 0 16 -19 10 -30 -11 -16 -30 4 -63 33
-54 19 6 20 5 8 -9 -7 -9 -17 -14 -22 -11 -5 3 -9 1 -9 -5 0 -5 4 -13 10 -16
6 -3 10 -2 10 4 0 13 59 45 67 37 4 -3 12 2 19 12 7 9 15 14 19 11 3 -4 -17
-29 -46 -55 -28 -27 -58 -55 -66 -63 -8 -7 -25 -11 -40 -8 -19 3 -27 0 -30
-13 -3 -10 -12 -21 -20 -24 -11 -4 -13 -2 -9 9 7 20 -3 19 -23 -3 -9 -11 -22
-21 -29 -23 -10 -3 -9 -9 3 -24 12 -15 15 -16 12 -4 -3 9 0 22 6 28 15 15 27
14 23 -1 -3 -7 -7 -26 -11 -42 -5 -25 -4 -28 9 -17 8 7 12 19 9 27 -6 16 14
44 31 44 6 0 2 -7 -8 -15 -16 -12 -17 -19 -8 -37 6 -13 11 -17 11 -11 1 7 16
19 35 27 19 8 47 28 62 45 15 17 30 28 35 26 4 -3 11 0 14 6 4 5 14 8 22 5 8
-3 11 -2 8 3 -3 5 -1 12 5 16 6 4 8 10 6 14 -3 4 8 5 24 3 17 -2 38 -1 47 3
10 4 29 9 42 11 13 2 28 9 32 16 16 25 9 30 -17 13 -14 -9 -28 -14 -32 -11 -3
3 -14 -2 -25 -11 -16 -14 -19 -15 -15 -3 2 8 24 22 48 31 45 17 59 32 40 44
-13 8 5 35 23 35 7 0 7 -4 -1 -12 -8 -8 -8 -17 -1 -30 5 -10 7 -23 4 -28 -10
-16 7 -12 43 10 39 24 43 25 36 5 -11 -27 10 -15 36 20 14 19 29 35 33 35 5 0
5 -4 2 -10 -3 -6 1 -7 9 -4 9 3 14 10 11 14 -6 10 76 80 94 80 6 0 11 4 11 10
0 5 19 19 43 31 23 12 50 28 60 37 27 24 20 -2 -8 -28 -28 -26 -27 -37 2 -22
10 6 45 18 78 27 33 10 77 24 98 31 43 16 45 13 15 -18 -31 -32 -80 -63 -96
-60 -7 2 -15 -4 -18 -12 -3 -9 -12 -12 -21 -9 -11 4 -14 2 -9 -5 4 -7 1 -12
-9 -12 -9 0 -13 -5 -9 -11 3 -6 19 -9 35 -5 30 6 40 -7 14 -18 -23 -8 -18 -20
15 -34 53 -24 32 -61 -33 -62 -27 0 -97 -52 -97 -72 0 -23 21 -23 51 0 37 26
61 40 97 57 19 8 31 19 27 25 -8 13 8 34 47 61 22 16 27 17 22 5 -8 -20 -1
-20 36 -1 42 22 37 12 -10 -19 -35 -23 -40 -24 -41 -9 0 14 -2 15 -6 3 -3 -8
-12 -21 -21 -27 -14 -11 -13 -13 7 -13 22 0 22 0 -5 -35 -15 -20 -23 -39 -19
-43 4 -4 10 -1 12 6 3 6 10 12 18 12 7 0 19 10 28 23 12 18 17 20 28 9 14 -13
5 -24 -26 -35 -5 -2 -2 -11 7 -20 21 -22 29 -22 21 0 -5 13 -2 15 11 10 10 -4
31 4 56 22 37 27 211 95 306 120 25 7 45 19 50 32 9 20 10 21 24 3 8 -11 10
-16 6 -12 -5 4 -21 -3 -36 -15 -15 -12 -36 -28 -46 -35 -17 -12 -17 -12 6 -7
14 3 41 8 60 11 29 4 31 3 13 -5 -31 -14 -29 -18 6 -13 23 3 28 8 23 21 -5 14
-4 14 11 2 10 -8 21 -11 24 -7 4 4 1 12 -7 17 -12 9 -12 10 3 5 10 -3 20 -6
23 -6 2 0 1 -7 -3 -16 -5 -14 -3 -15 15 -5 11 6 28 18 37 27 9 9 28 16 43 16
16 0 39 11 54 26 15 14 30 23 33 20 10 -10 -132 -148 -167 -163 -20 -8 -39
-19 -42 -24 -4 -5 -24 -12 -46 -16 -22 -4 -43 -11 -46 -16 -3 -6 -14 -7 -25
-4 -13 5 -19 2 -19 -10 0 -18 -125 -80 -183 -91 -21 -3 -41 -12 -44 -19 -5
-16 -83 -69 -89 -62 -3 3 11 15 30 27 21 12 36 30 36 41 0 28 -17 23 -53 -13
-34 -34 -117 -81 -117 -67 0 5 9 18 19 28 10 10 22 34 25 52 6 31 6 33 -8 16
-8 -11 -12 -25 -9 -33 3 -9 -1 -14 -12 -14 -10 0 -24 -8 -32 -17 -9 -12 -12
-13 -8 -3 4 8 -7 -1 -24 -20 -17 -19 -29 -40 -26 -47 2 -6 -3 -17 -11 -23 -11
-10 -14 -8 -14 11 0 31 -13 14 -30 -40 -8 -25 -26 -52 -42 -64 -28 -21 -38
-47 -17 -47 5 0 7 -5 3 -12 -5 -8 -12 -5 -23 9 -9 11 -22 18 -29 15 -6 -2 -12
4 -12 13 0 9 4 14 9 11 5 -3 25 1 44 9 28 12 37 23 51 64 22 67 21 67 -20 21
-20 -22 -39 -38 -42 -35 -3 3 6 18 20 33 34 36 59 87 52 105 -3 10 2 17 13 20
16 4 16 5 -2 6 -11 0 -26 -8 -32 -19 -11 -16 -10 -18 2 -14 23 9 18 -2 -12
-30 -20 -19 -29 -22 -35 -13 -11 17 -10 29 2 22 6 -3 7 1 4 9 -4 9 5 25 22 39
20 17 25 29 20 43 -6 17 -12 13 -49 -28 -37 -41 -46 -47 -76 -44 -39 3 -111
-27 -92 -38 6 -4 11 -12 11 -18 0 -6 -9 -3 -20 7 -22 20 -26 14 -10 -15 7 -13
7 -21 0 -25 -6 -3 -15 6 -21 22 -9 24 -12 26 -20 11 -5 -9 -15 -15 -22 -13 -6
2 -27 -16 -45 -40 -36 -50 -56 -57 -66 -22 -3 12 -9 18 -13 12 -5 -5 -17 -15
-28 -21 -17 -10 -36 -36 -48 -69 -3 -5 -8 -7 -12 -3 -4 4 -2 14 5 22 6 9 10
21 7 28 -3 8 -9 3 -15 -12 -10 -26 -42 -59 -42 -45 0 5 7 17 17 27 9 10 14 21
11 23 -3 3 -18 -10 -34 -30 -41 -51 -104 -116 -104 -107 -1 9 -39 -41 -40 -51
0 -5 4 -5 10 -2 16 10 12 -11 -5 -25 -8 -7 -15 -17 -15 -22 0 -6 7 -5 15 2 19
16 19 6 0 -24 -14 -21 -14 -24 0 -30 9 -3 13 -2 10 4 -3 6 3 10 14 10 10 0 21
-6 24 -12 3 -9 13 -5 32 12 l27 25 -21 -37 -22 -36 45 0 c25 0 49 4 52 10 4 7
9 7 13 0 8 -13 -6 -12 476 -12 365 0 469 7 563 35 12 4 22 3 22 -2 0 -5 26 -9
58 -10 85 0 132 -6 132 -16 0 -5 -9 -11 -20 -14 -50 -13 4 -34 84 -32 l41 0
-45 22 -45 22 55 2 c30 2 121 10 201 18 173 18 261 18 308 1 l34 -12 -27 -20
-27 -20 48 2 c26 1 56 3 66 3 24 1 21 18 -5 24 -37 10 -18 14 95 21 71 4 107
3 107 -4 0 -5 -11 -10 -25 -10 -14 0 -25 -5 -25 -11 0 -6 7 -9 15 -5 8 3 19
-3 25 -12 10 -14 11 -15 7 -1 -4 13 1 16 21 15 15 -1 37 -7 49 -14 27 -15 63
-16 63 -1 0 8 17 9 56 4 39 -5 54 -3 50 4 -5 7 22 9 86 4 99 -6 257 10 292 30
14 8 61 11 146 8 192 -6 247 -6 346 3 75 7 105 6 164 -9 64 -16 71 -20 56 -31
-20 -14 -14 -34 10 -34 13 0 18 12 15 33 0 4 6 7 14 7 17 0 20 -21 5 -36 -6
-6 4 -8 30 -6 41 4 53 17 23 25 -10 2 46 3 124 2 78 -2 146 -6 151 -9 6 -3 23
0 39 7 41 17 156 10 149 -9 -4 -10 2 -14 19 -14 14 0 25 -4 25 -10 0 -5 -11
-10 -23 -10 -13 0 -27 -3 -31 -7 -4 -5 -15 -8 -24 -9 -56 -3 -58 -4 -42 -14 8
-5 30 -10 48 -10 17 0 32 -4 32 -8 0 -4 22 -8 50 -9 27 0 47 3 44 8 -3 5 -1 9
5 9 5 0 11 -5 13 -12 3 -8 21 -3 56 14 29 14 50 22 47 18 -3 -4 15 -10 40 -12
25 -2 45 -1 45 2 0 3 21 4 46 1 28 -2 50 2 57 9 9 9 7 11 -8 6 -11 -3 -26 -2
-33 3 -23 14 31 22 155 22 125 0 223 -9 223 -21 0 -8 -72 -40 -135 -60 -22 -7
-45 -17 -52 -22 -7 -6 -15 -3 -22 9 -8 15 -13 16 -29 7 -12 -8 -24 -9 -36 -2
-10 6 -22 6 -29 0 -7 -5 -22 -12 -34 -15 -20 -4 -21 -3 -12 14 6 13 6 19 -1
19 -5 0 -10 -4 -10 -10 0 -5 -13 -10 -29 -10 -16 0 -31 -5 -33 -10 -2 -6 -15
1 -31 15 -21 20 -27 22 -27 10 0 -12 -6 -15 -19 -10 -11 3 -22 1 -25 -4 -4 -6
-13 -8 -21 -4 -8 3 -15 0 -15 -6 0 -6 -6 -8 -13 -5 -7 2 -29 -2 -48 -10 -36
-15 -79 -12 -79 6 0 5 -5 6 -11 2 -6 -3 -15 0 -20 7 -6 10 -9 11 -9 2 0 -7 -7
-13 -15 -13 -8 0 -15 4 -15 9 0 4 -24 13 -52 18 l-53 10 40 3 c35 2 37 3 15
10 -14 4 -38 8 -55 9 -23 1 -27 -2 -15 -9 16 -12 -25 -4 -68 11 -33 13 -55 11
-46 -3 4 -6 3 -8 -3 -5 -5 3 -20 8 -34 10 -13 3 -40 8 -59 12 -30 5 -39 2 -59
-19 -29 -31 -41 -32 -63 -7 -11 13 -13 22 -6 29 16 16 -60 27 -94 14 -16 -6
-28 -6 -28 -1 0 5 -11 15 -25 21 -21 9 -33 7 -76 -15 -60 -32 -63 -32 -54 -9
4 12 3 14 -5 6 -6 -6 -28 -9 -50 -7 -21 2 -41 0 -44 -5 -3 -5 7 -7 22 -5 26 4
26 4 8 -11 -23 -18 -35 -20 -56 -6 -10 6 -11 10 -2 10 6 0 12 5 12 10 0 6 -9
10 -20 10 -13 0 -18 -5 -14 -15 8 -19 -5 -19 -30 0 -11 8 -29 15 -40 15 -24 0
-157 -45 -152 -51 3 -2 -23 -5 -57 -6 -34 -2 -73 -3 -86 -4 -18 -1 -21 -3 -10
-10 15 -9 6 -13 -23 -10 -25 3 -22 -8 5 -18 13 -5 27 -5 35 2 7 5 16 7 19 3 4
-4 1 -12 -7 -17 -12 -9 -12 -10 3 -5 10 3 23 6 29 6 6 0 8 7 4 15 -3 8 -1 15
4 15 6 0 10 -3 10 -7 0 -12 53 -34 59 -25 3 4 23 9 45 11 30 2 36 0 30 -11 -6
-10 -5 -11 7 -2 8 6 39 10 69 9 32 -2 58 2 62 9 6 8 8 7 8 -1 0 -15 36 -17 45
-3 4 6 14 7 23 2 9 -4 57 -7 106 -6 76 2 94 -1 122 -19 19 -12 34 -25 34 -30
0 -9 -51 22 -62 37 -4 6 -10 7 -14 4 -4 -4 8 -21 25 -37 25 -23 31 -36 26 -52
-6 -19 -4 -21 16 -16 13 4 32 7 42 7 9 0 17 5 17 10 0 6 -6 10 -12 9 -26 -3
-48 1 -48 10 0 17 65 4 68 -14 3 -15 14 -16 93 -11 55 3 91 1 95 -5 7 -13 -31
-51 -41 -41 -4 4 -4 -4 0 -18 6 -19 4 -22 -5 -14 -7 8 -24 9 -46 4 -25 -6 -34
-5 -31 3 2 7 17 11 32 9 26 -3 27 -2 14 14 -12 16 -12 17 3 12 10 -4 19 -1 22
8 4 10 -3 14 -25 14 -18 0 -28 -4 -24 -10 9 -14 -29 -12 -43 2 -9 9 -12 9 -12
0 0 -7 5 -12 11 -12 5 0 7 -5 4 -11 -5 -7 -13 -5 -24 5 -22 20 -51 21 -51 2 0
-7 -8 -20 -17 -27 -15 -11 -16 -11 -5 1 19 22 14 40 -12 40 -30 0 -57 10 -52
19 2 3 -14 6 -37 6 -25 0 -42 5 -45 14 -3 9 1 11 17 6 25 -7 29 10 5 19 -10 4
-25 -1 -35 -10 -14 -13 -19 -14 -19 -4 0 7 -3 10 -7 6 -5 -4 0 -14 11 -21 17
-13 17 -14 -8 -21 -15 -3 -30 -4 -33 0 -4 3 2 6 12 6 14 0 15 3 6 14 -6 7 -10
20 -8 27 2 8 2 11 0 7 -2 -4 -12 -4 -21 -1 -14 5 -15 3 -4 -8 19 -20 14 -31
-8 -17 -16 10 -22 10 -32 0 -11 -11 -9 -12 7 -7 14 5 16 4 5 -2 -8 -5 -43 -7
-78 -5 -49 3 -62 7 -58 18 3 7 2 13 -2 12 -11 -2 -46 14 -60 29 -16 15 -32 17
-32 3 0 -5 8 -10 18 -11 11 -1 8 -4 -8 -8 -22 -6 -19 -8 23 -15 31 -5 47 -12
47 -22 0 -16 -4 -17 -28 -5 -38 19 -90 32 -149 38 -68 6 -86 23 -26 23 58 0
34 8 -35 12 -34 1 -62 6 -62 11 0 4 -5 5 -10 2 -6 -4 -17 -1 -25 5 -19 16 -19
3 -1 -16 8 -8 26 -14 40 -14 14 0 28 -4 31 -10 8 -13 -85 -13 -120 0 -31 12
-74 50 -56 50 7 0 9 5 5 11 -5 8 -10 6 -16 -5 -5 -9 -6 -22 -2 -28 5 -7 -5 -3
-20 10 -38 30 -76 30 -76 0 -1 -13 -7 -34 -15 -48 -8 -14 -14 -36 -15 -48 0
-34 -31 -82 -52 -82 -26 0 -32 -20 -6 -21 17 0 11 -7 -27 -25 -56 -27 -75 -30
-75 -11 0 17 -206 15 -239 -3 -19 -10 -21 -14 -10 -22 9 -6 1 -7 -26 -3 -22 4
-45 11 -52 17 -13 10 -33 3 -33 -12 0 -5 7 -7 15 -4 8 4 15 1 15 -5 0 -13 -33
-22 -92 -26 -24 -1 -62 -8 -86 -15 -43 -13 -69 -7 -42 10 11 7 2 14 -34 30
-27 11 -51 18 -54 15 -3 -2 3 -7 12 -11 9 -3 16 -12 16 -20 0 -8 9 -14 21 -14
11 0 17 -4 14 -10 -3 -6 -18 -10 -33 -10 -25 0 -25 -1 -6 -15 10 -8 14 -15 8
-15 -6 0 -17 7 -24 15 -7 8 -21 15 -31 15 -22 0 -34 16 -17 23 7 3 -6 2 -29 0
-37 -5 -43 -3 -43 13 0 13 -3 15 -8 7 -4 -7 -29 -14 -55 -16 -26 -3 -53 -9
-60 -16 -8 -6 -16 -8 -20 -5 -12 12 -47 -8 -47 -28 0 -17 -3 -18 -15 -8 -26
22 -48 4 -40 -32 l8 -33 -20 24 c-25 30 -47 20 -38 -17 5 -21 4 -24 -8 -14
-16 13 -47 6 -47 -10 0 -6 6 -8 14 -5 10 4 18 -5 25 -25 14 -41 8 -45 -17 -14
-22 28 -37 33 -48 14 -4 -7 -3 -8 4 -4 12 7 38 -32 27 -42 -3 -3 -15 -1 -25 6
-27 17 -32 15 -20 -7 13 -25 -1 -35 -33 -25 -19 6 -20 5 -8 -10 9 -11 30 -16
65 -17 43 0 48 -2 32 -12 -10 -7 -39 -29 -64 -50 -25 -21 -56 -43 -69 -48 -28
-11 -30 -24 -3 -26 11 -1 20 2 20 7 0 6 19 22 41 37 119 80 136 84 181 44 27
-25 31 -32 20 -43 -11 -11 -16 -10 -26 5 -7 9 -25 17 -39 17 l-26 0 25 -25
c14 -14 34 -27 44 -28 11 -2 23 -7 27 -12 5 -4 2 -5 -5 -1 -9 6 -11 -4 -7 -41
9 -75 11 -83 23 -95 7 -7 12 -22 12 -34 0 -13 4 -26 10 -29 6 -4 5 -18 -4 -39
-10 -25 -11 -37 -3 -45 8 -8 8 -11 -1 -11 -7 0 -12 -11 -12 -25 0 -16 6 -25
15 -25 8 0 15 9 15 20 0 18 19 30 21 13 0 -5 2 -19 3 -32 2 -13 14 -32 27 -41
20 -16 22 -22 14 -46 -6 -15 -16 -29 -24 -32 -8 -3 -11 -1 -9 4 3 5 -2 17 -12
26 -16 17 -18 17 -36 0 -17 -17 -20 -17 -30 -3 -7 9 -9 25 -3 43 6 21 4 28 -6
28 -22 0 -37 39 -30 77 7 38 -12 93 -32 93 -15 0 -17 16 -4 24 10 6 3 56 -11
72 -11 14 -14 77 -4 92 4 7 2 12 -4 12 -7 0 -14 -9 -17 -21 -4 -16 -8 -17 -14
-7 -15 23 -10 66 9 77 16 10 16 10 0 11 -30 0 -41 -37 -33 -119 4 -42 11 -79
17 -82 16 -10 67 -193 55 -201 -7 -4 -7 -11 2 -22 17 -21 7 -20 -24 0 -34 23
-31 14 15 -42 45 -55 48 -64 20 -64 -38 0 -79 94 -112 255 l-18 90 4 -72 3
-73 -33 -6 c-19 -3 -34 -10 -34 -14 0 -5 14 -5 31 0 22 7 29 6 26 -3 -2 -7
-11 -12 -20 -12 -9 0 -23 -7 -31 -15 -16 -18 -66 -139 -66 -163 0 -9 -5 -19
-11 -22 -20 -13 -28 -52 -17 -89 6 -20 15 -36 20 -36 5 0 27 9 50 21 29 15 37
23 28 29 -11 7 -11 17 2 57 13 42 19 48 46 51 17 2 49 -6 71 -17 30 -16 51
-19 83 -15 34 5 55 1 101 -21 31 -15 60 -31 63 -36 7 -12 3 -11 -45 6 -23 8
-39 10 -36 5 3 -5 -7 -10 -22 -12 -26 -3 -28 -6 -26 -43 2 -32 0 -35 -6 -15
-6 22 -12 25 -47 21 -21 -1 -48 -8 -59 -13 -22 -12 -74 -68 -75 -81 0 -5 -10
-17 -22 -27 -21 -17 -22 -19 -5 -26 10 -3 44 -4 75 -1 48 5 65 2 108 -19 28
-14 64 -38 80 -55 26 -28 27 -30 11 -46 -14 -15 -22 -15 -47 -6 l-31 12 30
-34 c25 -29 29 -42 30 -93 0 -56 15 -110 48 -177 8 -17 13 -49 11 -75 l-3 -45
-29 43 c-17 25 -30 59 -32 80 -2 49 -41 154 -59 165 -9 4 -13 12 -10 17 3 5
-4 11 -14 15 -11 3 -23 15 -26 26 -4 10 -10 17 -15 14 -5 -3 -7 -13 -4 -23 5
-15 4 -15 -6 1 -6 10 -9 25 -6 33 3 9 1 12 -4 9 -6 -3 -10 -2 -10 3 0 4 -16
16 -35 25 -44 21 -60 22 -23 1 16 -8 37 -33 49 -55 11 -23 16 -38 10 -35 -16
10 -43 -35 -29 -51 6 -7 15 -13 21 -13 7 0 7 4 -1 12 -18 18 -15 28 9 28 11 0
30 -10 41 -22 18 -21 19 -21 14 -3 -6 20 -6 20 9 1 11 -15 12 -23 3 -33 -9
-11 -8 -13 2 -11 8 2 22 -13 31 -32 25 -49 59 -160 49 -160 -4 0 -10 7 -14 15
-6 18 -27 20 -24 3 4 -19 27 -40 37 -34 5 4 19 -23 31 -59 12 -36 25 -65 29
-65 21 0 31 31 32 95 2 127 18 7 18 -142 1 -75 5 -133 11 -135 16 -5 -131
-187 -190 -236 -50 -41 -51 -41 -15 -6 40 39 95 111 74 99 -6 -4 -13 2 -16 14
-3 11 -9 18 -15 15 -5 -3 -5 -11 2 -19 8 -10 2 -22 -27 -49 -21 -20 -42 -36
-46 -36 -5 0 -6 -4 -3 -9 4 -5 -6 -23 -20 -40 -14 -17 -21 -31 -15 -31 6 0 -7
-16 -29 -36 -22 -20 -43 -35 -46 -32 -2 3 11 19 30 36 19 16 32 32 29 35 -2 3
0 14 6 25 14 27 1 36 -17 11 -8 -11 -20 -18 -27 -15 -23 8 -38 -19 -25 -44 8
-14 8 -25 2 -33 -6 -7 -10 -16 -10 -21 -1 -4 -33 -30 -72 -57 -39 -27 -128
-98 -198 -157 -70 -60 -134 -113 -144 -118 -9 -5 -42 -34 -75 -64 -32 -30 -76
-68 -98 -84 -22 -16 -59 -47 -82 -69 -24 -23 -43 -37 -43 -31 0 6 14 20 30 33
17 12 28 26 25 31 -3 5 6 27 20 49 37 59 23 127 -19 92 -20 -16 -47 -2 -45 23
1 11 -1 29 -5 39 -14 38 -15 47 -6 47 6 0 10 -7 10 -15 0 -20 7 -19 63 10 26
14 52 23 57 20 6 -4 12 0 15 7 3 7 17 14 31 15 15 0 30 6 34 12 3 7 14 9 23 5
13 -5 17 0 17 18 0 25 -38 57 -49 40 -7 -11 -61 -36 -113 -52 -21 -6 -40 -16
-44 -21 -4 -6 -11 -6 -20 2 -11 9 -15 8 -20 -5 -4 -11 -13 -15 -25 -11 -11 4
-19 2 -19 -5 0 -6 5 -8 12 -4 7 4 8 3 4 -4 -4 -7 -14 -12 -22 -12 -19 0 -18
-26 1 -34 17 -6 19 -15 6 -35 -5 -7 -14 -10 -21 -6 -9 6 -9 10 1 17 11 7 9 8
-6 6 -13 -3 -19 -10 -17 -22 2 -13 -1 -17 -10 -13 -11 4 -14 -3 -12 -28 3 -29
1 -32 -19 -27 -12 3 -16 7 -9 10 17 5 15 42 -3 42 -18 0 -20 -16 -2 -23 7 -3
5 -6 -5 -6 -10 -1 -18 -5 -18 -11 0 -22 -19 -8 -22 17 -2 14 -8 28 -14 30 -8
3 -10 -10 -7 -42 5 -37 3 -45 -11 -45 -9 0 -16 -8 -16 -20 0 -11 -6 -38 -12
-60 -14 -43 -32 -50 -68 -27 -17 10 -22 9 -29 -2 -5 -7 -14 -10 -20 -7 -6 4
-11 2 -11 -5 0 -7 -2 -10 -5 -7 -9 9 7 38 20 38 8 0 17 5 21 12 5 7 3 8 -6 3
-10 -6 -12 -4 -7 8 4 11 1 17 -7 17 -7 0 -18 11 -24 24 -12 28 -58 40 -67 18
-4 -11 1 -13 22 -7 27 6 27 6 8 -9 -11 -8 -24 -16 -28 -16 -4 0 -21 -10 -37
-22 -16 -12 -33 -19 -36 -15 -4 4 -17 -6 -28 -22 -12 -15 -26 -26 -33 -24 -6
2 -14 -1 -18 -6 -12 -20 -22 -11 -22 19 0 20 3 26 9 18 6 -10 8 -9 8 3 0 8 -5
20 -11 26 -7 7 -8 17 -3 25 5 7 7 25 5 40 -2 23 1 27 16 22 16 -5 16 -4 2 5
-10 7 -19 32 -24 67 -4 32 -9 64 -12 73 -2 9 3 5 12 -9 l16 -25 -7 25 c-3 14
-10 29 -15 35 -5 5 -9 17 -9 28 0 10 -9 35 -20 55 -10 20 -31 62 -45 93 -15
32 -42 75 -61 98 -30 34 -34 46 -29 71 6 27 4 30 -16 28 -18 -3 -24 4 -31 32
-5 19 -16 40 -23 46 -19 14 -38 64 -25 64 6 0 10 -8 10 -17 0 -11 3 -14 8 -7
4 6 17 14 29 18 11 4 24 13 27 22 5 12 2 12 -15 3 -31 -16 -69 -3 -69 24 0 13
-4 27 -9 33 -12 12 -21 125 -10 118 21 -13 5 16 -46 84 -29 39 -52 72 -50 72
3 0 32 -35 66 -77 l61 -77 -6 -58 c-3 -36 -2 -58 4 -58 6 0 10 15 11 33 0 17
4 41 8 51 6 16 9 17 17 5 14 -22 34 -82 34 -104 1 -19 22 -55 32 -55 3 0 8 9
11 20 3 13 10 18 21 14 10 -4 16 -1 16 9 0 8 -6 17 -12 20 -10 3 -10 7 1 20 7
10 9 17 3 17 -5 0 -8 8 -5 18 2 10 -3 24 -11 31 -9 8 -16 21 -16 30 0 9 -5 22
-12 29 -9 9 -9 12 2 12 12 0 11 3 -2 16 -24 25 -56 10 -61 -29 -2 -19 -4 -10
-5 25 -1 31 3 69 8 84 7 18 7 45 1 83 -18 101 -21 201 -7 195 14 -5 228 48
282 71 26 11 32 18 28 32 -6 15 -4 15 9 -2 l16 -20 1 20 c0 14 3 16 8 7 11
-16 77 -3 167 33 110 43 187 55 369 57 151 1 178 4 235 25 35 13 67 23 70 24
3 1 -5 5 -19 9 l-25 8 26 1 c14 1 30 6 37 13 8 8 12 9 12 1 0 -6 -6 -14 -12
-16 -8 -4 -7 -6 3 -6 30 -2 42 28 56 136 10 78 11 108 2 113 -7 5 -5 9 6 14 9
3 14 10 11 14 -3 4 0 27 5 51 7 33 6 45 -5 57 -13 12 -16 12 -30 -1 -8 -8 -29
-15 -47 -15 -40 0 -27 19 15 24 15 2 36 10 47 19 18 16 19 16 19 0 0 -10 3
-13 9 -7 8 9 63 265 60 280 -1 5 5 25 13 44 23 52 32 98 18 83 -7 -6 -27 -9
-46 -6 -27 4 -34 2 -34 -11 0 -9 -4 -16 -10 -16 -5 0 -10 4 -10 8 0 16 25 32
50 32 35 0 70 11 70 21 0 5 -7 9 -15 9 -8 0 -15 -5 -15 -11 0 -5 -5 -7 -10 -4
-6 4 -8 11 -5 16 4 5 -1 9 -9 9 -9 0 -16 -4 -16 -10 0 -5 -12 -7 -27 -4 -20 4
-35 -1 -51 -16 -22 -21 -24 -21 -36 -5 -7 10 -20 15 -32 12 -16 -4 -16 -5 4
-6 20 -1 21 -4 11 -22 -10 -19 -8 -20 10 -14 15 4 21 2 21 -8 0 -20 25 -28 39
-14 8 8 11 8 11 -1 0 -7 7 -12 16 -10 10 2 19 -3 21 -9 3 -7 0 -13 -7 -13 -6
0 -9 -4 -6 -8 3 -5 -9 -6 -25 -4 -17 3 -33 11 -36 18 -4 10 -10 11 -24 3 -22
-11 -25 0 -7 21 7 7 -3 1 -23 -13 -20 -15 -39 -24 -42 -20 -4 3 -7 1 -7 -6 0
-8 7 -10 20 -6 11 4 20 2 20 -4 0 -6 -8 -11 -17 -12 -12 0 -13 -2 -5 -6 7 -3
22 3 32 12 10 9 24 14 29 10 6 -3 11 -1 11 4 0 7 7 7 20 -1 11 -7 20 -20 20
-28 0 -13 -2 -13 -9 -1 -8 12 -12 12 -26 -3 -10 -10 -25 -14 -37 -11 -10 4
-25 1 -33 -5 -22 -18 -85 -21 -92 -4 -4 12 -8 11 -19 -3 -12 -16 -15 -16 -24
-3 -5 8 -10 13 -11 10 0 -3 -2 -12 -4 -20 -2 -11 6 -17 29 -18 17 -2 35 -7 40
-12 6 -6 18 -10 28 -10 12 0 16 5 11 18 -7 16 -6 16 11 -1 10 -9 21 -15 26
-12 4 3 13 -2 20 -10 15 -18 10 -18 -24 -6 -16 7 -26 7 -28 0 -5 -15 -128 -25
-128 -10 0 6 -4 11 -10 11 -5 0 -7 -7 -4 -15 4 -8 2 -15 -4 -15 -6 0 -12 5
-14 12 -3 8 -15 5 -36 -11 -30 -21 -44 -17 -21 6 7 7 1 14 -20 23 -17 7 -28
16 -25 21 3 5 -11 9 -30 9 -20 0 -36 -5 -36 -11 0 -6 7 -9 15 -5 19 7 47 -3
39 -15 -3 -5 3 -6 13 -2 16 6 16 5 4 -11 -10 -12 -22 -15 -44 -10 -16 3 -27 2
-24 -2 3 -5 -6 -10 -20 -11 -26 -1 -46 -20 -36 -36 3 -4 12 -6 20 -3 8 3 11 1
8 -4 -3 -6 2 -10 11 -10 10 0 15 -2 12 -5 -3 -3 -24 -3 -47 1 -41 7 -41 7 -26
30 9 14 11 25 5 29 -12 8 -32 -4 -25 -14 2 -5 -8 -14 -23 -21 -26 -12 -26 -13
-7 -21 15 -7 11 -8 -15 -4 -31 5 -49 19 -50 38 0 10 28 9 34 -2 3 -5 15 -7 26
-4 11 3 17 9 15 14 -3 4 -13 5 -23 2 -14 -5 -15 -3 -5 7 7 7 27 15 45 17 17 2
36 9 40 16 6 9 8 9 8 0 0 -7 11 -13 25 -13 14 0 25 5 25 10 0 6 -7 10 -16 10
-12 0 -15 7 -12 25 3 14 1 25 -3 25 -5 0 -9 -9 -9 -20 0 -22 -7 -25 -30 -10
-13 8 -12 10 3 10 9 0 17 5 17 11 0 7 -10 5 -25 -5 -29 -19 -35 -20 -31 -3 1
6 1 9 -1 5 -3 -5 -12 -8 -21 -8 -10 -1 -4 -7 13 -14 l30 -13 -45 -20 c-45 -19
-95 -20 -83 0 4 6 -2 8 -18 3 -13 -3 -36 -9 -51 -12 -16 -4 -28 -10 -28 -15 0
-5 6 -7 13 -5 44 14 64 15 64 2 0 -7 -5 -13 -11 -13 -52 1 -66 -4 -66 -23 0
-13 7 -20 20 -20 25 0 26 17 3 23 -14 4 -13 5 4 6 12 0 27 -7 32 -16 6 -10 11
-12 11 -5 0 6 10 11 23 11 14 -1 16 -3 6 -6 -12 -3 -15 -13 -12 -37 2 -27 -1
-35 -17 -39 -12 -3 -18 -1 -14 5 4 7 -4 8 -24 3 -18 -3 -33 -2 -37 4 -3 6 2
10 12 9 41 -3 65 2 60 15 -2 6 -11 11 -18 9 -24 -6 -43 -5 -74 3 l-30 8 19
-22 c19 -21 19 -22 1 -15 -15 6 -17 4 -12 -10 5 -12 3 -16 -5 -13 -7 2 -12 16
-11 31 2 23 -1 25 -17 16 -16 -9 -18 -14 -8 -35 6 -13 15 -22 19 -19 5 3 9 0
9 -5 0 -6 -5 -11 -12 -11 -6 0 -8 -3 -5 -6 4 -4 13 -2 20 4 7 6 30 11 50 10
40 -1 42 -9 5 -13 -41 -4 -43 -5 -29 -14 8 -5 19 -7 26 -5 6 3 18 -2 25 -11
16 -20 22 -19 50 5 21 18 21 20 4 20 -18 1 -18 2 2 18 11 9 25 24 30 33 8 14
13 14 43 2 26 -11 31 -17 21 -23 -9 -6 -20 -4 -31 6 -24 21 -35 17 -14 -6 17
-19 17 -20 1 -20 -11 0 -14 5 -10 12 5 8 2 9 -10 5 -10 -4 -20 -7 -23 -7 -3 0
0 -7 7 -15 7 -8 19 -15 27 -15 8 0 11 -5 7 -11 -4 -7 -9 -8 -17 0 -7 7 -22 -2
-50 -30 -22 -22 -46 -38 -53 -35 -8 3 -12 -2 -11 -14 1 -14 5 -16 19 -9 9 5
20 14 23 19 11 18 26 10 20 -10 -8 -24 10 -27 19 -3 4 9 1 20 -6 24 -9 6 -9
11 1 23 18 22 34 20 26 -3 -4 -14 0 -20 17 -25 35 -9 60 -7 53 4 -3 6 -1 10 4
10 6 0 11 -4 11 -10 0 -5 9 -10 21 -10 13 0 23 -8 26 -20 6 -23 41 -35 79 -27
19 3 24 1 20 -10 -3 -8 -2 -12 3 -8 5 3 11 0 13 -6 3 -8 9 -6 20 5 10 10 19
12 23 6 11 -18 -5 -29 -45 -28 -30 0 -40 4 -40 17 0 14 -2 14 -10 1 -5 -8 -12
-11 -16 -8 -10 11 -32 -15 -26 -32 4 -12 2 -13 -9 -3 -7 7 -25 13 -39 13 -14
0 -35 8 -46 18 -15 14 -26 17 -43 10 -13 -4 -27 -6 -31 -3 -4 3 -6 -4 -3 -15
3 -11 0 -20 -6 -20 -6 0 -11 5 -11 12 0 6 -3 9 -6 5 -4 -3 -13 0 -21 8 -19 19
-39 19 -47 0 -3 -8 -1 -15 4 -15 18 0 -1 -26 -31 -44 -40 -24 -31 -31 12 -10
19 10 46 24 62 31 15 8 27 10 27 5 0 -5 23 -7 50 -4 33 3 50 1 50 -7 0 -6 -10
-9 -22 -7 -13 2 -41 -5 -63 -15 -22 -9 -56 -22 -75 -28 l-35 -11 34 5 c19 3
40 0 49 -7 13 -11 14 -11 8 1 -6 10 -4 12 11 7 13 -4 26 1 37 13 12 13 37 22
75 26 31 3 68 8 83 10 20 3 26 1 22 -9 -8 -21 42 -17 62 5 22 24 31 24 39 -1
5 -14 -2 -29 -24 -51 -38 -38 -41 -26 -3 14 20 22 22 28 9 24 -10 -4 -23 -7
-28 -7 -5 0 -9 -6 -9 -14 0 -8 -7 -17 -16 -20 -14 -5 -15 -4 -5 8 11 13 8 14
-16 11 -15 -2 -28 -4 -28 -5 0 0 -22 -2 -50 -4 -66 -5 -109 -22 -101 -41 3 -9
0 -15 -10 -15 -8 0 -13 4 -9 9 3 5 0 13 -6 17 -8 4 -9 3 -5 -4 4 -7 -2 -16
-17 -21 -22 -9 -37 -29 -37 -52 0 -4 7 -6 15 -3 8 4 13 10 10 15 -9 14 28 27
68 24 42 -4 43 -3 21 19 -8 9 -10 16 -4 16 6 0 13 -7 16 -15 4 -8 16 -15 29
-15 26 0 39 -22 22 -39 -9 -9 -3 -10 21 -5 22 5 32 3 32 -6 0 -7 -6 -10 -14
-7 -8 3 -17 3 -21 -1 -3 -4 -12 -7 -18 -7 -7 0 -31 -4 -54 -9 -48 -9 -70 -28
-26 -22 15 2 22 1 15 -1 -10 -4 -10 -8 -1 -19 9 -11 8 -14 -5 -14 -9 0 -16 4
-16 8 0 9 -2 10 -73 18 -41 5 -52 3 -72 -16 -14 -13 -31 -20 -39 -17 -9 4 -16
1 -16 -6 0 -7 -14 -25 -30 -41 -27 -26 -35 -25 -32 5 2 12 -93 -3 -107 -17
-12 -11 -11 -12 10 -7 20 5 22 4 12 -8 -6 -8 -11 -18 -10 -23 1 -4 -20 -17
-47 -27 -64 -26 -83 -14 -58 36 9 18 20 31 25 28 4 -2 14 2 22 11 13 13 13 15
-3 18 -24 5 -88 -19 -84 -31 1 -6 -2 -11 -8 -11 -5 0 -10 -5 -10 -11 0 -6 7
-9 15 -6 8 4 17 2 20 -4 7 -11 -20 -41 -29 -32 -3 3 -12 0 -20 -6 -8 -7 -20
-10 -25 -7 -5 4 -13 1 -17 -5 -5 -9 2 -10 25 -6 20 4 30 3 26 -3 -8 -13 -52
-13 -61 1 -3 6 -15 8 -26 6 -16 -5 -24 3 -38 36 -10 23 -23 61 -28 84 l-9 41
38 4 c22 2 39 0 39 -4 0 -7 -32 -12 -52 -9 -5 0 -8 -4 -8 -10 0 -6 7 -9 15 -5
8 3 15 1 15 -4 0 -6 -7 -10 -15 -10 -8 0 -15 -4 -15 -9 0 -13 28 -22 35 -11 4
6 11 10 16 10 6 0 7 -4 4 -10 -3 -5 0 -10 7 -10 7 -1 0 -8 -15 -16 -16 -9 -27
-18 -24 -21 3 -2 14 0 25 6 12 6 36 12 54 12 l33 1 -30 8 -30 7 25 11 c19 8
21 11 7 11 -10 1 -15 5 -12 11 3 6 -2 10 -12 11 -11 0 -13 3 -5 6 10 4 10 8 1
19 -9 11 -8 14 5 14 9 0 16 -8 16 -19 0 -22 16 -36 24 -22 3 5 -3 20 -13 32
-16 20 -28 24 -77 24 l-58 0 -12 45 c-20 77 -73 179 -116 226 -45 49 -53 52
-81 26 -19 -16 -20 -16 -8 5 15 30 15 31 -14 25 -18 -3 -25 0 -25 11 0 8 -7
20 -15 27 -8 7 -15 19 -15 27 0 12 3 12 16 -1 8 -9 20 -16 25 -16 12 0 113
-70 117 -82 2 -4 7 -8 12 -8 4 0 4 17 0 37 -6 24 -5 42 2 50 8 10 6 13 -8 14
-11 1 -22 1 -26 0 -5 0 -8 9 -8 22 0 18 -2 19 -10 7 -8 -13 -11 -12 -24 5 -12
17 -17 18 -39 6 -16 -8 -36 -11 -54 -7 -15 4 -40 10 -55 13 -32 6 -36 27 -11
55 9 11 11 18 5 18 -7 0 -12 17 -12 41 0 35 3 40 18 34 9 -3 19 -7 22 -8 3 -1
15 8 28 21 26 26 18 30 -11 5 -19 -17 -20 -17 -14 0 5 14 2 16 -17 11 -22 -5
-24 -3 -21 28 1 21 8 34 19 36 9 2 16 8 16 14 0 5 7 8 15 4 18 -6 20 5 4 21
-6 6 -18 9 -27 5 -11 -4 -14 -1 -9 10 3 10 -1 18 -13 21 -12 3 -20 18 -25 46
-4 22 -10 41 -13 41 -10 0 -40 78 -47 121 -4 19 -11 42 -16 50 -8 12 -11 11
-20 -4 -8 -13 -18 -17 -34 -13 -29 7 -49 -16 -43 -49 3 -16 1 -25 -7 -25 -8 0
-11 -12 -9 -32 2 -18 5 -47 7 -65 4 -31 35 -89 36 -66 1 6 -3 15 -9 18 -12 8
-13 35 -1 35 15 0 35 -123 35 -225 1 -75 -2 -99 -11 -98 -7 2 -13 -2 -13 -8 0
-6 7 -9 15 -5 10 3 15 -1 15 -13 0 -10 -7 -21 -15 -25 -8 -3 -15 -14 -15 -24
0 -10 -6 -27 -14 -37 -9 -13 -11 -27 -6 -41 5 -13 4 -26 -3 -34 -9 -10 -9 -11
1 -5 20 11 92 16 92 6 0 -5 -13 -12 -29 -16 -16 -3 -34 -12 -40 -19 -6 -7 -30
-19 -53 -26 -24 -7 -65 -31 -92 -53 -39 -33 -47 -36 -42 -19 9 26 -18 31 -31
7 -8 -14 -30 -20 -66 -17 -10 1 -16 6 -13 10 3 5 -1 9 -9 9 -8 0 -12 -4 -9 -9
3 -4 0 -8 -6 -8 -6 0 -16 14 -21 30 -6 17 -18 30 -27 31 -12 0 -10 3 6 9 23
10 31 22 11 17 -8 -1 -13 24 -15 73 -2 41 -8 107 -14 147 -5 40 -7 102 -4 138
5 55 4 65 -10 65 -18 0 -22 -35 -5 -45 6 -5 4 -12 -8 -22 -10 -8 -13 -12 -8
-10 6 3 9 -30 8 -91 -1 -54 2 -122 6 -152 11 -76 3 -150 -16 -150 -11 0 -14
15 -14 73 0 39 1 93 1 120 0 26 -4 47 -8 47 -4 0 -7 37 -8 82 0 46 -2 111 -5
146 -2 34 -2 63 1 65 9 4 68 190 75 232 5 34 2 42 -16 53 -11 7 -24 11 -27 8
-3 -3 1 -6 8 -6 9 0 7 -5 -5 -14 -18 -13 -18 -14 3 -20 12 -4 22 -12 22 -17 0
-11 -7 -11 -29 1 -16 8 -18 5 -18 -23 -1 -18 1 -26 4 -19 6 17 33 15 33 -2 0
-21 -42 -49 -51 -35 -4 8 -9 8 -13 1 -3 -6 0 -12 6 -15 17 -5 -6 -33 -46 -58
-27 -16 -27 -17 -7 -24 35 -11 61 4 78 46 25 63 27 37 2 -34 -22 -63 -34 -75
-81 -81 -3 -1 -10 -4 -14 -8 -11 -12 14 -10 37 2 21 12 21 11 21 -40 0 -51 -1
-52 -31 -45 -17 3 -32 2 -36 -4 -4 -7 9 -11 35 -11 38 0 41 -2 35 -21 -5 -15
-4 -19 4 -15 6 4 11 2 11 -3 0 -6 -8 -10 -17 -8 -25 3 -28 -17 -4 -21 28 -5
28 -82 0 -89 -26 -7 -24 -17 6 -33 14 -7 25 -20 25 -29 0 -12 -2 -13 -8 -4
-11 18 -70 8 -104 -17 -26 -19 -40 -15 -18 6 6 6 -14 10 -53 10 -214 6 -233 8
-233 27 0 13 6 17 19 13 11 -3 17 0 14 7 -6 21 -36 19 -63 -2 -23 -18 -35 -20
-89 -15 -34 4 -65 2 -68 -2 -3 -5 11 -8 32 -6 25 3 41 -1 50 -12 11 -13 6 -15
-39 -11 -29 2 -57 8 -63 14 -17 17 -27 13 -27 -10 0 -13 4 -18 12 -13 7 4 8 3
4 -5 -4 -6 -12 -8 -18 -5 -7 5 -9 2 -6 -7 4 -10 -1 -15 -13 -15 -12 0 -15 4
-9 10 17 17 11 32 -15 44 -15 7 -25 8 -25 2 0 -6 -7 -10 -15 -10 -16 0 -21
-15 -7 -23 4 -2 2 -2 -5 -1 -6 2 -14 -4 -17 -12 -9 -23 -7 -27 7 -21 8 3 19 2
26 -3 9 -5 5 -9 -13 -14 -14 -3 -26 -11 -26 -17 0 -6 9 -8 20 -4 11 3 20 2 20
-4 0 -5 26 -15 58 -22 31 -7 68 -20 82 -30 14 -9 40 -20 59 -23 30 -5 32 -4
20 11 -11 13 -11 15 -1 9 19 -11 96 2 118 20 18 15 18 15 -6 9 -40 -11 -159
-21 -153 -13 2 5 14 8 26 8 27 0 42 10 50 34 7 17 9 17 32 2 30 -20 35 -20 35
-1 0 8 4 15 10 15 5 0 6 -7 3 -17 -4 -11 -3 -14 5 -9 7 4 12 12 12 18 0 12 30
37 45 37 6 1 -1 -8 -14 -18 -13 -10 -21 -23 -17 -30 11 -17 26 -13 19 5 -5 13
-2 15 17 9 12 -4 42 -2 65 5 52 14 69 40 27 40 -24 1 -25 2 -9 11 13 8 22 7
33 -1 20 -17 18 -29 -11 -52 -14 -11 -25 -24 -25 -29 0 -6 5 -5 13 1 6 6 28
24 47 41 19 16 36 25 38 19 2 -5 9 -8 15 -4 7 3 -1 -6 -18 -20 -20 -18 -25
-26 -14 -26 9 0 19 3 23 8 4 4 13 7 19 7 7 0 12 11 12 24 0 13 6 26 13 29 7 2
10 -2 6 -12 -4 -12 -2 -15 9 -10 9 3 13 14 11 27 -2 12 -2 17 2 10 3 -7 13 -9
22 -5 15 5 15 4 0 -12 -20 -20 -23 -36 -7 -36 5 0 7 -4 4 -10 -3 -5 -1 -10 6
-10 6 0 9 8 6 20 -6 23 18 48 26 26 3 -7 0 -19 -6 -25 -8 -8 -7 -11 6 -11 9 0
17 -4 17 -10 0 -5 -4 -10 -10 -10 -5 0 -10 -5 -10 -11 0 -5 5 -7 10 -4 6 3 10
-1 10 -10 0 -11 -5 -15 -15 -11 -8 3 -25 1 -37 -4 l-23 -9 22 0 c12 -1 25 -6
29 -12 4 -8 9 -7 15 2 6 10 9 8 9 -8 0 -20 -4 -22 -32 -17 -31 5 -31 4 7 -12
58 -23 85 -37 82 -40 -2 -2 -31 2 -65 8 -66 12 -83 8 -62 -17 9 -11 32 -15 79
-15 80 -1 64 -15 -26 -24 -54 -5 -63 -3 -63 11 0 15 -2 15 -19 -1 -11 -10 -22
-13 -25 -8 -3 6 -1 13 4 15 6 3 5 4 -2 3 -7 -2 -25 4 -40 12 -26 15 -29 15
-53 -8 -14 -13 -25 -28 -25 -33 0 -5 -10 -17 -22 -27 l-22 -17 19 -62 c10 -34
15 -64 12 -67 -3 -4 -31 -8 -61 -9 -34 -2 -62 -10 -72 -19 -8 -9 -25 -16 -37
-16 -19 0 -17 3 11 20 18 11 39 20 47 20 21 0 27 17 9 24 -22 8 -26 8 -19 -4
3 -6 2 -10 -3 -10 -6 0 -12 7 -16 15 -3 8 -10 15 -15 15 -6 0 -8 -8 -4 -17 6
-16 4 -16 -15 1 -18 15 -24 16 -37 6 -9 -8 -15 -8 -15 -2 0 6 9 14 20 17 11 3
20 11 20 17 0 7 -4 7 -13 -1 -19 -15 -130 -21 -117 -6 5 7 7 15 3 18 -3 4 -3
7 2 7 4 0 14 -8 22 -17 13 -16 13 -16 4 4 -7 14 -8 24 -1 28 5 3 10 1 10 -4 0
-6 5 -11 10 -11 6 0 5 8 -2 20 -7 11 -14 16 -16 10 -2 -5 -12 -10 -22 -10 -22
0 -50 -30 -29 -30 11 -1 11 -2 -1 -9 -29 -16 -63 -24 -56 -12 4 6 16 11 27 11
11 0 17 5 14 10 -4 6 -16 8 -27 4 -17 -5 -20 -3 -15 11 4 9 7 19 7 21 0 2 7 4
16 4 8 0 12 -4 9 -10 -3 -5 -1 -10 4 -10 6 0 11 5 11 10 0 6 8 10 18 11 11 1
8 4 -8 8 -26 8 -48 7 -90 -4 -19 -5 -22 -4 -10 4 8 6 10 11 4 11 -5 0 -14 -4
-20 -9 -13 -12 -84 -22 -84 -11 0 4 6 11 13 14 6 4 -3 4 -20 1 -21 -3 -33 0
-33 7 0 6 -3 9 -6 5 -4 -3 -3 -14 1 -24 15 -33 14 -48 -3 -67 -16 -18 -16 -18
6 -7 12 6 22 16 22 21 0 6 5 10 11 10 5 0 8 -4 5 -9 -4 -5 -1 -11 5 -13 6 -2
3 -10 -8 -20 -17 -16 -21 -16 -53 0 -30 15 -32 17 -14 20 16 2 21 10 20 28 -1
20 -5 24 -21 20 -11 -3 -28 -6 -37 -6 -23 0 -23 -29 0 -47 15 -13 15 -13 -5
-4 -15 8 -30 8 -49 1 -24 -9 -25 -9 -14 5 10 13 9 15 -9 15 -11 0 -21 5 -21
10 0 13 33 13 47 -1 8 -8 13 -8 17 0 4 6 2 11 -4 11 -6 0 -8 4 -5 10 3 6 15
10 26 10 11 0 17 5 14 10 -3 5 -2 10 4 10 5 0 11 -5 13 -12 3 -8 9 -8 24 0 10
6 15 12 9 13 -5 1 -14 2 -20 4 -5 1 -17 3 -27 3 -10 1 -14 8 -11 20 3 13 14
18 41 18 20 1 58 4 83 8 30 5 49 4 53 -3 4 -7 15 -7 30 -1 13 5 26 6 29 3 3
-3 11 -2 17 2 8 5 1 13 -18 22 -20 10 -29 20 -25 29 5 13 8 13 27 -1 11 -9 29
-18 39 -22 14 -4 15 -8 5 -21 -11 -13 -9 -15 15 -10 15 3 27 1 27 -3 0 -5 8
-9 18 -9 10 0 13 3 6 8 -6 4 -13 13 -16 21 -4 13 -21 20 -55 23 -7 1 -13 7
-13 14 0 15 -31 34 -55 34 -12 0 -15 -5 -11 -16 11 -30 -5 -35 -41 -14 -21 12
-39 17 -42 12 -3 -5 -15 -11 -26 -13 -11 -3 -21 -13 -23 -24 -2 -13 0 -16 5
-8 14 20 56 24 97 9 21 -7 34 -16 29 -19 -6 -4 -24 -1 -41 5 -24 10 -36 9 -56
-1 -15 -9 -41 -12 -65 -8 -23 3 -44 1 -47 -4 -3 -5 -10 -9 -15 -9 -6 0 -7 5
-4 10 3 6 1 10 -4 10 -6 0 -11 -4 -11 -8 0 -10 -36 -9 -46 1 -4 4 4 7 19 7 14
0 29 5 33 11 3 6 22 9 40 7 23 -3 34 0 34 9 0 7 5 13 10 13 6 0 10 9 10 20 0
25 -12 25 -35 0 -10 -11 -22 -20 -27 -20 -5 0 -2 7 6 16 21 21 20 27 -2 15
-11 -6 -24 -6 -33 0 -7 5 -9 9 -4 10 6 1 15 2 20 4 6 1 20 3 33 3 13 1 20 7
17 12 -3 6 -2 10 4 10 5 0 13 -5 16 -11 4 -6 13 -8 21 -5 15 6 19 -4 6 -19 -4
-6 -3 -7 2 -3 6 5 29 8 52 8 24 0 45 4 48 9 3 4 -11 8 -32 7 -29 -1 -37 3 -36
16 1 14 -2 16 -17 7 -11 -5 -24 -7 -29 -4 -23 14 -7 22 48 23 43 1 53 -1 40
-9 -28 -16 -21 -29 12 -23 17 4 36 1 44 -5 9 -7 17 -8 20 -2 3 5 0 12 -6 15
-7 3 0 4 15 2 17 -2 26 1 24 8 -2 6 -17 11 -33 11 -16 1 -35 4 -41 8 -17 11
-108 18 -218 19 -66 0 -84 2 -66 9 13 5 33 9 45 8 11 -1 58 -1 104 -1 80 2 83
3 81 25 -4 29 21 85 41 91 8 2 4 4 -10 5 -14 0 -32 -4 -40 -9 -11 -7 -11 -10
-2 -10 7 0 10 -5 7 -11 -4 -6 -12 -8 -19 -6 -7 3 -23 -4 -37 -14 -13 -10 -19
-19 -13 -19 5 0 15 5 22 12 8 8 15 9 23 1 7 -7 -1 -17 -27 -32 -20 -12 -39
-19 -42 -16 -3 3 0 5 6 5 7 0 12 5 12 11 0 5 -4 7 -10 4 -5 -3 -18 -1 -27 4
-17 10 -16 11 4 17 15 4 20 11 16 22 -5 11 -2 14 10 9 9 -3 17 -2 17 3 0 16
-30 11 -36 -5 -4 -8 -10 -12 -15 -9 -5 3 -7 10 -4 15 4 5 -1 9 -9 9 -10 0 -13
6 -9 18 6 16 5 16 -14 0 -23 -21 -40 -24 -24 -5 6 8 8 17 4 20 -3 4 3 7 15 7
11 0 25 -8 31 -17 8 -15 12 -16 22 -5 10 9 10 12 1 12 -7 0 -12 5 -12 10 0 6
11 8 25 4 15 -4 25 -2 25 5 0 6 7 11 15 11 19 0 19 -14 0 -30 -24 -20 -12 -22
34 -5 29 10 62 13 111 9 56 -5 70 -3 70 8 0 10 -10 13 -38 10 -30 -3 -45 2
-76 27 -45 36 -53 37 -78 14 -17 -15 -20 -15 -41 4 -12 11 -31 24 -42 28 -19
7 -18 8 5 14 28 8 22 13 -35 28 -87 24 -141 35 -172 35 -18 0 -33 4 -33 10 0
10 96 6 158 -7 21 -5 38 -3 47 5 14 12 13 16 -5 35 l-21 22 21 6 c12 3 36 -1
53 -9 l32 -15 -32 6 c-19 4 -33 2 -33 -3 0 -13 61 -22 82 -11 12 6 25 2 46
-15 28 -24 29 -24 42 -6 10 14 17 16 27 8 10 -8 13 -6 13 6 0 10 4 15 9 12 5
-3 12 1 15 10 8 21 7 31 -2 18 -4 -6 -17 -14 -30 -18 -17 -6 -24 -3 -30 13 -6
17 -9 18 -26 5 -13 -9 -15 -14 -6 -14 11 0 12 -2 1 -13 -10 -10 -14 -8 -22 6
-7 12 -17 16 -30 12 -27 -9 -24 8 4 20 41 19 27 40 -33 46 -30 3 -59 4 -65 1
-5 -3 -44 -7 -87 -8 -43 0 -81 -4 -85 -8 -3 -3 -15 -6 -26 -6 -15 0 -18 -5
-15 -25 6 -28 4 -29 -22 -15 -13 7 -21 7 -25 0 -3 -5 -1 -10 4 -10 6 0 11 -10
11 -22 0 -22 -1 -22 -23 6 -19 23 -29 28 -49 23 -15 -4 -28 -3 -30 3 -2 5 -19
12 -38 14 -19 3 -37 5 -40 5 -3 1 2 6 10 11 13 8 12 10 -2 10 -10 0 -18 -4
-18 -10 0 -5 -7 -10 -16 -10 -8 0 -13 3 -11 8 3 4 -22 8 -54 8 -50 2 -58 0
-48 -12 7 -8 9 -17 5 -21 -9 -9 -15 0 -18 28 -4 29 -17 40 -41 33 -31 -10 -77
6 -77 27 0 15 5 17 32 12 22 -4 29 -3 24 5 -4 7 -16 12 -27 12 -10 0 -19 4
-19 9 0 12 29 41 41 41 15 0 10 -18 -7 -28 -15 -8 -15 -10 0 -15 9 -4 19 1 24
10 7 11 11 12 17 4 4 -7 5 -15 1 -18 -3 -3 2 -12 10 -20 8 -9 18 -13 21 -9 4
3 3 6 -2 6 -4 0 -2 7 5 15 13 16 6 35 -15 35 -8 0 -16 4 -19 9 -3 5 19 9 49
10 64 0 97 14 88 37 -4 12 0 14 21 8 22 -5 33 1 67 36 34 35 37 41 17 35 -12
-5 -29 -16 -36 -26 -19 -28 -49 -23 -66 10 -18 35 -46 48 -46 23 0 -19 -18
-42 -34 -42 -5 0 -1 10 10 21 19 21 19 22 -3 15 -14 -5 -23 -3 -23 3 0 6 9 11
20 11 11 0 20 5 20 10 0 13 -4 13 -47 -5 -47 -20 -74 -20 -67 0 5 11 -1 15
-24 15 -17 0 -36 2 -44 3 -7 2 -10 2 -5 0 4 -3 7 -10 7 -16 1 -12 64 -57 80
-57 4 0 10 7 14 15 9 25 23 17 23 -13 0 -26 -3 -28 -51 -30 -28 -1 -64 3 -80
10 -26 10 -31 9 -50 -13 -12 -14 -27 -24 -34 -21 -7 2 -12 -1 -12 -6 0 -5 11
-13 25 -16 28 -7 34 -26 8 -26 -27 0 -93 33 -93 46 0 22 -31 33 -62 22 -20 -7
-33 -7 -42 1 -14 12 -91 1 -154 -22 -32 -11 -35 -10 -56 16 -12 15 -28 27 -36
27 -12 0 -13 -2 -1 -9 9 -6 10 -11 2 -15 -20 -13 -12 -26 16 -26 17 0 40 -12
62 -32 18 -18 31 -28 27 -21 -4 8 7 11 39 10 39 -2 43 -4 28 -15 -9 -6 -25 -9
-36 -6 -16 5 -17 3 -7 -16 13 -25 42 -38 48 -22 2 7 10 12 18 12 8 0 11 6 8
15 -4 8 -1 22 6 30 14 17 40 20 40 5 0 -5 -7 -10 -16 -10 -8 0 -12 -4 -9 -10
4 -6 15 -4 29 5 22 15 24 14 29 -5 3 -11 11 -20 17 -20 7 0 10 7 6 15 -3 8 3
19 14 25 27 14 38 12 43 -7 4 -17 5 -17 6 0 0 9 8 17 16 17 8 0 12 -6 9 -14
-3 -8 -1 -17 5 -21 6 -3 11 -1 11 6 0 7 11 10 30 7 22 -3 31 0 36 14 3 10 10
18 15 18 12 0 5 -12 -30 -57 l-25 -32 -27 20 c-26 18 -30 18 -61 4 -29 -13
-30 -15 -6 -10 42 8 43 -13 1 -24 -50 -14 -53 -14 -47 4 10 24 -39 40 -75 25
-30 -12 -35 -35 -6 -23 8 3 15 0 15 -7 0 -9 -11 -11 -34 -7 -26 4 -39 1 -52
-14 -21 -24 -16 -29 29 -31 22 -1 38 -7 42 -16 4 -12 3 -13 -10 -2 -22 18 -20
-8 4 -39 19 -25 41 -22 41 6 0 9 3 13 7 10 3 -4 12 -2 20 5 21 17 38 -4 24
-31 -8 -15 -21 -21 -43 -21 -40 0 -25 -20 17 -23 19 -1 40 -14 59 -35 25 -28
31 -31 38 -18 5 9 20 16 33 16 28 0 42 17 26 33 -8 8 -20 4 -43 -13 l-33 -24
16 24 c12 18 29 27 58 31 39 5 60 -6 24 -13 -15 -3 -15 -4 0 -20 16 -16 16
-17 -5 -24 -13 -4 -31 -8 -40 -9 -22 -2 -34 -13 -25 -21 4 -4 12 -2 20 4 7 6
18 7 26 3 17 -11 68 3 92 25 16 14 19 14 41 -8 13 -13 22 -26 21 -30 -5 -15
18 -8 23 7 4 8 13 15 21 15 10 0 13 6 9 18 -6 16 -5 16 8 0 16 -22 56 -24 56
-3 0 8 5 15 11 15 6 0 8 -7 5 -16 -3 -9 -6 -18 -6 -20 0 -2 -21 -4 -46 -4 -38
0 -47 -4 -51 -20 -4 -14 -11 -19 -23 -15 -14 4 -23 -5 -40 -40 -12 -25 -29
-45 -38 -45 -9 0 3 -17 32 -44 32 -29 54 -42 67 -39 11 3 19 0 19 -7 0 -9 11
-11 35 -7 19 3 35 2 35 -4 0 -5 -13 -9 -29 -9 -17 0 -33 -5 -37 -12 -5 -8 0
-9 15 -5 15 4 24 -1 32 -15 6 -11 8 -22 5 -25 -10 -10 15 -32 29 -26 12 4 12
7 0 20 -8 8 -15 20 -15 26 0 8 4 7 12 -1 7 -7 18 -12 26 -12 19 0 42 -25 42
-46 0 -14 2 -15 16 -3 15 12 16 11 9 -10 -5 -15 -4 -21 3 -17 6 3 13 2 16 -3
3 -5 -8 -11 -25 -13 -22 -3 -29 -1 -25 9 3 7 -1 13 -9 13 -8 0 -15 -4 -15 -8
0 -17 25 -32 53 -32 15 0 26 -4 22 -10 -3 -5 -13 -6 -22 -3 -12 5 -10 -2 7
-25 23 -31 40 -34 40 -6 0 8 -6 14 -12 14 -9 0 -9 3 -2 8 11 7 12 51 1 69 -6
9 8 10 48 4 6 -1 1 -8 -9 -16 -11 -8 -15 -15 -10 -15 6 0 15 5 22 12 9 9 17 9
35 -1 13 -7 39 -11 58 -8 l34 4 -37 1 c-21 1 -38 6 -38 11 0 5 -10 13 -22 17
-22 7 -22 8 6 15 16 5 33 6 38 3 17 -11 68 7 68 24 0 13 2 14 13 3 10 -10 8
-15 -7 -27 -11 -8 -26 -14 -33 -14 -7 0 -13 -4 -13 -10 0 -12 2 -12 34 0 18 6
26 6 26 -1 0 -6 5 -7 11 -3 8 4 7 9 -2 15 -11 6 -5 16 23 42 21 19 39 32 42
30 2 -3 15 1 28 8 23 12 23 12 4 -10 -25 -27 -3 -28 32 -1 22 18 27 19 40 6
20 -20 7 -36 -29 -36 -26 0 -33 -6 -47 -39 -18 -41 -38 -51 -103 -51 -15 0
-31 -4 -34 -10 -6 -9 22 -14 77 -13 10 0 16 -3 13 -6 -9 -8 -79 -31 -97 -31
-10 0 -18 -4 -18 -10 0 -12 -2 -12 38 -1 17 5 32 6 32 1 0 -5 -8 -11 -17 -13
-17 -4 -17 -5 0 -6 27 -2 20 -17 -17 -35 -37 -17 -86 -21 -86 -7 0 5 9 7 20 4
11 -3 26 0 33 6 8 6 17 7 22 3 4 -4 6 -1 3 7 -2 8 -10 17 -18 19 -7 3 -10 0
-6 -7 5 -7 -1 -11 -15 -11 -22 0 -22 0 -3 15 16 12 16 14 3 15 -9 0 -22 -7
-29 -15 -7 -8 -28 -15 -47 -15 -30 0 -33 -2 -23 -19 13 -25 13 -31 0 -31 -5 0
-10 6 -10 13 0 21 -130 156 -338 352 -204 193 -252 229 -274 206 -11 -11 -9
-13 9 -8 13 3 27 -1 34 -9 10 -12 9 -13 -6 -8 -13 5 -16 4 -11 -4 4 -7 16 -12
26 -12 26 0 298 -254 293 -272 -2 -4 1 -7 5 -5 10 3 72 -49 72 -61 0 -5 9 -13
19 -18 28 -13 161 -161 161 -180 0 -8 5 -12 11 -8 6 3 -1 -12 -16 -34 -15 -22
-33 -43 -41 -46 -8 -3 -14 -11 -14 -17 0 -8 5 -7 17 2 15 12 16 12 10 -3 -3
-10 -4 -18 0 -18 3 0 12 8 19 18 12 16 13 15 11 -6 -1 -21 -6 -23 -34 -20 -18
2 -33 1 -33 -4 0 -4 -7 -5 -15 -2 -8 4 -15 1 -15 -5 0 -6 5 -12 10 -12 6 -1
14 -2 19 -3 5 0 12 -4 16 -8 4 -3 -11 -4 -32 -2 -35 4 -44 0 -92 -43 -29 -26
-61 -47 -72 -48 -23 -2 -55 -43 -51 -66 4 -21 -37 -57 -46 -42 -5 8 -13 7 -27
-4 -20 -15 -20 -15 3 -8 13 4 22 2 22 -4 0 -20 20 -11 77 34 31 24 59 43 60
41 9 -9 -12 -34 -52 -61 -53 -36 -57 -47 -12 -34 17 5 64 7 103 3 53 -4 74 -3
85 7 8 8 30 14 49 15 19 1 73 11 120 23 64 17 98 21 140 16 75 -9 118 -29 130
-59 10 -28 71 -70 130 -91 20 -7 56 -23 80 -35 23 -12 51 -19 61 -17 23 6 24
1 5 -19 -13 -12 -21 -10 -66 16 -65 38 -71 38 -33 -3 38 -41 63 -78 63 -94 0
-26 -19 -12 -30 21 -15 45 -78 102 -129 116 -40 10 -61 31 -93 89 -24 44 -68
43 -120 -5 -22 -19 -43 -33 -46 -29 -4 4 1 11 11 16 21 12 22 29 2 29 -23 0
-65 -30 -65 -47 0 -8 -12 -25 -26 -38 -36 -33 -26 -31 63 11 82 40 141 52 169
35 17 -9 16 -10 -8 -11 -15 0 -30 -4 -33 -10 -3 -5 -15 -10 -25 -10 -29 0
-180 -62 -180 -74 0 -6 -5 -4 -10 4 -8 13 -13 13 -41 -3 -18 -10 -34 -15 -37
-13 -7 8 19 36 33 36 7 0 28 18 45 40 l32 40 -29 0 c-24 0 -20 4 27 26 30 14
71 29 90 34 29 7 30 8 10 9 -14 1 -64 -12 -110 -29 -47 -16 -95 -30 -107 -30
-29 0 -29 -6 2 -46 29 -38 30 -44 11 -44 -7 0 -19 -6 -25 -14 -7 -8 -36 -20
-64 -26 -29 -6 -69 -22 -89 -35 -39 -26 -68 -32 -68 -15 0 6 7 10 16 10 8 0
30 11 47 23 18 13 47 30 64 37 32 12 36 30 7 30 -9 0 -48 16 -87 35 -81 40
-78 39 -71 21 3 -7 -2 -16 -11 -20 -10 -3 -15 -1 -13 7 2 7 -13 27 -33 44
l-35 32 -45 -39 c-47 -42 -65 -50 -55 -24 3 8 2 13 -3 10 -12 -8 -72 14 -66
23 5 10 -47 59 -105 99 -25 17 -59 43 -76 59 -17 15 -48 42 -69 58 -20 17 -47
39 -59 50 -11 11 -38 31 -58 45 -21 14 -38 30 -39 35 0 6 -25 30 -55 55 -29
25 -71 62 -93 82 -45 43 -45 42 42 112 32 25 55 46 52 46 -14 0 -65 -31 -77
-47 -7 -10 -35 -33 -62 -52 l-48 -34 -57 18 c-31 9 -73 26 -93 36 -21 11 -38
15 -38 10 0 -5 26 -19 58 -31 31 -12 67 -26 80 -31 13 -5 43 -9 67 -9 25 0 45
-4 45 -8 0 -4 25 -33 56 -65 66 -67 60 -76 -8 -13 -50 46 -84 61 -95 44 -3 -7
-1 -8 5 -4 7 4 12 3 12 -3 0 -19 -21 -23 -39 -7 -22 20 -30 20 -52 0 -16 -14
-21 -14 -55 10 -21 14 -40 23 -42 21 -6 -6 47 -77 65 -88 21 -13 15 -26 -9
-19 -14 3 -19 2 -14 -6 10 -17 -24 -15 -43 2 -13 12 -26 12 -68 4 -29 -6 -53
-14 -53 -19 0 -5 -6 -6 -14 -3 -24 9 -56 -15 -56 -41 0 -13 -4 -25 -9 -27 -5
-1 -3 -12 5 -23 14 -19 15 -19 12 4 -2 13 3 26 10 28 8 3 10 -1 5 -14 -4 -12
2 -9 21 10 14 16 23 33 20 39 -4 7 -2 8 5 4 6 -4 8 -12 5 -18 -4 -6 -3 -9 2
-6 19 12 114 18 114 8 0 -5 -4 -10 -8 -10 -5 0 -60 -33 -124 -74 -63 -41 -151
-95 -194 -122 -43 -26 -98 -63 -121 -81 l-41 -34 -59 32 c-32 17 -66 38 -76
47 -9 8 -20 13 -23 10 -3 -4 15 -20 41 -38 48 -33 57 -55 11 -25 -14 10 -26
13 -26 7 0 -5 17 -18 37 -27 32 -15 35 -19 18 -25 -13 -5 -15 -9 -6 -14 6 -4
19 -2 27 5 14 12 14 14 -1 25 -23 17 -5 25 24 10 l23 -13 -39 -31 c-36 -28
-40 -29 -51 -14 -10 14 -11 13 -2 -5 8 -18 6 -25 -12 -37 -12 -9 -19 -19 -15
-23 4 -3 20 5 35 19 15 13 56 45 93 70 36 26 71 54 79 63 8 9 38 28 66 40 29
13 99 51 157 84 67 40 115 61 135 61 89 0 290 -46 327 -75 19 -15 18 -15 -20
-10 -38 5 -39 4 -14 -7 34 -17 59 -38 59 -50 0 -7 -5 -6 -13 1 -8 6 -31 18
-53 27 -38 16 -39 16 -21 -3 9 -11 17 -23 17 -28 0 -4 -8 -1 -17 7 -24 20 -93
61 -93 55 0 -3 25 -22 55 -42 31 -20 53 -40 50 -45 -6 -9 -116 42 -154 71 -13
11 -32 17 -41 14 -10 -3 -36 1 -59 9 -80 27 -40 -2 47 -34 112 -42 171 -72
257 -130 92 -63 110 -82 96 -109 -15 -28 -14 -34 6 -22 9 5 26 5 38 1 30 -11
145 -87 159 -104 6 -7 25 -17 41 -21 l30 -8 -27 -6 c-25 -5 -175 -146 -308
-288 -61 -65 -5 -18 100 84 77 75 137 112 154 95 11 -10 6 -53 -4 -47 -6 4 -8
10 -5 15 14 22 -15 16 -37 -8 -54 -59 -79 -119 -43 -106 8 4 15 12 15 19 0 7
7 18 15 25 13 11 25 9 66 -11 28 -13 62 -36 75 -52 14 -16 41 -40 61 -54 l35
-24 -6 28 c-6 22 -5 25 5 16 6 -7 12 -38 12 -70 0 -38 3 -51 8 -38 11 28 11
97 -1 115 -5 9 -5 19 1 27 6 7 8 17 4 23 -3 5 -1 10 5 10 6 0 9 4 6 9 -3 5
-15 7 -26 4 -11 -3 -20 -1 -20 5 0 8 31 21 53 22 4 0 7 -9 7 -20 0 -12 7 -20
18 -20 15 0 15 -2 2 -10 -13 -9 -13 -12 4 -25 10 -7 16 -20 13 -27 -2 -7 2
-20 10 -29 12 -14 12 -19 -1 -32 -14 -13 -14 -16 0 -21 16 -6 17 -4 32 64 15
70 14 4 -2 -115 -13 -92 -13 -101 3 -118 21 -21 74 -25 96 -7 8 7 15 24 15 39
1 14 9 44 20 66 11 22 19 45 20 51 0 19 47 55 110 85 48 22 164 13 203 -16
120 -88 124 -87 161 3 16 37 34 102 41 145 11 69 17 83 50 117 42 43 115 72
161 64 48 -8 64 -34 75 -115 7 -47 16 -79 27 -87 14 -11 13 -12 -6 -12 -12 0
-22 -2 -22 -4 0 -2 -5 -27 -10 -56 -12 -62 -6 -88 18 -86 11 1 20 -10 27 -31
6 -23 15 -33 29 -33 10 0 81 36 156 80 75 44 142 80 148 80 7 0 12 4 12 9 0
11 -52 1 -70 -14 -8 -7 -46 -18 -85 -24 -38 -6 -82 -14 -97 -17 -21 -4 -28 -2
-28 9 0 9 6 17 13 20 8 3 5 7 -7 13 -14 5 -24 1 -37 -14 -9 -12 -24 -22 -33
-22 -9 0 -13 -6 -10 -14 3 -8 1 -17 -5 -21 -16 -9 -24 20 -12 43 6 11 22 23
36 26 20 5 25 11 20 26 -8 25 -4 25 55 -5 40 -20 50 -22 50 -10 0 8 4 15 9 15
11 0 8 61 -4 80 -5 8 -3 11 6 8 8 -3 23 -27 34 -54 10 -27 20 -50 21 -52 5 -8
54 12 53 22 -3 24 1 36 12 33 19 -4 20 44 3 71 -15 23 -15 25 1 19 9 -4 15 -4
13 0 -17 39 -60 113 -67 117 -5 4 -19 26 -31 51 -12 24 -34 55 -50 69 -16 13
-26 27 -22 30 3 4 31 -19 62 -51 31 -32 77 -72 102 -90 l46 -32 57 14 c31 8
71 15 90 15 26 0 46 10 85 45 28 25 63 53 78 62 40 25 62 55 62 86 0 45 27 91
81 141 46 42 60 66 40 66 -8 0 3 62 22 115 6 17 33 54 61 83 44 46 51 51 65
38 9 -8 28 -19 44 -25 15 -6 27 -15 27 -20 0 -12 -95 -102 -124 -118 -32 -17
-76 -77 -67 -91 5 -9 31 -2 92 23 146 62 202 89 252 123 57 37 101 41 162 13
40 -18 95 -66 95 -83 0 -5 29 -43 64 -86 90 -109 150 -207 169 -277 21 -76 56
-174 57 -157 0 28 17 9 17 -20 2 -69 5 -94 15 -133 12 -46 11 -260 -1 -284 -5
-9 -11 -38 -15 -66 -9 -83 -18 -125 -26 -120 -9 6 -3 -62 10 -113 5 -17 7 -32
5 -32 -1 0 -27 48 -56 106 -30 58 -75 130 -102 159 -54 62 -198 175 -266 212
-25 13 -71 43 -101 67 -60 47 -139 91 -147 82 -3 -3 3 -9 13 -13 10 -4 44 -24
74 -46 30 -21 107 -73 170 -114 227 -150 264 -188 351 -366 43 -88 49 -108 49
-164 0 -55 -4 -71 -30 -109 -17 -24 -35 -44 -40 -44 -5 0 -25 -15 -44 -33 -19
-17 -47 -40 -62 -51 -14 -10 -33 -35 -42 -55 -14 -31 -17 -33 -20 -14 -2 12
-10 27 -18 33 -8 7 -14 18 -14 26 0 7 -9 16 -20 19 -13 4 -20 15 -20 31 0 24
-51 186 -57 181 -3 -3 13 -75 52 -234 15 -59 12 -93 -6 -93 -9 0 -14 28 -11
63 1 9 -3 17 -9 17 -6 0 -9 9 -6 20 3 11 1 18 -4 14 -5 -3 -9 0 -9 5 0 6 -6
10 -12 9 -8 -2 -12 6 -10 20 2 14 -2 22 -12 22 -8 0 -18 9 -21 20 -3 11 -13
20 -21 20 -17 0 -18 -12 -2 -28 7 -7 8 -12 2 -12 -19 0 -36 50 -23 66 8 10 8
14 0 14 -6 0 -11 -6 -11 -12 0 -7 -11 -1 -24 15 l-23 27 0 -25 c0 -13 2 -23 6
-21 4 3 7 -4 7 -15 0 -19 -28 -35 -45 -24 -5 3 -12 1 -16 -5 -3 -5 3 -10 14
-10 25 0 26 -8 6 -34 -13 -17 -15 -18 -15 -3 0 9 -6 17 -12 17 -18 0 -19 -48
-1 -54 23 -9 -2 -45 -27 -39 -11 3 -20 1 -20 -5 0 -6 8 -13 18 -15 14 -4 14
-6 -5 -12 -13 -4 -23 -12 -23 -18 0 -5 -9 -2 -21 9 -12 10 -22 18 -23 16 0 -2
-12 1 -26 6 -20 8 -31 26 -50 78 -29 83 -100 230 -145 299 -18 28 -44 73 -57
101 -20 40 -132 201 -155 224 -16 15 35 -72 67 -115 21 -27 61 -93 90 -145
181 -327 192 -356 219 -570 21 -159 21 -165 3 -182 -27 -27 -55 -13 -50 23 3
16 0 30 -6 32 -5 2 -11 30 -13 63 -3 51 -7 62 -35 85 -17 15 -28 31 -24 37 3
5 -1 13 -10 16 -8 3 -14 14 -12 23 1 10 -6 31 -17 47 -17 26 -17 30 -3 40 14
10 14 14 -3 34 -14 18 -17 33 -12 74 5 42 3 53 -12 64 -13 9 -16 20 -11 40 8
29 -28 94 -51 94 -18 0 -16 -7 7 -32 22 -24 18 -38 -10 -33 -21 4 -38 -13 -24
-24 21 -14 44 -60 34 -66 -6 -4 -8 -21 -4 -42 6 -34 6 -35 -16 -23 -19 10 -21
10 -17 -7 6 -19 11 -74 7 -83 -7 -19 -6 -57 3 -68 7 -9 4 -19 -9 -34 -14 -15
-16 -22 -6 -25 6 -3 11 -17 11 -31 -1 -17 -3 -21 -6 -9 -9 34 -21 16 -27 -43
-4 -33 -11 -60 -16 -60 -4 0 -11 -13 -15 -30 -4 -16 -13 -33 -20 -37 -7 -5
-15 -19 -17 -33 -2 -17 -8 -24 -20 -22 -12 2 -15 -3 -11 -16 3 -14 -2 -21 -19
-26 -23 -6 -23 -6 -3 -22 19 -16 19 -16 -8 -11 -20 3 -27 1 -23 -8 5 -14 -12
-35 -28 -35 -6 0 -5 5 2 12 17 17 15 29 -3 21 -9 -3 -15 -2 -14 3 4 22 -2 33
-16 28 -11 -4 -15 1 -15 17 0 22 0 22 -14 4 -10 -14 -11 -25 -4 -39 7 -12 7
-16 0 -12 -12 7 -25 -25 -17 -45 5 -15 -11 -47 -20 -38 -3 3 4 59 15 125 22
124 29 359 11 377 -5 5 -7 -37 -6 -100 3 -117 -13 -247 -45 -382 -30 -123 -40
-152 -51 -145 -5 3 -7 10 -4 15 3 5 0 6 -8 3 -17 -6 -34 15 -21 25 5 3 10 20
10 36 1 17 5 72 9 123 4 63 3 92 -4 92 -6 0 -11 -5 -11 -11 0 -5 -4 -8 -9 -5
-5 3 -7 16 -3 29 5 19 3 20 -10 9 -14 -11 -19 -9 -32 10 -20 28 -20 42 -1 34
8 -3 15 -1 15 4 0 6 -20 9 -45 8 -47 -3 -64 -18 -19 -18 14 0 23 -4 20 -9 -7
-11 -24 -9 -54 7 -12 7 -20 17 -17 23 4 5 -4 9 -16 9 -22 0 -22 0 -3 23 l18
22 -23 -22 c-22 -20 -23 -23 -8 -37 8 -9 20 -16 26 -16 6 0 11 -4 11 -10 0
-18 -18 -10 -43 19 -13 16 -35 31 -48 33 -14 2 -25 11 -27 23 -8 41 -20 36
-16 -6 3 -24 10 -48 15 -53 5 -6 9 -17 9 -25 -1 -25 -17 7 -38 76 -10 32 -45
98 -76 146 -66 100 -88 113 -26 16 47 -75 80 -144 80 -167 0 -15 -2 -15 -10
-2 -6 9 -10 10 -10 3 0 -7 6 -16 14 -20 21 -12 41 -82 27 -96 -6 -6 -11 -15
-11 -21 0 -5 6 -1 14 9 13 18 16 15 43 -40 30 -59 30 -60 14 -99 -16 -38 -18
-39 -32 -20 -8 10 -21 19 -29 19 -10 0 -16 12 -18 38 -2 20 -7 37 -13 37 -5 0
-9 -5 -9 -11 0 -5 -4 -7 -10 -4 -15 9 -12 -11 4 -24 15 -13 30 -60 22 -69 -3
-3 -10 6 -15 19 -10 24 -10 24 -10 2 -1 -29 -36 -31 -44 -3 -3 11 -10 20 -16
20 -7 0 -9 -10 -5 -25 5 -21 3 -25 -15 -25 -13 0 -21 -7 -22 -17 -1 -12 -4
-10 -9 7 -5 17 -8 19 -9 8 -1 -22 -21 -24 -21 -3 0 13 -17 20 -41 17 -4 -1
-24 -2 -45 -3 -53 -3 -116 -28 -107 -43 3 -6 3 -8 -2 -4 -4 4 -23 -2 -42 -13
-18 -11 -33 -17 -33 -12 1 13 168 119 242 153 37 17 72 37 78 45 23 28 -28
393 -65 466 -25 47 -17 46 25 -1 l41 -45 -28 45 c-60 96 -120 175 -137 178
-14 3 -12 -3 10 -27 50 -56 105 -258 134 -493 12 -95 9 -125 -12 -112 -6 4 -8
2 -5 -3 4 -6 -21 -24 -56 -41 -34 -17 -120 -67 -191 -112 -72 -44 -135 -80
-140 -79 -6 0 -1 5 10 11 12 5 30 28 39 49 10 21 22 36 26 33 5 -3 9 0 9 5 0
17 -16 13 -47 -13 -27 -22 -33 -26 -50 -26 -5 0 0 -5 10 -11 21 -13 13 -29
-15 -29 -16 0 -18 -3 -9 -14 9 -11 -1 -13 -60 -11 l-72 1 -29 57 c-15 31 -33
57 -38 57 -13 0 -13 -17 0 -25 6 -3 10 -14 10 -25 0 -13 -5 -17 -21 -13 -11 3
-24 13 -27 22 -4 9 -25 40 -46 69 -38 53 -44 55 -87 38 -12 -5 -18 -1 -22 15
-5 19 -11 21 -41 16 -20 -3 -38 -2 -41 4 -3 5 1 6 10 2 15 -5 15 -3 4 16 -16
24 -31 29 -23 6 4 -8 1 -15 -6 -15 -6 0 -9 -4 -5 -9 3 -5 0 -13 -6 -17 -8 -4
-9 -3 -5 4 4 7 1 12 -8 12 -9 0 -18 11 -22 25 -7 27 -24 34 -24 10 0 -13 -9
-15 -40 -11 -30 3 -40 1 -40 -10 0 -12 -4 -12 -20 -4 -12 6 -29 8 -39 5 -15
-5 -21 1 -26 24 -8 36 -23 49 -31 27 -6 -15 -16 -9 -59 31 -7 7 -15 10 -18 7
-3 -3 -17 2 -31 11 -14 10 -26 13 -26 8 0 -19 -46 -2 -55 20 -6 12 -19 23 -30
23 -11 1 -27 2 -35 3 -8 1 -21 15 -29 32 -12 28 -12 34 6 57 15 20 30 28 62
30 22 1 41 -1 41 -6 0 -5 20 -9 45 -8 83 2 44 31 -52 39 -57 4 -64 2 -86 -22
-14 -14 -39 -56 -57 -93 -29 -64 -34 -68 -64 -68 -32 0 -33 1 -31 38 2 20 6
44 10 53 3 10 2 20 -4 24 -20 12 -11 32 19 45 16 7 30 16 30 21 0 5 12 15 28
21 26 11 25 12 -28 20 -30 4 -70 9 -88 11 -34 2 -56 23 -44 42 3 5 -2 3 -12
-5 -20 -16 -49 -23 -41 -9 4 5 -1 6 -9 3 -9 -3 -32 3 -51 15 -29 17 -35 18
-35 5 0 -8 4 -13 9 -9 5 3 13 0 16 -5 4 -6 18 -16 32 -21 28 -10 24 -22 -7
-24 -11 -1 -20 4 -20 11 0 7 -12 11 -30 10 -36 -3 -49 -14 -30 -26 13 -8 13
-10 -1 -10 -22 0 -49 32 -31 37 6 3 10 9 6 14 -3 5 5 9 17 9 12 0 20 3 16 6
-12 13 -58 -7 -67 -29 -8 -21 -9 -21 -9 6 -1 16 -7 27 -15 27 -18 0 -68 48
-61 59 3 5 1 13 -5 16 -6 4 -9 3 -8 -2 2 -4 -1 -9 -7 -10 -5 -1 -9 6 -7 17 2
15 -2 17 -20 13 -13 -3 -29 -13 -37 -22 -11 -14 -12 -13 -6 8 10 33 90 154
171 258 38 48 81 104 95 123 15 19 75 87 135 150 60 63 96 104 79 90 -111 -93
-325 -340 -432 -498 -48 -72 -79 -109 -83 -102 -5 9 -13 9 -25 3 -21 -12 -70
9 -79 34 -4 9 -9 13 -13 9 -8 -7 -37 53 -34 71 1 6 -14 17 -34 23 -21 7 -35
18 -35 28 0 15 -2 15 -10 2 -9 -13 -12 -13 -24 3 -8 11 -20 15 -31 11 -15 -6
-16 -4 -6 14 10 18 9 22 -4 22 -9 0 -26 7 -39 15 -22 15 -24 14 -40 -11 -29
-44 -29 -19 -1 33 l27 48 -35 -40 c-21 -23 -36 -34 -37 -25 0 11 -3 11 -12 2
-7 -7 -15 -12 -19 -12 -13 0 -18 43 -7 64 10 20 9 19 -14 -2 -21 -19 -26 -20
-31 -8 -8 21 4 89 17 98 6 4 0 11 -14 17 -42 16 -61 49 -61 103 0 10 -4 18 -9
18 -9 0 -25 -39 -22 -52 1 -5 -3 -8 -8 -8 -6 0 -10 3 -10 8 0 10 43 135 78
225 17 42 26 75 22 72 -5 -3 -18 -29 -29 -58 -51 -135 -98 -232 -112 -232 -7
0 -13 7 -11 15 3 11 -2 10 -17 -4 -11 -10 -18 -23 -15 -27 6 -11 -10 -12 -19
-2 -4 3 3 17 15 30 17 18 18 22 6 18 -14 -5 -16 -2 -13 15 3 15 -5 26 -28 40
-18 11 -32 25 -32 32 0 6 -7 13 -15 15 -13 4 -13 3 0 -6 28 -20 -5 -10 -50 15
-27 15 -35 22 -20 19 17 -4 10 2 -19 19 -47 29 -66 34 -35 11 30 -22 6 -18
-27 6 -16 11 -27 25 -24 30 4 5 2 9 -2 9 -5 0 -18 7 -29 16 -10 8 24 -7 76
-34 52 -27 95 -55 95 -62 0 -8 7 -15 15 -17 13 -4 13 -3 0 6 -19 13 -9 14 24
1 14 -5 26 -16 26 -24 0 -9 9 -13 25 -12 14 0 25 2 25 3 0 1 -34 21 -75 44
-41 22 -73 45 -70 49 3 5 -4 14 -16 20 -15 8 -19 9 -15 1 11 -17 2 -14 -69 25
-65 36 -93 59 -34 29 17 -9 33 -14 36 -11 3 2 -12 14 -34 25 -21 11 -34 20
-30 21 5 0 17 -5 29 -11 11 -6 22 -8 25 -6 3 3 -8 12 -24 21 -37 20 -21 20 19
0 21 -11 27 -18 19 -24 -9 -5 -8 -9 4 -14 23 -9 27 -8 19 5 -4 7 2 7 17 -1 34
-18 38 -24 10 -15 -17 5 -21 4 -16 -5 5 -9 1 -10 -16 -5 -28 9 -24 3 10 -15
15 -8 21 -8 17 -1 -10 15 0 14 36 -5 16 -9 27 -11 24 -5 -10 16 0 14 44 -9 22
-11 40 -19 40 -16 0 2 -56 35 -125 73 -68 37 -125 71 -125 75 0 4 8 4 18 1 15
-6 15 -5 3 10 -22 27 13 33 51 8 39 -24 30 -28 -13 -5 -17 8 -33 13 -36 10 -5
-4 69 -46 82 -46 3 0 3 5 -1 12 -5 8 -2 9 9 5 30 -11 18 1 -25 27 -24 14 -37
26 -30 26 7 0 10 4 7 10 -3 5 -11 10 -16 10 -6 0 -7 -4 -4 -10 3 -5 1 -10 -4
-10 -15 0 -14 5 9 49 10 21 16 42 12 45 -3 4 2 4 12 0 11 -4 14 -9 7 -13 -6
-4 3 -15 22 -25 l32 -18 -25 21 c-27 22 -21 28 11 11 34 -19 20 -3 -18 20 -33
19 -35 23 -19 32 9 5 20 7 23 4 4 -3 1 -6 -6 -6 -7 0 -9 -4 -6 -10 3 -5 11
-10 16 -10 6 0 7 5 3 12 -5 8 -1 9 12 5 18 -7 18 -7 0 8 -11 8 -23 15 -28 15
-4 0 -8 5 -8 11 0 6 6 9 14 6 10 -4 12 0 9 14 -7 25 -7 25 -32 -13 l-21 -33 0
27 c0 15 6 31 14 35 8 4 16 19 18 33 l5 25 9 -23 10 -24 13 28 c10 24 10 26
-2 15 -21 -17 -32 16 -12 35 8 9 15 20 15 25 0 6 5 7 10 4 8 -5 15 31 11 58 0
4 3 7 7 7 5 0 9 6 9 13 0 11 51 91 142 225 53 78 68 104 81 140 6 18 27 58 46
89 19 31 34 66 34 77 -1 17 -4 16 -17 -9 -29 -55 -106 -168 -220 -323 -62 -85
-127 -180 -144 -213 -41 -77 -73 -111 -95 -102 -11 4 -15 2 -11 -4 3 -5 -5
-16 -18 -23 -13 -7 -29 -26 -35 -43 -5 -17 -13 -28 -16 -25 -3 3 7 39 21 79
38 106 45 130 35 124 -5 -3 -18 -30 -29 -60 -19 -52 -40 -94 -51 -105 -3 -3
-5 -11 -6 -17 -3 -37 -5 -43 -15 -43 -6 0 -8 9 -4 20 8 24 -3 26 -20 3 -20
-27 -36 -8 -23 29 9 24 8 33 0 36 -7 2 -12 12 -12 23 0 24 -19 25 -36 2 -8
-11 -13 -13 -14 -5 0 17 -20 15 -20 -3 0 -24 -26 -17 -38 10 -14 31 -30 32
-42 3 -9 -22 -9 -22 -9 3 -1 31 -24 54 -46 45 -9 -3 -18 1 -22 9 -5 13 -7 13
-19 -2 -13 -17 -14 -17 -8 -1 5 13 1 18 -14 18 -11 0 -22 -6 -25 -12 -2 -7 -8
-10 -12 -6 -4 4 -3 14 4 22 9 11 8 15 -5 20 -22 9 -26 8 -18 -6 4 -7 3 -8 -4
-4 -7 4 -12 14 -12 22 0 17 -17 19 -23 2 -3 -9 -13 -4 -30 14 -20 22 -26 24
-31 12 -8 -20 -27 -8 -24 14 2 12 -7 20 -29 27 -18 5 -33 15 -33 23 0 8 -6 12
-15 8 -8 -3 -15 -1 -15 4 0 6 5 10 12 10 9 0 8 3 -1 13 -11 9 -14 9 -18 0 -7
-18 -23 -16 -23 3 0 15 -2 15 -23 1 -23 -15 -26 -13 -67 23 -24 21 -47 37 -50
35 -3 -2 -12 1 -20 6 -13 8 -13 10 0 19 12 9 10 10 -10 8 -14 -1 -36 4 -49 11
-13 7 -21 8 -17 3 3 -6 2 -13 -4 -17 -5 -3 -10 3 -10 14 0 17 -6 21 -30 21
-16 0 -30 5 -30 10 0 6 10 8 24 4 29 -7 41 9 27 35 -9 16 -8 18 10 14 19 -5
20 -4 8 14 -13 21 -46 24 -42 4 4 -13 -7 -14 -27 -1 -9 6 -10 10 -3 10 6 0 13
10 15 22 3 23 3 23 113 37 76 10 191 38 163 40 -9 1 -18 5 -20 11 -2 6 -26 1
-58 -11 -40 -15 -81 -21 -147 -22 -51 -1 -93 -4 -93 -6 0 -3 7 -12 14 -20 10
-11 12 -21 6 -31 -13 -22 -64 -1 -68 28 -3 22 -22 32 -22 12 0 -12 -49 21 -50
33 0 4 14 10 30 14 17 3 30 8 30 12 0 6 7 7 143 17 56 4 93 2 99 -4 16 -16 38
-3 38 23 0 31 -17 41 -69 44 -25 1 -49 5 -54 8 -16 10 -107 11 -101 2 3 -5 1
-9 -5 -9 -5 0 -13 5 -16 10 -3 6 -13 10 -21 10 -8 0 -13 -4 -9 -9 3 -5 0 -13
-6 -17 -8 -4 -9 -3 -5 4 8 13 -30 36 -44 27 -6 -4 -20 -3 -33 1 -20 7 -19 9
13 14 l35 6 -40 8 c-78 14 -86 17 -80 26 3 6 1 10 -5 10 -6 0 -8 5 -4 11 3 6
0 16 -7 21 -11 8 -10 9 3 4 22 -7 31 8 23 35 -5 16 -9 18 -21 8 -12 -10 -13
-9 -8 4 4 10 -4 29 -20 48 -15 17 -32 51 -38 74 -9 32 -16 42 -27 38 -10 -3
-12 -2 -5 4 6 4 14 18 18 30 4 13 13 29 19 35 21 22 48 68 40 68 -5 0 -14 -9
-21 -20 -7 -12 -17 -18 -23 -15 -5 4 -8 1 -7 -7 2 -8 -9 -14 -30 -16 -32 -3
-32 -3 -20 25 7 15 25 44 40 63 38 47 36 61 -3 19 -30 -32 -30 -32 5 19 20 28
36 55 36 58 0 3 14 26 32 50 17 24 29 47 25 50 -3 3 -11 -5 -18 -18 -22 -42
-81 -113 -91 -110 -5 1 -7 -2 -4 -6 3 -5 -5 -21 -17 -36 -24 -27 -37 -33 -37
-15 0 5 5 7 11 3 8 -4 9 3 4 26 -5 25 -4 31 5 25 9 -5 11 -4 6 4 -4 6 -12 9
-17 6 -5 -4 -9 1 -9 9 0 9 -4 16 -10 16 -5 0 -6 8 -3 18 6 14 4 15 -9 4 -20
-16 -29 -4 -22 32 4 25 3 26 -16 16 -15 -8 -20 -8 -20 1 0 6 9 13 20 16 22 6
27 28 9 39 -6 3 -15 0 -20 -7 -6 -9 -9 -10 -9 -2 0 7 7 16 16 21 11 6 13 12 6
16 -7 4 -19 -2 -28 -13 -13 -15 -20 -16 -29 -8 -7 7 -11 16 -8 21 3 4 -1 12
-8 17 -20 12 -29 11 -23 -4 2 -7 -4 -13 -16 -14 -11 -1 -20 1 -20 5 1 23 60
64 60 42 0 -6 5 -10 11 -10 6 0 9 10 7 23 -2 16 -9 21 -26 20 -13 -2 -33 3
-45 11 -12 8 -33 17 -46 21 -24 7 -36 15 -71 47 -19 17 -19 9 -20 -379 l0
-395 72 -77 c40 -42 122 -134 183 -206 122 -145 362 -417 530 -600 173 -189
193 -224 40 -68 -134 135 -271 285 -363 396 -24 29 -75 84 -113 123 -38 38
-69 74 -69 80 0 5 -34 45 -75 89 -41 44 -77 88 -80 98 -4 9 -13 17 -21 17 -8
0 -14 6 -14 13 0 14 -50 63 -50 49 -1 -4 -10 4 -20 17 l-20 23 0 -27 c0 -19
25 -55 91 -131 50 -57 95 -104 100 -104 5 0 20 -17 34 -37 13 -21 54 -69 90
-108 36 -38 85 -96 108 -128 22 -32 54 -65 69 -73 15 -8 36 -27 45 -42 10 -15
50 -59 90 -98 40 -39 73 -76 73 -82 0 -7 18 -23 40 -37 23 -14 82 -65 133
-113 51 -48 110 -101 130 -119 20 -17 37 -36 37 -42 0 -16 -42 -31 -56 -20 -6
5 -13 7 -16 4 -10 -10 -106 16 -112 31 -3 8 -14 14 -24 14 -10 0 -27 7 -38 15
-10 8 -26 15 -35 15 -9 0 -22 7 -29 15 -7 8 -16 13 -20 10 -10 -6 -23 43 -15
55 4 6 2 10 -3 10 -6 0 -28 -30 -51 -66 -35 -56 -44 -64 -57 -54 -8 7 -16 11
-18 9 -2 -2 -20 -30 -40 -63 l-37 -58 -24 22 c-19 18 -22 27 -14 42 6 12 19
18 32 16 25 -3 71 36 64 55 -3 7 5 13 19 13 15 1 21 -3 18 -11 -3 -7 -1 -16 5
-20 6 -3 11 -2 11 4 0 6 25 46 55 88 30 43 55 85 55 93 0 9 -30 45 -66 80 -36
36 -89 92 -117 125 -76 90 -261 283 -249 260 12 -24 155 -190 174 -202 7 -4
31 -30 53 -58 22 -27 52 -61 67 -75 26 -24 27 -26 8 -37 -14 -9 -20 -9 -22 -1
-2 6 -17 -10 -32 -37 -23 -38 -26 -49 -15 -56 11 -7 11 -9 1 -9 -7 0 -20 13
-29 29 -24 40 -112 99 -122 82 -6 -9 -11 -10 -15 -2 -4 6 -19 11 -33 11 -16 0
-27 7 -30 20 -3 11 -9 20 -13 20 -5 0 -16 21 -25 48 -10 26 -23 61 -30 77 -7
17 -20 47 -29 67 -9 23 -26 43 -43 50 -15 7 -37 22 -48 33 -24 23 -81 65 -90
65 -3 0 -5 -56 -5 -124 l0 -124 32 -7 c39 -9 75 -42 83 -77 6 -23 4 -28 -11
-28 -13 0 -15 -3 -7 -8 7 -5 14 -21 15 -36 1 -15 10 -32 20 -37 10 -5 18 -15
18 -22 0 -7 12 -14 27 -15 14 -1 34 -9 43 -17 9 -8 29 -15 43 -15 15 0 27 -4
27 -8 0 -5 11 -14 24 -22 22 -11 42 -51 38 -73 -1 -4 5 -10 13 -13 14 -6 14
-9 0 -30 -22 -34 -38 -77 -25 -69 6 4 15 -7 21 -24 6 -17 15 -31 20 -31 5 0 9
-9 9 -20 0 -12 16 -37 36 -56 l35 -36 -21 -53 -22 -53 23 -89 c13 -48 23 -117
24 -153 0 -40 7 -77 17 -96 25 -45 56 -178 64 -269 4 -58 14 -97 35 -141 16
-33 29 -77 29 -98 0 -20 11 -62 24 -94 13 -31 32 -95 42 -140 15 -68 25 -92
56 -126 33 -38 88 -129 88 -145 0 -10 -40 52 -51 77 -5 15 -14 21 -21 16 -7
-4 -10 -4 -6 1 4 4 -8 27 -27 51 -19 23 -38 58 -41 76 -10 57 -36 132 -52 150
-24 28 -33 10 -11 -26 24 -42 69 -172 61 -180 -3 -3 0 -6 6 -6 7 0 12 -7 12
-15 0 -8 8 -20 19 -26 10 -7 16 -20 14 -29 -3 -9 2 -23 9 -31 28 -28 48 -64
47 -84 0 -11 -3 -14 -6 -7 -2 6 -9 10 -14 6 -8 -5 -13 9 -10 29 0 4 -6 7 -14
7 -9 0 -12 6 -8 16 4 10 -1 17 -15 20 -13 4 -18 12 -15 23 3 11 -6 30 -21 46
-23 25 -31 44 -27 68 2 13 -26 37 -46 38 -10 0 -13 3 -5 6 13 5 17 33 4 33 -4
0 -13 -5 -20 -12 -15 -15 -24 -6 -28 32 -3 22 0 29 8 24 7 -5 9 -2 5 8 -3 9
-2 19 3 24 14 14 23 147 10 139 -6 -4 -9 -13 -6 -21 3 -7 0 -11 -7 -8 -7 2
-20 -9 -30 -26 -10 -16 -22 -30 -28 -30 -14 0 -11 11 16 45 13 18 21 35 18 39
-4 3 -1 6 5 6 7 0 12 8 12 18 0 10 5 23 11 29 9 9 9 20 -1 42 -7 17 -16 31
-21 31 -5 0 -9 7 -9 15 0 8 -4 15 -10 15 -5 0 -10 -5 -10 -12 0 -6 -2 -9 -5
-7 -2 3 3 27 11 54 13 41 13 60 4 105 -18 87 -43 160 -52 154 -5 -3 -6 -9 -3
-14 3 -4 -2 -13 -9 -19 -10 -8 -16 -9 -21 -2 -7 13 12 51 25 51 6 0 10 15 9
33 0 28 -1 29 -9 11 -11 -28 -30 -40 -23 -15 3 11 -5 28 -21 44 l-25 25 24 36
c13 20 21 36 17 36 -4 0 -6 17 -4 38 4 44 -13 116 -32 134 -9 9 -11 23 -5 47
10 45 5 50 -11 11 -16 -38 -37 -39 -45 0 -4 16 -10 30 -13 30 -4 0 -12 11 -19
25 -7 16 -7 23 -1 18 7 -4 8 -1 3 6 -4 7 -15 11 -25 8 -14 -3 -16 0 -12 17 5
19 4 19 -11 7 -9 -7 -17 -9 -17 -3 0 5 -9 12 -20 15 -12 3 -20 14 -20 27 0 11
-4 19 -10 15 -11 -7 -50 24 -50 40 0 6 -10 16 -21 24 -18 11 -19 15 -8 23 10
7 8 8 -8 3 -19 -5 -23 -2 -23 15 0 12 -6 20 -13 18 -6 -2 -12 1 -12 5 0 5 -9
14 -20 20 -11 7 -20 18 -20 25 0 6 -4 13 -10 15 -7 1 -11 -453 -13 -1346 l-2
-1347 6660 0 6660 0 0 1072 0 1072 -30 -29 c-16 -16 -30 -25 -30 -21 0 5 -8 2
-17 -5 -15 -12 -16 -12 -10 4 4 10 7 23 7 28 0 5 18 16 40 25 l40 16 0 1741
c0 1448 -2 1739 -13 1727 -8 -8 -84 -104 -171 -213 -86 -108 -159 -197 -162
-197 -3 0 -3 8 1 19 5 16 -2 19 -60 26 -35 3 -67 11 -70 16 -4 5 0 9 8 9 7 0
19 11 25 25 13 28 21 29 75 14 22 -6 36 -15 34 -22 -3 -7 -9 -11 -13 -10 -5 1
-23 4 -39 7 l-30 7 31 -17 c20 -10 41 -14 55 -10 14 4 62 54 116 124 104 131
104 129 1 131 -27 1 -48 4 -48 9 0 4 21 16 46 27 34 14 63 40 106 93 53 64 64
73 85 67 16 -4 22 -2 18 5 -3 5 -17 10 -31 10 -13 0 -24 5 -24 11 0 7 11 9 30
6 27 -6 30 -4 30 18 0 20 -5 25 -27 26 l-28 1 25 7 c25 7 25 8 28 133 2 114 1
127 -15 131 -17 4 -17 5 0 6 13 1 17 10 17 39 l0 37 -34 -40 c-40 -47 -374
-470 -559 -708 -84 -107 -134 -164 -140 -158 -7 7 0 20 19 38 16 15 68 77 114
137 167 213 361 459 513 650 l87 108 0 1154 0 1154 -5501 0 c-5499 0 -5501 0
-5496 -20z m653 -885 c11 -11 12 -19 5 -34 -17 -31 -81 -95 -81 -80 0 9 -3 9
-12 -3 -15 -19 -68 -33 -68 -18 0 5 -9 10 -20 10 -18 0 -19 3 -8 20 10 15 10
22 1 31 -9 9 -8 15 2 25 7 8 16 19 18 26 4 10 8 9 16 -2 7 -10 11 -11 11 -2 0
6 11 12 24 12 13 0 29 7 36 15 16 19 57 19 76 0z m9904 -2360 c17 -9 30 -19
30 -23 0 -4 -21 -33 -47 -66 -46 -57 -47 -58 -87 -52 -23 4 -45 11 -50 16 -10
10 92 140 111 140 8 0 27 -7 43 -15z m-2662 -169 c4 -4 7 -13 7 -19 0 -16 117
-9 127 7 6 8 8 7 8 -2 0 -7 14 -18 30 -23 35 -13 41 -34 6 -25 -20 5 -23 2
-23 -19 0 -14 3 -25 8 -25 5 0 9 5 9 10 0 25 15 7 16 -20 1 -33 -15 -43 -53
-34 -20 5 -23 11 -19 30 4 14 2 24 -4 24 -9 0 -14 -12 -12 -30 0 -3 -8 -6 -18
-7 -11 -1 -19 1 -19 5 4 26 -3 30 -21 12 -14 -14 -33 -20 -63 -20 -24 0 -52
-7 -63 -15 -28 -22 -41 -18 -16 5 12 11 32 20 46 20 35 0 56 10 56 26 0 8 9
14 20 14 11 0 20 5 20 10 0 6 8 10 18 10 16 1 16 1 0 11 -13 7 -28 4 -57 -11
-44 -22 -55 -25 -47 -11 3 5 -1 12 -10 15 -8 3 -12 2 -9 -4 3 -5 -3 -20 -14
-32 -12 -12 -21 -25 -21 -28 0 -3 -18 -16 -40 -28 -22 -11 -40 -17 -40 -13 0
5 16 16 35 25 31 15 41 31 36 59 -1 5 3 6 8 3 5 -4 12 -2 15 3 3 5 -1 11 -9
15 -8 3 -15 11 -15 17 0 9 3 9 14 0 16 -13 24 0 21 34 -1 17 5 20 32 19 18 -1
37 -4 41 -8z m2481 -96 c-41 -51 -73 -98 -71 -106 4 -20 -36 -74 -54 -74 -8 0
-13 -4 -10 -9 3 -5 -12 -8 -33 -7 -21 0 -37 5 -34 10 3 4 -1 12 -8 17 -12 7
-12 9 0 9 8 0 11 6 7 16 -3 9 -2 12 5 8 6 -3 23 5 37 18 15 14 35 28 44 31 9
3 51 49 94 102 49 61 80 93 87 86 6 -6 -18 -43 -64 -101z m-3109 -190 c6 -11
15 -18 20 -15 10 6 25 -13 17 -21 -3 -3 -18 -7 -34 -10 -15 -2 -42 -9 -58 -14
-25 -8 -22 -9 18 -4 30 3 47 1 47 -5 0 -6 -3 -11 -8 -11 -14 0 -257 -51 -292
-61 -48 -14 -80 -31 -80 -41 0 -5 13 -2 29 6 50 26 320 82 346 72 22 -8 19
-51 -2 -53 -45 -4 -227 -53 -233 -64 -4 -6 -13 -8 -19 -5 -6 4 -11 3 -11 -1 0
-5 -16 -15 -35 -22 -20 -7 -43 -24 -52 -37 -20 -31 -30 -22 -48 47 -31 117
-10 158 93 180 75 16 95 27 87 47 -5 13 -2 13 14 -3 18 -15 31 -17 90 -11 89
8 105 14 90 32 -8 10 -8 14 -1 14 6 0 16 -9 22 -20z m2920 -45 c-19 -19 -42
-35 -51 -35 -36 0 -53 -17 -190 -182 -132 -159 -162 -188 -175 -175 -6 5 24
44 199 253 72 87 117 124 149 124 7 0 27 11 43 25 46 37 64 30 25 -10z m-1
-58 c-45 -30 -290 -319 -284 -334 3 -9 -5 -13 -23 -13 -15 0 -36 -2 -47 -4
-11 -2 -15 -1 -8 1 7 2 78 83 158 180 80 97 139 173 130 169 -10 -3 -14 -2
-10 5 4 6 12 8 19 6 6 -2 20 -1 31 4 11 4 31 8 44 8 22 1 22 -1 -10 -22z m303
-252 c172 -30 209 -40 240 -64 l23 -19 -55 -15 c-101 -28 -394 -28 -482 -1
-38 11 -19 42 50 83 37 23 70 41 74 41 4 0 71 -11 150 -25z m-8214 -144 c-7
-11 -16 -17 -20 -15 -4 3 -8 0 -8 -5 0 -6 2 -11 4 -11 2 0 12 -3 22 -7 14 -5
16 -3 10 13 -5 14 -4 16 4 8 9 -9 22 -7 50 7 22 11 54 18 72 18 l33 -2 -30 -6
c-46 -11 -95 -32 -95 -42 0 -4 -14 -12 -32 -17 -45 -12 -52 -38 -7 -27 55 13
82 11 86 -5 3 -9 1 -11 -4 -5 -4 6 -16 11 -25 11 -12 1 -16 -6 -15 -25 2 -25
0 -26 -58 -27 -34 0 -70 -4 -80 -8 -47 -18 -74 -15 -95 11 -11 14 -20 32 -20
39 0 8 -5 14 -11 14 -5 0 -7 -4 -4 -10 3 -5 -1 -10 -9 -10 -8 0 -20 9 -26 20
-8 14 -8 20 0 20 6 0 8 5 5 10 -3 6 -1 10 5 10 7 0 9 -8 5 -20 -3 -11 -2 -20
2 -20 16 0 32 22 26 36 -3 8 0 14 7 14 6 0 8 -4 5 -10 -4 -6 5 -10 19 -10 14
0 26 -5 26 -10 0 -6 -11 -8 -25 -4 -15 4 -25 2 -25 -5 0 -6 6 -11 14 -11 8 0
18 -5 22 -12 4 -6 3 -8 -4 -4 -6 3 -13 2 -17 -4 -11 -18 29 -10 55 10 14 11
35 20 47 20 12 0 25 5 28 10 3 6 15 10 26 10 17 0 18 3 7 20 -14 22 -33 27
-25 7 4 -10 -4 -14 -25 -14 -16 0 -33 -6 -38 -13 -7 -11 -12 -10 -26 4 -16 17
-16 18 2 15 10 -2 30 3 44 11 14 8 43 20 65 26 22 6 41 12 43 13 1 0 -3 -8
-10 -18z m3267 -21 c21 0 18 -20 -2 -21 -10 -1 -22 0 -28 1 -5 1 -7 -2 -3 -6
4 -4 3 -13 -3 -21 -7 -8 -8 -13 -1 -13 5 0 12 7 16 15 6 16 41 21 50 6 4 -5
-2 -7 -13 -4 -10 3 -22 0 -26 -6 -4 -7 5 -13 22 -17 16 -3 33 -16 39 -29 10
-21 9 -23 -10 -19 -24 4 -59 -37 -37 -44 20 -7 11 -22 -13 -22 -13 0 -26 -4
-28 -10 -2 -6 -9 -6 -18 0 -11 7 -9 11 13 19 15 6 27 17 27 25 0 8 6 17 13 19
7 3 5 6 -6 6 -10 1 -20 -6 -24 -15 -4 -12 -8 -12 -13 -3 -5 7 -35 12 -82 12
-72 0 -74 1 -70 23 3 19 8 21 28 14 21 -8 24 -7 24 15 0 21 -6 25 -46 31 l-47
7 33 13 c37 16 52 18 30 4 -8 -5 -11 -13 -6 -17 4 -4 13 0 20 10 16 21 27 22
20 2 -5 -11 -1 -14 12 -9 13 4 15 3 7 -3 -13 -10 -6 -56 8 -48 4 3 6 12 2 20
-3 11 2 15 17 15 19 0 20 -2 10 -15 -7 -8 -9 -15 -4 -15 12 0 41 20 30 20 -5
0 -3 7 4 15 11 13 8 15 -14 15 -16 0 -26 5 -26 15 0 13 5 16 25 15 3 -1 13 7
22 16 15 14 17 14 25 0 5 -9 16 -16 23 -16z m-2330 -630 c-3 -5 17 -9 52 -9
44 1 60 -3 71 -17 11 -15 13 -15 9 -3 -5 14 1 16 41 11 56 -6 64 -11 97 -67
26 -45 32 -89 15 -115 -7 -11 -10 -7 -10 18 0 20 -4 31 -10 27 -6 -4 -8 -12
-4 -18 3 -7 -3 -1 -14 12 -10 13 -25 21 -33 18 -10 -4 -9 -6 4 -6 25 -1 21
-18 -7 -23 -18 -4 -28 1 -37 19 -7 12 -22 24 -33 24 -12 1 -28 3 -36 4 -8 1
-24 3 -34 4 -20 1 -20 1 0 16 25 19 40 19 24 0 -7 -8 -8 -15 -3 -15 6 0 19 11
29 25 10 14 27 25 36 25 10 0 18 5 18 11 0 8 -21 10 -65 7 -66 -4 -85 9 -34
23 31 9 4 11 -43 3 -21 -4 -38 -11 -38 -16 0 -6 7 -8 15 -4 8 3 15 3 15 -1 0
-7 -32 -32 -41 -33 -11 0 -6 75 5 82 15 10 18 10 11 -2z m-502 -567 c5 -18 7
-39 3 -49 -6 -15 -8 -16 -24 0 -42 37 -157 0 -230 -73 -20 -19 -37 -31 -39
-26 -12 35 -21 38 -53 15 -45 -32 -52 -14 -8 23 27 24 38 41 40 67 2 28 10 38
43 57 36 21 51 23 150 21 l109 -3 9 -32z m1877 -376 c0 -7 18 -21 40 -31 33
-15 39 -20 29 -32 -14 -17 2 -19 20 -1 9 8 12 8 7 0 -3 -6 -3 -13 1 -15 9 -3
67 -118 68 -133 1 -5 7 -28 15 -50 20 -56 20 -274 0 -340 l-15 -50 -6 74 c-4
42 -3 85 2 100 6 14 7 43 4 66 -19 128 -46 195 -129 318 -49 74 -63 107 -47
107 6 0 11 -6 11 -13z m-6343 -131 c-4 -9 0 -15 11 -15 9 0 32 -2 50 -4 17 -2
32 1 32 6 0 4 10 5 21 2 12 -4 29 -9 38 -10 9 -2 16 -4 16 -5 0 -1 22 -3 49
-5 27 -3 56 -11 65 -19 13 -12 20 -13 29 -4 16 16 15 -3 -2 -25 -9 -11 -20
-15 -31 -10 -13 4 -16 3 -11 -5 4 -7 2 -12 -3 -12 -6 0 -11 6 -11 13 -1 7 -6
6 -14 -5 -12 -16 -14 -16 -29 0 -9 9 -17 11 -17 5 0 -13 -38 -24 -45 -12 -3 4
-12 6 -19 3 -8 -3 -32 3 -54 14 -30 15 -44 17 -53 8 -9 -8 -11 -7 -6 5 4 13
-2 16 -34 14 -40 -2 -55 17 -23 29 8 3 12 10 9 16 -3 5 1 10 9 10 9 0 16 5 16
10 0 6 3 10 6 10 3 0 4 -6 1 -14z m7550 -611 c5 -4 3 -5 -3 -2 -7 4 -15 0 -18
-9 -3 -9 -2 -12 5 -9 5 4 16 1 24 -5 8 -6 19 -9 25 -5 11 7 115 -64 106 -72
-3 -3 -22 8 -43 24 -47 37 -74 52 -55 32 18 -20 14 -34 -5 -17 -30 25 -44 31
-41 16 2 -7 12 -16 23 -19 13 -3 20 -13 19 -28 0 -16 21 -39 83 -87 45 -36 83
-68 83 -71 0 -3 -6 -1 -12 4 -7 5 -80 58 -162 118 l-148 108 23 18 c24 19 81
21 96 4z"/>
<path d="M7745 7096 c-16 -6 -33 -14 -36 -19 -3 -4 -19 -10 -35 -13 -16 -3
-32 -10 -35 -16 -4 -6 -11 -8 -17 -4 -6 3 -13 2 -17 -4 -3 -5 2 -10 12 -10 35
0 -13 -33 -51 -34 -19 -1 -39 -6 -43 -11 -5 -4 -1 -5 7 0 12 6 12 5 3 -5 -13
-14 -37 -4 -27 12 8 13 -12 2 -38 -20 -10 -8 -18 -10 -18 -4 0 6 6 13 13 15 9
4 9 6 -1 6 -7 1 -10 6 -6 13 4 7 3 8 -5 4 -6 -4 -9 -11 -6 -16 3 -4 -9 -20
-26 -35 -24 -20 -29 -29 -20 -38 8 -8 11 -7 11 4 1 10 4 9 11 -4 15 -26 7 -29
-28 -12 -33 17 -67 10 -59 -10 3 -8 -2 -16 -11 -19 -9 -4 -14 -9 -11 -12 3 -2
18 0 33 6 23 9 26 8 17 -3 -7 -8 -9 -16 -6 -20 3 -3 -3 -3 -15 0 -13 3 -21 1
-21 -7 0 -6 -10 -21 -22 -31 l-23 -20 22 6 c18 5 20 2 16 -15 -6 -22 -53 -60
-74 -60 -8 0 -5 8 7 22 l19 22 -24 -15 c-14 -9 -31 -25 -39 -37 -16 -24 -11
-29 10 -9 10 10 21 10 46 2 18 -6 33 -16 33 -21 0 -5 7 -8 16 -6 8 2 12 -1 8
-7 -18 -31 87 23 115 58 28 34 42 40 38 14 -2 -10 -23 -33 -48 -51 -102 -78
-199 -194 -187 -226 3 -7 -7 -27 -23 -45 -16 -17 -25 -33 -21 -36 4 -2 14 7
21 20 7 14 16 25 19 25 3 0 17 9 31 20 15 12 18 18 8 14 -30 -11 -20 10 12 24
34 15 42 48 10 39 -17 -4 -18 -2 -9 14 5 10 12 19 15 19 3 0 2 -4 -1 -10 -3
-5 3 -10 14 -10 12 0 21 -6 21 -14 0 -8 4 -17 9 -20 4 -3 7 11 4 32 -4 41 -3
43 51 92 36 32 37 32 18 6 -23 -30 -29 -56 -13 -56 5 0 13 10 16 21 4 13 10
17 14 11 4 -7 12 -8 21 -2 20 13 33 13 25 0 -3 -6 1 -7 9 -4 9 3 16 10 16 16
0 5 -5 6 -12 2 -7 -5 -8 -3 -4 5 5 7 11 10 14 7 3 -3 12 -1 19 6 11 9 16 9 22
0 4 -7 15 -10 24 -6 9 3 17 3 17 0 0 -15 -29 -62 -49 -80 -12 -11 -21 -24 -21
-30 1 -6 11 1 23 15 12 14 37 34 55 45 17 10 32 22 32 26 0 8 79 88 87 88 3 0
0 -7 -7 -15 -7 -8 -11 -15 -9 -15 12 0 101 31 120 40 13 8 24 8 28 2 3 -5 13
-2 23 7 16 16 15 17 -5 16 -13 -1 -37 -8 -54 -17 -32 -16 -32 -16 -23 8 6 15
6 24 0 24 -6 0 -10 -6 -10 -14 0 -8 -5 -18 -11 -22 -7 -4 -9 0 -5 14 6 16 3
19 -12 15 -29 -7 -37 26 -12 51 12 13 20 16 20 8 0 -7 5 -10 10 -7 6 3 10 11
10 16 0 6 -4 8 -9 5 -5 -3 -11 1 -15 9 -6 17 10 30 19 15 7 -11 25 -4 25 10 0
19 -34 19 -55 0 -12 -11 -29 -20 -38 -20 -9 0 -19 -4 -22 -10 -3 -5 -12 -10
-18 -9 -9 0 -9 2 1 6 6 2 12 9 12 15 0 6 -6 6 -15 -2 -8 -7 -12 -16 -9 -21 8
-13 -26 -59 -44 -59 -12 0 -10 6 8 25 13 14 21 27 18 30 -2 3 -13 -4 -23 -15
-22 -24 -35 -26 -35 -5 0 8 7 15 15 15 16 0 88 70 80 78 -3 3 -13 -1 -22 -9
-44 -35 -83 -48 -83 -28 0 5 4 8 8 5 4 -2 13 7 19 22 6 15 14 36 19 47 7 18 8
17 12 -7 3 -28 16 -36 27 -19 3 5 32 22 65 38 72 33 78 59 15 56 -35 -2 -32 0
22 15 35 9 71 25 82 34 14 12 21 13 25 5 2 -7 5 -4 5 6 1 9 7 17 15 17 7 0 19
7 26 15 10 12 10 15 -2 15 -8 0 -19 -5 -26 -12 -8 -8 -12 -8 -12 -1 0 6 -11 8
-25 5 -19 -3 -25 0 -25 13 0 14 -3 15 -14 6 -8 -7 -16 -8 -18 -3 -1 4 -16 3
-33 -2z"/>
<path d="M1475 6280 c-3 -25 -4 -58 -1 -75 3 -16 -1 -54 -9 -85 -13 -49 -21
-229 -13 -285 3 -17 -2 -19 -27 -17 l-30 4 23 -20 c12 -11 22 -27 22 -36 0 -9
7 -30 15 -45 18 -35 1 -84 -27 -77 -29 7 -28 -20 3 -62 21 -28 32 -57 36 -94
l6 -53 -22 28 c-13 15 -27 27 -32 27 -12 0 -12 -37 0 -45 12 -7 62 -97 57
-102 -2 -2 -19 9 -37 24 l-34 28 23 -32 c13 -18 29 -36 37 -40 8 -5 14 -28 15
-58 3 -76 2 -78 -20 -72 -33 8 -33 -11 0 -28 16 -8 30 -20 30 -25 0 -14 -7
-13 -36 7 -25 16 -26 16 -22 -8 2 -16 10 -25 26 -27 14 -2 22 -9 19 -16 -3 -6
1 -20 9 -31 8 -10 14 -26 14 -34 0 -15 18 -59 102 -255 21 -48 35 -92 32 -97
-3 -5 -1 -9 4 -9 5 0 14 -11 20 -25 6 -14 8 -24 4 -24 -21 3 -21 -4 -3 -27 12
-15 21 -33 21 -40 0 -8 5 -14 11 -14 6 0 9 -7 5 -15 -3 -9 0 -15 9 -15 8 0 15
-5 15 -11 0 -6 21 -30 46 -54 25 -24 43 -48 40 -53 -6 -10 23 -40 31 -34 3 2
8 0 11 -4 4 -4 1 -4 -5 0 -19 10 -16 -2 8 -35 11 -16 18 -33 15 -38 -3 -5 11
-20 32 -34 20 -14 53 -40 72 -58 19 -18 49 -46 67 -62 29 -27 39 -21 20 10 -6
10 -2 11 20 2 16 -6 58 -8 98 -5 38 4 113 8 165 11 52 3 112 10 132 14 20 5
39 6 42 4 2 -3 11 -1 18 3 7 5 24 9 38 10 26 1 54 9 83 25 25 14 126 8 142 -8
9 -9 21 -10 36 -5 26 10 70 -8 112 -46 15 -14 27 -22 27 -17 0 4 10 0 21 -11
22 -19 22 -19 14 6 -9 29 -52 89 -77 108 -22 16 -23 32 -3 32 8 0 15 7 15 15
0 10 -10 15 -32 15 -29 0 -30 1 -13 13 29 22 2 29 -45 12 -52 -19 -51 -19 -44
3 5 15 4 15 -8 2 -15 -18 -87 -42 -100 -34 -12 8 -4 29 10 30 25 3 27 5 12 14
-11 7 -8 10 15 10 17 0 35 4 40 9 6 5 26 14 46 20 20 7 45 21 55 33 l19 22
-25 -17 c-38 -26 -60 -22 -60 12 0 16 -7 46 -16 66 -12 30 -18 35 -26 24 -7
-10 -8 -2 -4 26 3 22 6 46 6 53 0 9 7 11 20 7 17 -6 20 -2 17 24 -2 16 -10 37
-17 46 -10 12 -10 19 -2 27 9 9 12 9 12 0 0 -7 5 -12 10 -12 6 0 10 9 10 19 0
11 6 22 13 24 6 3 1 6 -13 6 -15 1 -31 -4 -38 -11 -9 -9 -15 -9 -24 0 -17 17
-33 15 -18 -3 7 -9 8 -15 2 -15 -5 0 -13 7 -16 16 -8 22 -8 24 7 24 8 0 22 9
32 20 18 19 17 20 -6 21 -22 0 -22 1 -4 8 11 5 23 7 27 5 4 -3 10 1 14 8 4 7
4 10 0 6 -14 -12 -48 29 -53 65 -2 19 -12 61 -22 93 l-19 59 28 20 c52 37 65
75 63 197 -2 117 -21 198 -52 220 -10 7 -29 38 -44 68 -33 68 -127 220 -172
278 -18 23 -53 57 -77 74 -23 17 -57 46 -73 65 -17 18 -33 33 -37 33 -3 0 -39
31 -79 69 -46 43 -79 67 -88 63 -10 -4 -13 -1 -9 10 10 24 -70 58 -84 36 -6
-10 -8 -10 -8 0 0 6 -12 12 -27 12 -20 0 -24 3 -14 9 17 11 7 41 -13 41 -8 0
-30 9 -48 20 -40 23 -70 13 -42 -15 17 -16 17 -17 -2 -13 -10 2 -17 5 -15 8 2
3 -1 14 -7 26 -9 17 -20 20 -61 19 -28 -1 -54 -4 -57 -8 -4 -4 -2 -7 4 -7 7 0
12 -4 12 -9 0 -5 -10 -7 -22 -4 l-23 5 24 -21 c26 -24 26 -23 -9 -41 -18 -10
-25 -10 -28 -1 -3 9 -7 9 -18 0 -11 -9 -17 -9 -28 0 -9 7 -17 8 -20 2 -3 -5 0
-12 6 -14 8 -3 6 -6 -4 -6 -12 -1 -15 -6 -11 -18 6 -16 3 -16 -18 2 -13 11
-26 22 -29 24 -3 2 4 1 16 -3 15 -4 21 -2 21 9 0 16 -8 18 -43 16 -11 -1 -27
5 -34 13 -8 11 -9 16 -1 16 24 0 9 18 -30 35 -22 10 -46 30 -54 44 -13 26 -13
25 -20 -19z m921 -1322 l51 -3 -13 -64 c-8 -36 -17 -68 -21 -72 -13 -12 -216
-22 -209 -11 4 6 20 10 36 10 17 -1 33 2 37 5 3 4 -20 7 -53 6 -32 0 -53 -3
-46 -6 18 -7 15 -20 -8 -26 -10 -3 -25 2 -31 9 -7 8 -18 13 -26 10 -7 -3 -13
1 -13 9 0 18 -17 20 -22 3 -2 -6 -20 -11 -39 -11 -18 0 -26 -2 -16 -4 18 -5
24 -33 6 -33 -5 0 -7 5 -4 10 3 6 -1 10 -9 10 -9 0 -15 -3 -15 -7 4 -23 -5
-28 -44 -27 -27 0 -41 5 -40 12 3 13 -10 16 -20 5 -4 -3 -2 -12 5 -20 9 -11 8
-18 -5 -31 -10 -9 -17 -11 -17 -5 0 6 6 13 13 16 8 3 6 9 -8 20 -11 8 -24 12
-30 9 -5 -4 -19 -7 -30 -8 -11 -1 -24 -3 -30 -4 -24 -6 -56 1 -50 10 4 6 12 7
18 4 7 -4 8 -3 4 2 -4 4 -24 7 -43 5 -22 -2 -34 2 -34 10 0 10 -3 10 -12 1
-20 -20 -33 -14 -51 23 -21 44 -21 44 1 38 10 -2 31 2 47 8 17 7 73 14 125 15
52 2 102 3 110 4 8 1 26 -1 40 -4 20 -5 21 -5 5 2 -18 8 -17 10 12 16 18 4 41
5 51 2 10 -4 35 0 55 9 20 8 52 15 72 15 64 0 175 30 175 47 0 11 3 13 13 5 7
-6 35 -12 63 -14z m271 -4 c48 -18 60 -43 44 -85 -7 -20 -18 -27 -48 -32 -21
-3 -53 -9 -72 -13 -22 -5 -32 -4 -28 3 4 6 2 25 -3 42 -9 31 -7 33 27 47 40
17 38 30 -4 19 -15 -5 -33 -7 -40 -6 -8 1 -10 -9 -6 -32 4 -28 1 -37 -22 -55
-15 -12 -31 -22 -35 -22 -6 0 -20 29 -24 51 -2 12 89 76 102 71 6 -2 19 4 28
12 19 20 28 20 81 0z m-44 -641 c-13 -2 -23 -9 -23 -15 0 -6 9 -8 20 -5 13 3
20 0 20 -10 0 -8 -4 -12 -9 -9 -5 4 -11 2 -13 -3 -1 -6 -25 -13 -53 -16 -27
-4 -70 -11 -95 -17 -57 -12 -290 -38 -351 -38 -57 0 -86 24 -42 35 19 4 23 9
14 14 -8 5 24 11 75 16 137 11 406 43 412 49 3 3 19 5 36 5 24 -1 26 -3 9 -6z"/>
<path d="M6033 5538 c-12 -6 -24 -17 -27 -24 -6 -15 21 -48 45 -56 12 -5 12
-8 0 -19 -8 -8 -11 -9 -7 -2 3 6 0 13 -6 16 -22 7 -38 -4 -38 -26 0 -11 3 -17
7 -14 3 4 12 -5 20 -20 16 -31 10 -41 -13 -22 -16 13 -17 12 -9 -11 9 -30 10
-58 3 -165 -5 -73 -3 -83 18 -112 35 -46 32 -92 -7 -124 -23 -19 -33 -36 -36
-65 -10 -84 -9 -89 15 -92 21 -3 22 -1 20 63 -1 36 3 70 8 75 6 6 10 -15 12
-58 4 -84 9 -101 39 -129 28 -26 71 -30 112 -9 20 11 30 26 38 60 6 25 6 46 2
46 -5 0 -9 -8 -9 -17 0 -25 -50 -73 -77 -73 -30 0 -83 27 -84 43 -3 20 3 92 7
96 10 10 34 -25 34 -49 0 -35 31 -64 60 -55 32 10 54 49 40 74 -15 28 -23 26
-18 -4 7 -36 -15 -63 -39 -49 -24 15 -25 60 0 56 23 -4 22 14 -2 21 -14 3 -18
11 -15 25 4 14 0 21 -16 25 -33 8 -14 29 23 25 25 -2 32 1 35 17 3 16 1 17 -8
8 -17 -16 -40 -5 -40 18 0 11 -7 19 -16 19 -9 0 -14 6 -12 12 3 8 19 12 42 10
25 -3 36 0 32 7 -4 5 -13 8 -21 4 -8 -3 -15 0 -15 6 0 6 5 11 10 11 6 0 7 7 1
18 -15 30 -29 102 -20 108 5 3 9 16 9 30 0 20 5 24 28 24 37 0 43 7 32 36 -10
26 -7 29 19 14 16 -8 20 -28 25 -127 4 -65 10 -127 12 -138 4 -16 3 -17 -5 -5
-8 11 -11 5 -11 -27 0 -29 4 -43 13 -43 10 0 16 -25 23 -82 7 -67 12 -84 27
-86 14 -3 17 4 17 39 0 26 -7 50 -17 62 -10 11 -12 17 -5 13 14 -9 14 -9 3 31
-5 17 -7 34 -3 37 7 7 41 -118 42 -152 0 -15 5 -22 13 -19 14 4 16 66 5 139
-6 39 -5 46 7 42 8 -4 15 -1 15 5 0 6 -6 11 -14 11 -19 0 -27 25 -13 39 9 9 9
14 1 19 -12 7 -16 27 -34 187 -6 55 -16 104 -21 110 -18 19 -8 27 26 21 22 -4
35 -3 35 4 0 5 -10 10 -23 10 -27 0 -50 51 -41 88 7 23 -12 56 -26 47 -5 -3
-11 -1 -15 5 -8 13 -184 12 -212 -2z"/>
<path d="M9200 5344 c-32 -14 -42 -26 -32 -39 9 -13 44 -16 36 -4 -3 5 4 9 16
9 12 0 30 5 42 11 11 6 22 8 26 5 8 -8 -38 -56 -54 -56 -7 0 -16 -5 -20 -11
-5 -9 3 -10 28 -5 27 5 37 3 42 -9 7 -19 22 -19 29 -1 4 10 1 13 -9 9 -7 -3
-14 0 -14 6 0 6 10 11 23 11 12 0 40 3 62 6 32 4 37 3 25 -6 -16 -12 -9 -12
105 11 28 6 73 14 100 18 68 11 49 13 -75 10 -185 -6 -187 -6 -214 20 -29 27
-74 32 -116 15z"/>
<path d="M4569 5336 c-2 -2 -31 -7 -64 -10 -114 -10 -131 -14 -166 -35 -19
-12 -27 -21 -19 -21 9 0 25 7 38 15 20 15 21 15 15 -1 -5 -13 -3 -16 10 -11 9
3 19 2 22 -2 3 -5 14 -7 24 -4 10 3 22 0 25 -6 11 -17 102 -13 121 5 11 12 25
14 49 10 19 -4 45 -1 59 5 20 9 30 8 51 -6 14 -9 32 -15 40 -12 8 3 28 2 44
-2 19 -6 34 -4 47 5 10 8 26 12 34 10 38 -11 251 -15 251 -5 0 6 -8 9 -17 8
-10 -2 -27 2 -39 8 -11 7 -47 10 -80 8 -37 -2 -69 2 -87 11 -15 8 -42 14 -60
13 -17 0 -48 4 -67 10 -25 8 -43 8 -67 -1 -26 -9 -43 -9 -78 0 -46 12 -78 15
-86 8z"/>
<path d="M6540 4760 c0 -6 -8 -9 -18 -6 -23 8 -60 -30 -64 -64 -2 -18 4 -28
20 -35 24 -10 31 -28 8 -19 -8 3 -17 0 -22 -7 -4 -7 -2 -15 5 -17 8 -3 6 -8
-6 -18 -17 -12 -17 -13 -1 -14 10 0 22 9 28 20 6 11 16 20 23 20 7 0 6 -4 -3
-10 -8 -5 -10 -10 -4 -10 5 0 14 4 20 9 15 14 64 22 64 11 0 -6 -5 -8 -12 -4
-7 4 -8 3 -4 -5 4 -6 3 -18 -3 -25 -13 -15 -6 -56 11 -69 9 -5 3 -7 -15 -4
l-28 4 22 -23 c23 -25 35 -31 24 -14 -4 6 -1 17 5 25 15 18 34 20 24 4 -5 -8
2 -10 23 -7 17 2 35 -2 42 -9 9 -10 16 -11 25 -4 7 6 16 7 21 3 4 -4 3 3 -4
15 -8 16 -8 23 2 26 6 3 2 6 -10 6 -24 1 -31 -13 -13 -24 6 -4 8 -11 5 -16 -4
-5 -12 -3 -20 5 -8 7 -34 17 -58 20 -33 5 -46 12 -50 26 -5 20 6 25 43 21 13
-2 13 -1 0 9 -12 10 -11 11 7 7 15 -3 20 -1 16 9 -7 19 -30 17 -42 -3 -10 -17
-10 -17 -11 0 0 9 5 17 11 17 5 0 7 5 4 10 -4 6 7 10 24 10 22 0 31 5 31 16 0
10 -6 14 -14 11 -7 -3 -24 2 -36 10 -18 13 -27 14 -41 5 -24 -15 -42 -15 -33
-1 3 6 2 14 -3 18 -6 3 -13 16 -17 27 -5 16 -2 23 13 27 11 3 22 0 25 -7 2 -6
5 -3 5 6 1 9 -3 20 -9 23 -5 3 -10 1 -10 -5z"/>
<path d="M5468 4745 c-3 -3 -19 -8 -34 -9 -16 -2 -33 -4 -37 -5 -5 0 -7 -9 -5
-18 2 -10 -5 -26 -16 -35 -10 -10 -15 -18 -10 -18 6 0 15 5 22 12 8 8 12 8 12
1 0 -6 -7 -16 -15 -23 -23 -19 -18 -40 10 -40 14 0 25 5 25 10 0 6 6 10 14 10
8 0 18 4 21 10 3 5 0 7 -8 4 -8 -3 -19 1 -25 8 -8 10 3 12 56 10 37 -2 79 1
94 7 l28 10 -18 33 c-16 29 -25 33 -63 36 -25 2 -47 0 -51 -3z"/>
<path d="M4623 4675 c-17 -7 -34 -23 -38 -35 -4 -14 -12 -19 -24 -15 -11 3
-25 -3 -36 -15 -10 -11 -36 -23 -57 -26 -21 -4 -38 -11 -38 -16 0 -6 6 -8 14
-5 7 3 18 1 24 -5 6 -6 16 -6 28 0 28 14 94 22 94 11 0 -5 -6 -10 -12 -10 -7
-1 1 -5 17 -9 l30 -7 -24 -10 c-14 -5 -20 -13 -14 -16 5 -3 25 5 43 18 31 23
32 25 11 25 -26 0 -20 15 9 23 11 3 18 1 14 -4 -3 -5 2 -9 10 -9 9 0 16 -4 16
-10 0 -5 -5 -10 -11 -10 -5 0 -7 -5 -4 -10 5 -8 11 -7 20 0 8 7 18 9 23 6 6
-3 15 1 21 8 8 9 8 17 2 20 -5 3 -12 0 -15 -6 -5 -10 -7 -10 -12 0 -3 7 -12
19 -20 26 -18 19 -18 36 1 36 8 0 15 -5 15 -11 0 -8 13 -9 42 -5 29 5 44 3 49
-6 7 -10 12 -11 29 0 24 15 33 16 25 2 -3 -5 1 -10 9 -10 9 0 16 -5 16 -10 0
-6 12 -3 26 7 27 17 27 17 19 -7 -4 -14 -8 -26 -9 -27 -1 -1 -17 2 -37 6 -25
6 -38 4 -48 -7 -10 -10 -15 -11 -21 -2 -6 9 -9 9 -15 1 -5 -9 -10 -9 -21 0
-10 8 -14 8 -14 0 0 -6 6 -11 13 -11 6 0 4 -5 -6 -11 -9 -6 -25 -9 -35 -8 -9
1 -21 0 -27 -1 -5 -2 -21 -3 -35 -4 -32 -1 -38 -20 -8 -23 13 -1 35 -5 50 -9
15 -3 36 -3 45 1 17 7 16 8 -2 15 -14 6 -15 9 -4 9 8 1 19 -3 25 -8 13 -12 74
-22 74 -12 0 4 20 7 45 6 38 -1 42 1 32 14 -9 11 -9 15 0 18 7 3 23 13 35 24
15 12 17 17 7 13 -10 -3 -20 -1 -24 5 -9 16 40 14 53 -2 9 -10 3 -16 -25 -26
-30 -11 -33 -15 -20 -23 11 -5 24 -5 38 2 17 10 24 8 41 -12 18 -20 20 -20 13
-3 -15 38 -17 65 -6 65 5 0 8 -6 5 -14 -5 -13 24 -31 34 -21 3 3 -1 5 -8 5
-10 0 -9 5 3 18 12 13 13 19 5 20 -77 9 -101 13 -117 22 -11 5 -35 10 -55 10
-19 0 -36 4 -38 10 -3 9 -46 12 -110 7 -33 -2 -39 1 -47 25 -11 32 -36 36 -88
13z"/>
<path d="M3480 4600 c0 -17 33 -27 66 -20 19 4 36 5 39 0 9 -14 -40 -26 -103
-24 -42 0 -61 -3 -59 -10 2 -6 14 -11 25 -10 12 0 20 -2 17 -5 -4 -4 80 -41
93 -41 12 0 -15 23 -41 34 -27 12 -28 15 -10 15 12 1 24 -3 27 -8 3 -4 18 -6
33 -3 24 5 26 3 15 -10 -11 -13 -9 -17 14 -22 15 -4 32 -2 37 3 16 16 37 13
37 -3 0 -9 7 -12 18 -9 10 2 23 -2 30 -9 9 -11 4 -13 -26 -10 -20 3 -42 8 -48
13 -6 5 -14 6 -18 2 -3 -4 8 -13 25 -20 55 -23 25 -24 -42 -2 -35 11 -80 25
-99 31 -53 16 -104 40 -117 58 -7 8 -13 13 -13 10 -8 -36 -6 -40 18 -46 15 -3
43 -11 62 -19 19 -7 65 -25 102 -39 37 -14 86 -28 110 -30 24 -3 57 -7 73 -10
27 -5 26 -4 -7 10 -52 23 -48 36 6 20 25 -8 47 -12 49 -10 2 2 9 -7 16 -20 12
-22 55 -41 89 -39 6 0 12 -3 12 -8 0 -5 5 -9 11 -9 8 0 8 5 -1 15 -7 8 -19 15
-27 15 -13 0 -13 3 -3 15 8 9 9 15 2 15 -6 0 -14 -4 -17 -10 -3 -5 -14 -10
-23 -10 -14 1 -12 5 8 22 16 14 19 19 8 15 -10 -4 -18 -2 -18 3 0 18 -38 30
-64 20 -23 -8 -30 -5 -56 22 -17 17 -30 27 -30 23 0 -5 -10 1 -22 12 -13 12
-32 23 -42 25 -14 2 -7 9 27 26 26 13 47 28 47 33 0 15 -32 10 -52 -7 -14 -13
-21 -14 -32 -5 -8 7 -34 9 -71 6 -38 -4 -54 -2 -50 5 3 5 -1 10 -9 10 -9 0
-16 -4 -16 -10z"/>
<path d="M8421 4567 c-12 -24 -21 -53 -21 -66 0 -39 -22 -110 -38 -123 -13
-11 -14 -11 -8 0 11 18 37 144 31 150 -2 3 -6 -1 -9 -9 -46 -148 -77 -261 -80
-290 -2 -20 -7 -42 -11 -49 -4 -7 -9 -47 -11 -89 -4 -88 -10 -120 -29 -141
-18 -21 -26 -100 -10 -100 18 0 32 20 40 58 4 18 15 38 25 44 14 9 16 17 9 35
-18 49 -6 108 61 299 10 28 26 95 35 150 10 54 20 104 24 109 4 6 12 22 19 38
19 44 -4 31 -27 -16z"/>
<path d="M5262 4529 c-7 -12 -16 -18 -19 -15 -3 3 -19 -6 -36 -20 -21 -18 -37
-24 -54 -19 -13 3 -23 1 -23 -5 0 -13 67 -13 75 0 3 6 21 9 38 9 18 -1 24 -3
15 -6 -26 -6 -22 -23 5 -23 17 0 19 -2 8 -9 -9 -6 -24 -5 -39 0 -22 8 -23 8
-12 -6 16 -19 70 -20 70 -1 0 7 8 16 18 19 9 2 26 8 37 13 18 7 17 5 -4 -22
l-23 -29 28 -3 c28 -4 28 -4 -11 -18 -51 -18 -65 -17 -41 1 28 21 7 19 -40 -5
l-39 -19 35 -2 c19 -1 42 0 50 1 10 1 9 -3 -5 -14 -17 -13 -18 -15 -3 -16 9 0
20 4 23 10 3 5 32 8 66 5 32 -2 59 -1 59 4 0 4 -8 8 -17 8 -58 -1 -93 4 -93
12 0 9 15 11 103 14 20 1 37 5 37 9 0 4 -4 8 -10 8 -5 0 -10 5 -10 11 0 7 10
5 25 -5 26 -17 34 -9 13 12 -9 9 -8 12 4 12 11 0 15 6 11 18 -4 16 1 18 31 14
20 -2 36 0 36 5 0 18 -69 7 -100 -15 -27 -21 -35 -22 -65 -12 -33 11 -48 30
-24 30 5 0 7 4 4 10 -10 15 28 -1 44 -19 12 -15 13 -14 8 2 -5 13 -1 17 18 17
13 0 27 5 31 11 4 7 -5 10 -27 9 -62 -4 -122 0 -116 7 12 11 -15 33 -42 33
-16 0 -31 -8 -39 -21z"/>
<path d="M6633 4394 c0 -27 12 -29 62 -8 18 7 18 6 6 -9 -7 -9 -23 -17 -35
-17 -12 0 -28 -6 -35 -12 -9 -8 -12 -9 -7 -1 12 21 -70 8 -108 -17 -37 -26
-52 -59 -18 -41 9 6 30 12 45 16 24 5 27 8 17 20 -10 12 -9 15 4 15 9 0 16 -7
16 -16 0 -13 3 -14 14 -5 10 9 16 8 26 -4 12 -15 4 -20 -22 -16 -5 0 -8 -4 -8
-10 0 -7 9 -9 23 -6 l22 6 -22 -19 c-13 -10 -23 -20 -23 -22 0 -2 19 -3 43 -2
23 0 48 -4 55 -9 6 -5 12 -6 12 -2 0 4 6 2 14 -4 12 -10 13 -9 9 7 -2 11 1 23
8 28 9 5 11 2 6 -9 -4 -10 0 -20 11 -26 14 -7 18 -5 18 7 1 9 4 25 8 34 6 13
1 18 -28 23 -19 4 -40 4 -47 -1 -7 -4 -5 3 4 15 8 13 13 30 10 39 -4 10 -1 13
8 10 8 -3 14 -9 14 -15 0 -14 28 -39 53 -47 25 -8 30 9 6 18 -16 6 -16 8 0 25
9 9 13 21 10 24 -4 4 -13 -1 -21 -11 -12 -16 -13 -16 -6 2 4 13 2 17 -8 14 -8
-3 -26 3 -41 14 -21 14 -32 16 -53 8 -22 -8 -25 -7 -23 7 2 9 -2 18 -8 20 -7
2 -11 -7 -11 -23z"/>
<path d="M6893 4348 c4 -12 1 -18 -7 -18 -8 0 -17 -7 -20 -16 -3 -8 -10 -12
-16 -9 -5 3 -10 1 -10 -5 0 -6 8 -9 18 -6 9 3 24 1 32 -4 10 -6 4 -9 -20 -8
-19 1 -38 5 -41 9 -3 5 -18 -5 -35 -22 -29 -31 -29 -31 -4 -24 14 4 29 13 33
19 5 7 7 4 5 -8 -2 -14 4 -20 22 -21 34 -3 48 7 24 16 -17 7 -17 8 5 8 20 1
22 -3 17 -24 -5 -20 -3 -23 11 -18 11 4 14 3 9 -5 -4 -7 -3 -12 2 -12 6 0 9
15 8 33 l-1 32 64 0 c63 0 66 1 84 33 21 35 36 42 33 15 -1 -13 6 -18 22 -17
12 0 22 -3 22 -8 0 -4 -11 -8 -25 -8 -14 0 -25 5 -25 11 0 5 -4 7 -10 4 -16
-10 -12 -33 8 -38 9 -3 -5 -5 -31 -6 -29 -1 -46 -5 -42 -11 3 -5 -3 -10 -14
-10 -13 0 -21 7 -21 16 0 11 -5 14 -16 10 -9 -3 -22 -6 -30 -6 -9 0 -13 -4
-10 -9 3 -5 15 -7 26 -4 19 5 19 4 5 -23 -19 -37 -19 -50 -1 -34 8 6 13 17 10
25 -3 7 -1 16 5 20 6 3 11 2 11 -3 0 -5 11 -12 25 -14 17 -4 25 -1 25 9 0 8 6
13 13 10 6 -2 11 -12 9 -21 -3 -14 2 -16 32 -10 25 4 36 3 36 -5 0 -7 5 -9 12
-5 8 5 9 2 5 -9 -8 -21 -3 -22 13 -2 10 13 6 18 -31 35 -24 11 -41 20 -36 21
4 1 12 3 17 4 6 1 16 3 24 4 7 0 16 10 19 21 3 11 10 20 17 20 6 0 8 -4 5 -10
-4 -6 12 -9 39 -8 47 2 69 -8 47 -21 -10 -6 -9 -12 4 -25 20 -19 26 -20 21 -3
-3 6 -7 24 -10 40 -6 24 -11 27 -46 27 -24 0 -40 5 -40 12 0 6 -3 8 -7 4 -4
-4 -13 8 -19 26 -7 18 -13 26 -13 17 -1 -9 -8 -19 -15 -22 -9 -4 -13 -1 -10 6
3 9 -13 12 -55 12 -32 0 -54 -3 -48 -7 7 -4 20 -8 30 -8 9 0 17 -4 17 -9 0 -5
-15 -5 -35 -1 -19 4 -36 5 -38 1 -2 -3 -2 0 0 8 2 7 -5 20 -14 27 -22 16 -33
17 -33 3 0 -5 4 -8 9 -4 5 3 12 1 16 -5 11 -17 -47 -11 -68 8 -19 16 -20 16
-14 0z"/>
<path d="M3542 4311 c-34 -10 -66 -21 -69 -25 -10 -10 116 -133 154 -151 18
-9 39 -13 46 -9 6 4 -1 -8 -18 -27 -36 -40 -6 -20 52 35 56 52 69 92 49 141
-12 27 -20 35 -32 31 -8 -3 -28 1 -44 9 -36 19 -59 18 -138 -4z"/>
<path d="M3302 4173 c-42 -60 -35 -89 32 -142 37 -30 86 -42 86 -21 0 6 -13
10 -29 10 -17 0 -32 4 -35 9 -3 4 5 6 17 4 12 -2 46 4 76 14 l53 19 -54 41
c-29 23 -64 54 -78 68 -30 32 -44 32 -68 -2z"/>
<path d="M6997 2920 l5 -35 -22 23 c-11 12 -23 22 -25 22 -5 0 6 -32 16 -45 4
-5 20 -48 36 -94 21 -63 25 -85 15 -89 -8 -2 -1 -25 25 -75 24 -45 39 -65 41
-54 2 9 8 14 13 11 6 -3 9 0 7 8 -2 7 1 14 6 15 10 1 26 23 26 36 0 4 -6 7
-14 7 -18 0 -27 35 -13 49 8 8 8 11 0 11 -10 0 -39 53 -65 118 -7 17 -16 32
-20 32 -5 0 -8 14 -8 30 0 17 -4 30 -9 30 -5 0 -12 8 -14 18 -2 9 -2 1 0 -18z"/>
<path d="M4315 2524 c-8 -20 -15 -40 -15 -44 0 -4 -24 -43 -54 -88 -66 -99
-71 -110 -80 -207 -3 -27 -8 -57 -11 -66 -4 -10 -2 -20 3 -23 11 -6 72 94 72
117 0 18 58 130 79 155 37 42 94 159 87 178 -3 8 -19 14 -36 14 -25 0 -32 -6
-45 -36z"/>
</g>
</svg>
